M48
; DRILL file {KiCad 9.0.4} date 2025-09-16T15:34:44-0400
; FORMAT={-:-/ absolute / metric / decimal}
; #@! TF.CreationDate,2025-09-16T15:34:44-04:00
; #@! TF.GenerationSoftware,Kicad,Pcbnew,9.0.4
; #@! TF.FileFunction,Plated,1,4,PTH
FMAT,2
METRIC
; #@! TA.AperFunction,Plated,PTH,ComponentDrill
T1C0.750
; #@! TA.AperFunction,Plated,PTH,ComponentDrill
T2C0.800
; #@! TA.AperFunction,Plated,PTH,ComponentDrill
T3C1.100
%
G90
G05
T1
X206.0Y-35.0
X206.0Y-37.0
X206.0Y-39.0
X206.0Y-41.0
X206.0Y-43.0
X206.0Y-45.0
X206.0Y-51.0
X206.0Y-53.0
X206.0Y-55.0
X206.0Y-57.0
X206.0Y-59.0
X206.0Y-61.0
X213.5Y-35.0
X213.5Y-37.0
X213.5Y-39.0
X213.5Y-41.0
X213.5Y-43.0
X213.5Y-45.0
X213.5Y-51.0
X213.5Y-53.0
X213.5Y-55.0
X213.5Y-57.0
X213.5Y-59.0
X213.5Y-61.0
X221.0Y-51.0
X221.0Y-53.0
X221.0Y-55.0
X221.0Y-57.0
X221.0Y-59.0
X221.0Y-61.0
X221.05Y-35.0
X221.05Y-37.0
X221.05Y-39.0
X221.05Y-41.0
X221.05Y-43.0
X221.05Y-45.0
X228.6Y-35.0
X228.6Y-37.0
X228.6Y-39.0
X228.6Y-41.0
X228.6Y-43.0
X228.6Y-45.0
X228.65Y-51.0
X228.65Y-53.0
X228.65Y-55.0
X228.65Y-57.0
X228.65Y-59.0
X228.65Y-61.0
T2
X189.65Y-34.69
X192.102Y-46.93
X192.102Y-48.93
X192.19Y-34.69
X194.102Y-46.93
X194.102Y-48.93
X196.102Y-46.93
X196.102Y-48.93
T3
X183.3Y-33.96
X183.3Y-36.5
X183.3Y-39.04
X183.3Y-41.58
X183.3Y-44.12
X183.3Y-46.66
X183.3Y-49.2
X183.3Y-51.74
X183.3Y-54.28
X183.3Y-56.82
X183.3Y-59.36
X183.3Y-61.9
X183.3Y-64.44
X183.3Y-66.98
X183.3Y-69.52
X183.3Y-72.06
X183.3Y-74.6
X183.3Y-77.14
X183.3Y-79.68
X183.3Y-82.22
X183.3Y-84.76
X183.3Y-87.3
X183.3Y-89.84
X183.3Y-92.38
X185.84Y-79.68
X186.351Y-40.259
X186.351Y-42.799
X186.351Y-45.339
X186.351Y-47.879
X186.351Y-50.419
X188.38Y-79.68
X190.92Y-79.68
X193.46Y-79.68
X196.0Y-36.5
X196.0Y-79.68
X198.54Y-33.96
X198.54Y-36.5
X198.54Y-39.04
X198.54Y-41.58
X198.54Y-44.12
X198.54Y-46.66
X198.54Y-49.2
X198.54Y-51.74
X198.54Y-54.28
X198.54Y-56.82
X198.54Y-59.36
X198.54Y-61.9
X198.54Y-64.44
X198.54Y-66.98
X198.54Y-69.52
X198.54Y-72.06
X198.54Y-74.6
X198.54Y-77.14
X198.54Y-79.68
X198.54Y-82.22
X198.54Y-84.76
X198.54Y-87.3
X198.54Y-89.84
X198.54Y-92.38
M30
