%TF.GenerationSoftware,KiCad,Pcbnew,9.0.4*%
%TF.CreationDate,2025-09-16T15:40:17-04:00*%
%TF.ProjectId,mic,6d69632e-6b69-4636-9164-5f7063625858,rev?*%
%TF.SameCoordinates,Original*%
%TF.FileFunction,Drillmap*%
%TF.FilePolarity,Positive*%
%FSLAX45Y45*%
G04 Gerber Fmt 4.5, Leading zero omitted, Abs format (unit mm)*
G04 Created by KiCad (PCBNEW 9.0.4) date 2025-09-16 15:40:17*
%MOMM*%
%LPD*%
G01*
G04 APERTURE LIST*
%ADD10C,0.050000*%
%ADD11C,0.200000*%
%ADD12C,0.100000*%
%ADD13C,0.110000*%
G04 APERTURE END LIST*
D10*
X17900000Y-2850000D02*
X23600000Y-2850000D01*
X23600000Y-9750000D01*
X17900000Y-9750000D01*
X17900000Y-2850000D01*
D11*
D12*
X20562500Y-3462500D02*
X20637500Y-3537500D01*
X20637500Y-3462500D02*
X20562500Y-3537500D01*
X20562500Y-3662500D02*
X20637500Y-3737500D01*
X20637500Y-3662500D02*
X20562500Y-3737500D01*
X20562500Y-3862500D02*
X20637500Y-3937500D01*
X20637500Y-3862500D02*
X20562500Y-3937500D01*
X20562500Y-4062500D02*
X20637500Y-4137500D01*
X20637500Y-4062500D02*
X20562500Y-4137500D01*
X20562500Y-4262500D02*
X20637500Y-4337500D01*
X20637500Y-4262500D02*
X20562500Y-4337500D01*
X20562500Y-4462500D02*
X20637500Y-4537500D01*
X20637500Y-4462500D02*
X20562500Y-4537500D01*
X20562500Y-5062500D02*
X20637500Y-5137500D01*
X20637500Y-5062500D02*
X20562500Y-5137500D01*
X20562500Y-5262500D02*
X20637500Y-5337500D01*
X20637500Y-5262500D02*
X20562500Y-5337500D01*
X20562500Y-5462500D02*
X20637500Y-5537500D01*
X20637500Y-5462500D02*
X20562500Y-5537500D01*
X20562500Y-5662500D02*
X20637500Y-5737500D01*
X20637500Y-5662500D02*
X20562500Y-5737500D01*
X20562500Y-5862500D02*
X20637500Y-5937500D01*
X20637500Y-5862500D02*
X20562500Y-5937500D01*
X20562500Y-6062500D02*
X20637500Y-6137500D01*
X20637500Y-6062500D02*
X20562500Y-6137500D01*
X21312500Y-3462500D02*
X21387500Y-3537500D01*
X21387500Y-3462500D02*
X21312500Y-3537500D01*
X21312500Y-3662500D02*
X21387500Y-3737500D01*
X21387500Y-3662500D02*
X21312500Y-3737500D01*
X21312500Y-3862500D02*
X21387500Y-3937500D01*
X21387500Y-3862500D02*
X21312500Y-3937500D01*
X21312500Y-4062500D02*
X21387500Y-4137500D01*
X21387500Y-4062500D02*
X21312500Y-4137500D01*
X21312500Y-4262500D02*
X21387500Y-4337500D01*
X21387500Y-4262500D02*
X21312500Y-4337500D01*
X21312500Y-4462500D02*
X21387500Y-4537500D01*
X21387500Y-4462500D02*
X21312500Y-4537500D01*
X21312500Y-5062500D02*
X21387500Y-5137500D01*
X21387500Y-5062500D02*
X21312500Y-5137500D01*
X21312500Y-5262500D02*
X21387500Y-5337500D01*
X21387500Y-5262500D02*
X21312500Y-5337500D01*
X21312500Y-5462500D02*
X21387500Y-5537500D01*
X21387500Y-5462500D02*
X21312500Y-5537500D01*
X21312500Y-5662500D02*
X21387500Y-5737500D01*
X21387500Y-5662500D02*
X21312500Y-5737500D01*
X21312500Y-5862500D02*
X21387500Y-5937500D01*
X21387500Y-5862500D02*
X21312500Y-5937500D01*
X21312500Y-6062500D02*
X21387500Y-6137500D01*
X21387500Y-6062500D02*
X21312500Y-6137500D01*
X22062500Y-5062500D02*
X22137500Y-5137500D01*
X22137500Y-5062500D02*
X22062500Y-5137500D01*
X22062500Y-5262500D02*
X22137500Y-5337500D01*
X22137500Y-5262500D02*
X22062500Y-5337500D01*
X22062500Y-5462500D02*
X22137500Y-5537500D01*
X22137500Y-5462500D02*
X22062500Y-5537500D01*
X22062500Y-5662500D02*
X22137500Y-5737500D01*
X22137500Y-5662500D02*
X22062500Y-5737500D01*
X22062500Y-5862500D02*
X22137500Y-5937500D01*
X22137500Y-5862500D02*
X22062500Y-5937500D01*
X22062500Y-6062500D02*
X22137500Y-6137500D01*
X22137500Y-6062500D02*
X22062500Y-6137500D01*
X22067500Y-3462500D02*
X22142500Y-3537500D01*
X22142500Y-3462500D02*
X22067500Y-3537500D01*
X22067500Y-3662500D02*
X22142500Y-3737500D01*
X22142500Y-3662500D02*
X22067500Y-3737500D01*
X22067500Y-3862500D02*
X22142500Y-3937500D01*
X22142500Y-3862500D02*
X22067500Y-3937500D01*
X22067500Y-4062500D02*
X22142500Y-4137500D01*
X22142500Y-4062500D02*
X22067500Y-4137500D01*
X22067500Y-4262500D02*
X22142500Y-4337500D01*
X22142500Y-4262500D02*
X22067500Y-4337500D01*
X22067500Y-4462500D02*
X22142500Y-4537500D01*
X22142500Y-4462500D02*
X22067500Y-4537500D01*
X22822500Y-3462500D02*
X22897500Y-3537500D01*
X22897500Y-3462500D02*
X22822500Y-3537500D01*
X22822500Y-3662500D02*
X22897500Y-3737500D01*
X22897500Y-3662500D02*
X22822500Y-3737500D01*
X22822500Y-3862500D02*
X22897500Y-3937500D01*
X22897500Y-3862500D02*
X22822500Y-3937500D01*
X22822500Y-4062500D02*
X22897500Y-4137500D01*
X22897500Y-4062500D02*
X22822500Y-4137500D01*
X22822500Y-4262500D02*
X22897500Y-4337500D01*
X22897500Y-4262500D02*
X22822500Y-4337500D01*
X22822500Y-4462500D02*
X22897500Y-4537500D01*
X22897500Y-4462500D02*
X22822500Y-4537500D01*
X22827500Y-5062500D02*
X22902500Y-5137500D01*
X22902500Y-5062500D02*
X22827500Y-5137500D01*
X22827500Y-5262500D02*
X22902500Y-5337500D01*
X22902500Y-5262500D02*
X22827500Y-5337500D01*
X22827500Y-5462500D02*
X22902500Y-5537500D01*
X22902500Y-5462500D02*
X22827500Y-5537500D01*
X22827500Y-5662500D02*
X22902500Y-5737500D01*
X22902500Y-5662500D02*
X22827500Y-5737500D01*
X22827500Y-5862500D02*
X22902500Y-5937500D01*
X22902500Y-5862500D02*
X22827500Y-5937500D01*
X22827500Y-6062500D02*
X22902500Y-6137500D01*
X22902500Y-6062500D02*
X22827500Y-6137500D01*
X19005000Y-3469000D02*
G75*
G02*
X18925000Y-3469000I-40000J0D01*
G01*
X18925000Y-3469000D02*
G75*
G02*
X19005000Y-3469000I40000J0D01*
G01*
X19250160Y-4693000D02*
G75*
G02*
X19170160Y-4693000I-40000J0D01*
G01*
X19170160Y-4693000D02*
G75*
G02*
X19250160Y-4693000I40000J0D01*
G01*
X19250160Y-4893000D02*
G75*
G02*
X19170160Y-4893000I-40000J0D01*
G01*
X19170160Y-4893000D02*
G75*
G02*
X19250160Y-4893000I40000J0D01*
G01*
X19259000Y-3469000D02*
G75*
G02*
X19179000Y-3469000I-40000J0D01*
G01*
X19179000Y-3469000D02*
G75*
G02*
X19259000Y-3469000I40000J0D01*
G01*
X19450160Y-4693000D02*
G75*
G02*
X19370160Y-4693000I-40000J0D01*
G01*
X19370160Y-4693000D02*
G75*
G02*
X19450160Y-4693000I40000J0D01*
G01*
X19450160Y-4893000D02*
G75*
G02*
X19370160Y-4893000I-40000J0D01*
G01*
X19370160Y-4893000D02*
G75*
G02*
X19450160Y-4893000I40000J0D01*
G01*
X19650160Y-4693000D02*
G75*
G02*
X19570160Y-4693000I-40000J0D01*
G01*
X19570160Y-4693000D02*
G75*
G02*
X19650160Y-4693000I40000J0D01*
G01*
X19650160Y-4893000D02*
G75*
G02*
X19570160Y-4893000I-40000J0D01*
G01*
X19570160Y-4893000D02*
G75*
G02*
X19650160Y-4893000I40000J0D01*
G01*
D13*
X18330000Y-3341000D02*
X18330000Y-3451000D01*
X18275000Y-3396000D02*
X18385000Y-3396000D01*
X18330000Y-3595000D02*
X18330000Y-3705000D01*
X18275000Y-3650000D02*
X18385000Y-3650000D01*
X18330000Y-3849000D02*
X18330000Y-3959000D01*
X18275000Y-3904000D02*
X18385000Y-3904000D01*
X18330000Y-4103000D02*
X18330000Y-4213000D01*
X18275000Y-4158000D02*
X18385000Y-4158000D01*
X18330000Y-4357000D02*
X18330000Y-4467000D01*
X18275000Y-4412000D02*
X18385000Y-4412000D01*
X18330000Y-4611000D02*
X18330000Y-4721000D01*
X18275000Y-4666000D02*
X18385000Y-4666000D01*
X18330000Y-4865000D02*
X18330000Y-4975000D01*
X18275000Y-4920000D02*
X18385000Y-4920000D01*
X18330000Y-5119000D02*
X18330000Y-5229000D01*
X18275000Y-5174000D02*
X18385000Y-5174000D01*
X18330000Y-5373000D02*
X18330000Y-5483000D01*
X18275000Y-5428000D02*
X18385000Y-5428000D01*
X18330000Y-5627000D02*
X18330000Y-5737000D01*
X18275000Y-5682000D02*
X18385000Y-5682000D01*
X18330000Y-5881000D02*
X18330000Y-5991000D01*
X18275000Y-5936000D02*
X18385000Y-5936000D01*
X18330000Y-6135000D02*
X18330000Y-6245000D01*
X18275000Y-6190000D02*
X18385000Y-6190000D01*
X18330000Y-6389000D02*
X18330000Y-6499000D01*
X18275000Y-6444000D02*
X18385000Y-6444000D01*
X18330000Y-6643000D02*
X18330000Y-6753000D01*
X18275000Y-6698000D02*
X18385000Y-6698000D01*
X18330000Y-6897000D02*
X18330000Y-7007000D01*
X18275000Y-6952000D02*
X18385000Y-6952000D01*
X18330000Y-7151000D02*
X18330000Y-7261000D01*
X18275000Y-7206000D02*
X18385000Y-7206000D01*
X18330000Y-7405000D02*
X18330000Y-7515000D01*
X18275000Y-7460000D02*
X18385000Y-7460000D01*
X18330000Y-7659000D02*
X18330000Y-7769000D01*
X18275000Y-7714000D02*
X18385000Y-7714000D01*
X18330000Y-7913000D02*
X18330000Y-8023000D01*
X18275000Y-7968000D02*
X18385000Y-7968000D01*
X18330000Y-8167000D02*
X18330000Y-8277000D01*
X18275000Y-8222000D02*
X18385000Y-8222000D01*
X18330000Y-8421000D02*
X18330000Y-8531000D01*
X18275000Y-8476000D02*
X18385000Y-8476000D01*
X18330000Y-8675000D02*
X18330000Y-8785000D01*
X18275000Y-8730000D02*
X18385000Y-8730000D01*
X18330000Y-8929000D02*
X18330000Y-9039000D01*
X18275000Y-8984000D02*
X18385000Y-8984000D01*
X18330000Y-9183000D02*
X18330000Y-9293000D01*
X18275000Y-9238000D02*
X18385000Y-9238000D01*
X18584000Y-7913000D02*
X18584000Y-8023000D01*
X18529000Y-7968000D02*
X18639000Y-7968000D01*
X18635080Y-3970920D02*
X18635080Y-4080920D01*
X18580080Y-4025920D02*
X18690080Y-4025920D01*
X18635080Y-4224920D02*
X18635080Y-4334920D01*
X18580080Y-4279920D02*
X18690080Y-4279920D01*
X18635080Y-4478920D02*
X18635080Y-4588920D01*
X18580080Y-4533920D02*
X18690080Y-4533920D01*
X18635080Y-4732920D02*
X18635080Y-4842920D01*
X18580080Y-4787920D02*
X18690080Y-4787920D01*
X18635080Y-4986920D02*
X18635080Y-5096920D01*
X18580080Y-5041920D02*
X18690080Y-5041920D01*
X18838000Y-7913000D02*
X18838000Y-8023000D01*
X18783000Y-7968000D02*
X18893000Y-7968000D01*
X19092000Y-7913000D02*
X19092000Y-8023000D01*
X19037000Y-7968000D02*
X19147000Y-7968000D01*
X19346000Y-7913000D02*
X19346000Y-8023000D01*
X19291000Y-7968000D02*
X19401000Y-7968000D01*
X19600000Y-3595000D02*
X19600000Y-3705000D01*
X19545000Y-3650000D02*
X19655000Y-3650000D01*
X19600000Y-7913000D02*
X19600000Y-8023000D01*
X19545000Y-7968000D02*
X19655000Y-7968000D01*
X19854000Y-3341000D02*
X19854000Y-3451000D01*
X19799000Y-3396000D02*
X19909000Y-3396000D01*
X19854000Y-3595000D02*
X19854000Y-3705000D01*
X19799000Y-3650000D02*
X19909000Y-3650000D01*
X19854000Y-3849000D02*
X19854000Y-3959000D01*
X19799000Y-3904000D02*
X19909000Y-3904000D01*
X19854000Y-4103000D02*
X19854000Y-4213000D01*
X19799000Y-4158000D02*
X19909000Y-4158000D01*
X19854000Y-4357000D02*
X19854000Y-4467000D01*
X19799000Y-4412000D02*
X19909000Y-4412000D01*
X19854000Y-4611000D02*
X19854000Y-4721000D01*
X19799000Y-4666000D02*
X19909000Y-4666000D01*
X19854000Y-4865000D02*
X19854000Y-4975000D01*
X19799000Y-4920000D02*
X19909000Y-4920000D01*
X19854000Y-5119000D02*
X19854000Y-5229000D01*
X19799000Y-5174000D02*
X19909000Y-5174000D01*
X19854000Y-5373000D02*
X19854000Y-5483000D01*
X19799000Y-5428000D02*
X19909000Y-5428000D01*
X19854000Y-5627000D02*
X19854000Y-5737000D01*
X19799000Y-5682000D02*
X19909000Y-5682000D01*
X19854000Y-5881000D02*
X19854000Y-5991000D01*
X19799000Y-5936000D02*
X19909000Y-5936000D01*
X19854000Y-6135000D02*
X19854000Y-6245000D01*
X19799000Y-6190000D02*
X19909000Y-6190000D01*
X19854000Y-6389000D02*
X19854000Y-6499000D01*
X19799000Y-6444000D02*
X19909000Y-6444000D01*
X19854000Y-6643000D02*
X19854000Y-6753000D01*
X19799000Y-6698000D02*
X19909000Y-6698000D01*
X19854000Y-6897000D02*
X19854000Y-7007000D01*
X19799000Y-6952000D02*
X19909000Y-6952000D01*
X19854000Y-7151000D02*
X19854000Y-7261000D01*
X19799000Y-7206000D02*
X19909000Y-7206000D01*
X19854000Y-7405000D02*
X19854000Y-7515000D01*
X19799000Y-7460000D02*
X19909000Y-7460000D01*
X19854000Y-7659000D02*
X19854000Y-7769000D01*
X19799000Y-7714000D02*
X19909000Y-7714000D01*
X19854000Y-7913000D02*
X19854000Y-8023000D01*
X19799000Y-7968000D02*
X19909000Y-7968000D01*
X19854000Y-8167000D02*
X19854000Y-8277000D01*
X19799000Y-8222000D02*
X19909000Y-8222000D01*
X19854000Y-8421000D02*
X19854000Y-8531000D01*
X19799000Y-8476000D02*
X19909000Y-8476000D01*
X19854000Y-8675000D02*
X19854000Y-8785000D01*
X19799000Y-8730000D02*
X19909000Y-8730000D01*
X19854000Y-8929000D02*
X19854000Y-9039000D01*
X19799000Y-8984000D02*
X19909000Y-8984000D01*
X19854000Y-9183000D02*
X19854000Y-9293000D01*
X19799000Y-9238000D02*
X19909000Y-9238000D01*
D11*
X18158277Y-10063984D02*
X18158277Y-9863984D01*
X18158277Y-9863984D02*
X18205896Y-9863984D01*
X18205896Y-9863984D02*
X18234467Y-9873508D01*
X18234467Y-9873508D02*
X18253515Y-9892555D01*
X18253515Y-9892555D02*
X18263039Y-9911603D01*
X18263039Y-9911603D02*
X18272563Y-9949698D01*
X18272563Y-9949698D02*
X18272563Y-9978270D01*
X18272563Y-9978270D02*
X18263039Y-10016365D01*
X18263039Y-10016365D02*
X18253515Y-10035412D01*
X18253515Y-10035412D02*
X18234467Y-10054460D01*
X18234467Y-10054460D02*
X18205896Y-10063984D01*
X18205896Y-10063984D02*
X18158277Y-10063984D01*
X18358277Y-10063984D02*
X18358277Y-9930650D01*
X18358277Y-9968746D02*
X18367801Y-9949698D01*
X18367801Y-9949698D02*
X18377324Y-9940174D01*
X18377324Y-9940174D02*
X18396372Y-9930650D01*
X18396372Y-9930650D02*
X18415420Y-9930650D01*
X18482086Y-10063984D02*
X18482086Y-9930650D01*
X18482086Y-9863984D02*
X18472563Y-9873508D01*
X18472563Y-9873508D02*
X18482086Y-9883031D01*
X18482086Y-9883031D02*
X18491610Y-9873508D01*
X18491610Y-9873508D02*
X18482086Y-9863984D01*
X18482086Y-9863984D02*
X18482086Y-9883031D01*
X18605896Y-10063984D02*
X18586848Y-10054460D01*
X18586848Y-10054460D02*
X18577324Y-10035412D01*
X18577324Y-10035412D02*
X18577324Y-9863984D01*
X18710658Y-10063984D02*
X18691610Y-10054460D01*
X18691610Y-10054460D02*
X18682086Y-10035412D01*
X18682086Y-10035412D02*
X18682086Y-9863984D01*
X18939229Y-10063984D02*
X18939229Y-9863984D01*
X18939229Y-9863984D02*
X19005896Y-10006841D01*
X19005896Y-10006841D02*
X19072563Y-9863984D01*
X19072563Y-9863984D02*
X19072563Y-10063984D01*
X19253515Y-10063984D02*
X19253515Y-9959222D01*
X19253515Y-9959222D02*
X19243991Y-9940174D01*
X19243991Y-9940174D02*
X19224944Y-9930650D01*
X19224944Y-9930650D02*
X19186848Y-9930650D01*
X19186848Y-9930650D02*
X19167801Y-9940174D01*
X19253515Y-10054460D02*
X19234467Y-10063984D01*
X19234467Y-10063984D02*
X19186848Y-10063984D01*
X19186848Y-10063984D02*
X19167801Y-10054460D01*
X19167801Y-10054460D02*
X19158277Y-10035412D01*
X19158277Y-10035412D02*
X19158277Y-10016365D01*
X19158277Y-10016365D02*
X19167801Y-9997317D01*
X19167801Y-9997317D02*
X19186848Y-9987793D01*
X19186848Y-9987793D02*
X19234467Y-9987793D01*
X19234467Y-9987793D02*
X19253515Y-9978270D01*
X19348753Y-9930650D02*
X19348753Y-10130650D01*
X19348753Y-9940174D02*
X19367801Y-9930650D01*
X19367801Y-9930650D02*
X19405896Y-9930650D01*
X19405896Y-9930650D02*
X19424944Y-9940174D01*
X19424944Y-9940174D02*
X19434467Y-9949698D01*
X19434467Y-9949698D02*
X19443991Y-9968746D01*
X19443991Y-9968746D02*
X19443991Y-10025889D01*
X19443991Y-10025889D02*
X19434467Y-10044936D01*
X19434467Y-10044936D02*
X19424944Y-10054460D01*
X19424944Y-10054460D02*
X19405896Y-10063984D01*
X19405896Y-10063984D02*
X19367801Y-10063984D01*
X19367801Y-10063984D02*
X19348753Y-10054460D01*
X19529705Y-10044936D02*
X19539229Y-10054460D01*
X19539229Y-10054460D02*
X19529705Y-10063984D01*
X19529705Y-10063984D02*
X19520182Y-10054460D01*
X19520182Y-10054460D02*
X19529705Y-10044936D01*
X19529705Y-10044936D02*
X19529705Y-10063984D01*
X19529705Y-9940174D02*
X19539229Y-9949698D01*
X19539229Y-9949698D02*
X19529705Y-9959222D01*
X19529705Y-9959222D02*
X19520182Y-9949698D01*
X19520182Y-9949698D02*
X19529705Y-9940174D01*
X19529705Y-9940174D02*
X19529705Y-9959222D01*
D12*
X17822500Y-10355000D02*
X17897500Y-10430000D01*
X17897500Y-10355000D02*
X17822500Y-10430000D01*
D11*
X18196372Y-10283984D02*
X18215420Y-10283984D01*
X18215420Y-10283984D02*
X18234467Y-10293508D01*
X18234467Y-10293508D02*
X18243991Y-10303031D01*
X18243991Y-10303031D02*
X18253515Y-10322079D01*
X18253515Y-10322079D02*
X18263039Y-10360174D01*
X18263039Y-10360174D02*
X18263039Y-10407793D01*
X18263039Y-10407793D02*
X18253515Y-10445889D01*
X18253515Y-10445889D02*
X18243991Y-10464936D01*
X18243991Y-10464936D02*
X18234467Y-10474460D01*
X18234467Y-10474460D02*
X18215420Y-10483984D01*
X18215420Y-10483984D02*
X18196372Y-10483984D01*
X18196372Y-10483984D02*
X18177324Y-10474460D01*
X18177324Y-10474460D02*
X18167801Y-10464936D01*
X18167801Y-10464936D02*
X18158277Y-10445889D01*
X18158277Y-10445889D02*
X18148753Y-10407793D01*
X18148753Y-10407793D02*
X18148753Y-10360174D01*
X18148753Y-10360174D02*
X18158277Y-10322079D01*
X18158277Y-10322079D02*
X18167801Y-10303031D01*
X18167801Y-10303031D02*
X18177324Y-10293508D01*
X18177324Y-10293508D02*
X18196372Y-10283984D01*
X18348753Y-10464936D02*
X18358277Y-10474460D01*
X18358277Y-10474460D02*
X18348753Y-10483984D01*
X18348753Y-10483984D02*
X18339229Y-10474460D01*
X18339229Y-10474460D02*
X18348753Y-10464936D01*
X18348753Y-10464936D02*
X18348753Y-10483984D01*
X18424944Y-10283984D02*
X18558277Y-10283984D01*
X18558277Y-10283984D02*
X18472563Y-10483984D01*
X18729705Y-10283984D02*
X18634467Y-10283984D01*
X18634467Y-10283984D02*
X18624944Y-10379222D01*
X18624944Y-10379222D02*
X18634467Y-10369698D01*
X18634467Y-10369698D02*
X18653515Y-10360174D01*
X18653515Y-10360174D02*
X18701134Y-10360174D01*
X18701134Y-10360174D02*
X18720182Y-10369698D01*
X18720182Y-10369698D02*
X18729705Y-10379222D01*
X18729705Y-10379222D02*
X18739229Y-10398270D01*
X18739229Y-10398270D02*
X18739229Y-10445889D01*
X18739229Y-10445889D02*
X18729705Y-10464936D01*
X18729705Y-10464936D02*
X18720182Y-10474460D01*
X18720182Y-10474460D02*
X18701134Y-10483984D01*
X18701134Y-10483984D02*
X18653515Y-10483984D01*
X18653515Y-10483984D02*
X18634467Y-10474460D01*
X18634467Y-10474460D02*
X18624944Y-10464936D01*
X18863039Y-10283984D02*
X18882086Y-10283984D01*
X18882086Y-10283984D02*
X18901134Y-10293508D01*
X18901134Y-10293508D02*
X18910658Y-10303031D01*
X18910658Y-10303031D02*
X18920182Y-10322079D01*
X18920182Y-10322079D02*
X18929705Y-10360174D01*
X18929705Y-10360174D02*
X18929705Y-10407793D01*
X18929705Y-10407793D02*
X18920182Y-10445889D01*
X18920182Y-10445889D02*
X18910658Y-10464936D01*
X18910658Y-10464936D02*
X18901134Y-10474460D01*
X18901134Y-10474460D02*
X18882086Y-10483984D01*
X18882086Y-10483984D02*
X18863039Y-10483984D01*
X18863039Y-10483984D02*
X18843991Y-10474460D01*
X18843991Y-10474460D02*
X18834467Y-10464936D01*
X18834467Y-10464936D02*
X18824944Y-10445889D01*
X18824944Y-10445889D02*
X18815420Y-10407793D01*
X18815420Y-10407793D02*
X18815420Y-10360174D01*
X18815420Y-10360174D02*
X18824944Y-10322079D01*
X18824944Y-10322079D02*
X18834467Y-10303031D01*
X18834467Y-10303031D02*
X18843991Y-10293508D01*
X18843991Y-10293508D02*
X18863039Y-10283984D01*
X19015420Y-10483984D02*
X19015420Y-10350650D01*
X19015420Y-10369698D02*
X19024944Y-10360174D01*
X19024944Y-10360174D02*
X19043991Y-10350650D01*
X19043991Y-10350650D02*
X19072563Y-10350650D01*
X19072563Y-10350650D02*
X19091610Y-10360174D01*
X19091610Y-10360174D02*
X19101134Y-10379222D01*
X19101134Y-10379222D02*
X19101134Y-10483984D01*
X19101134Y-10379222D02*
X19110658Y-10360174D01*
X19110658Y-10360174D02*
X19129705Y-10350650D01*
X19129705Y-10350650D02*
X19158277Y-10350650D01*
X19158277Y-10350650D02*
X19177325Y-10360174D01*
X19177325Y-10360174D02*
X19186848Y-10379222D01*
X19186848Y-10379222D02*
X19186848Y-10483984D01*
X19282086Y-10483984D02*
X19282086Y-10350650D01*
X19282086Y-10369698D02*
X19291610Y-10360174D01*
X19291610Y-10360174D02*
X19310658Y-10350650D01*
X19310658Y-10350650D02*
X19339229Y-10350650D01*
X19339229Y-10350650D02*
X19358277Y-10360174D01*
X19358277Y-10360174D02*
X19367801Y-10379222D01*
X19367801Y-10379222D02*
X19367801Y-10483984D01*
X19367801Y-10379222D02*
X19377325Y-10360174D01*
X19377325Y-10360174D02*
X19396372Y-10350650D01*
X19396372Y-10350650D02*
X19424944Y-10350650D01*
X19424944Y-10350650D02*
X19443991Y-10360174D01*
X19443991Y-10360174D02*
X19453515Y-10379222D01*
X19453515Y-10379222D02*
X19453515Y-10483984D01*
X19843991Y-10274460D02*
X19672563Y-10531603D01*
X20101134Y-10283984D02*
X20120182Y-10283984D01*
X20120182Y-10283984D02*
X20139229Y-10293508D01*
X20139229Y-10293508D02*
X20148753Y-10303031D01*
X20148753Y-10303031D02*
X20158277Y-10322079D01*
X20158277Y-10322079D02*
X20167801Y-10360174D01*
X20167801Y-10360174D02*
X20167801Y-10407793D01*
X20167801Y-10407793D02*
X20158277Y-10445889D01*
X20158277Y-10445889D02*
X20148753Y-10464936D01*
X20148753Y-10464936D02*
X20139229Y-10474460D01*
X20139229Y-10474460D02*
X20120182Y-10483984D01*
X20120182Y-10483984D02*
X20101134Y-10483984D01*
X20101134Y-10483984D02*
X20082087Y-10474460D01*
X20082087Y-10474460D02*
X20072563Y-10464936D01*
X20072563Y-10464936D02*
X20063039Y-10445889D01*
X20063039Y-10445889D02*
X20053515Y-10407793D01*
X20053515Y-10407793D02*
X20053515Y-10360174D01*
X20053515Y-10360174D02*
X20063039Y-10322079D01*
X20063039Y-10322079D02*
X20072563Y-10303031D01*
X20072563Y-10303031D02*
X20082087Y-10293508D01*
X20082087Y-10293508D02*
X20101134Y-10283984D01*
X20253515Y-10464936D02*
X20263039Y-10474460D01*
X20263039Y-10474460D02*
X20253515Y-10483984D01*
X20253515Y-10483984D02*
X20243991Y-10474460D01*
X20243991Y-10474460D02*
X20253515Y-10464936D01*
X20253515Y-10464936D02*
X20253515Y-10483984D01*
X20386848Y-10283984D02*
X20405896Y-10283984D01*
X20405896Y-10283984D02*
X20424944Y-10293508D01*
X20424944Y-10293508D02*
X20434468Y-10303031D01*
X20434468Y-10303031D02*
X20443991Y-10322079D01*
X20443991Y-10322079D02*
X20453515Y-10360174D01*
X20453515Y-10360174D02*
X20453515Y-10407793D01*
X20453515Y-10407793D02*
X20443991Y-10445889D01*
X20443991Y-10445889D02*
X20434468Y-10464936D01*
X20434468Y-10464936D02*
X20424944Y-10474460D01*
X20424944Y-10474460D02*
X20405896Y-10483984D01*
X20405896Y-10483984D02*
X20386848Y-10483984D01*
X20386848Y-10483984D02*
X20367801Y-10474460D01*
X20367801Y-10474460D02*
X20358277Y-10464936D01*
X20358277Y-10464936D02*
X20348753Y-10445889D01*
X20348753Y-10445889D02*
X20339229Y-10407793D01*
X20339229Y-10407793D02*
X20339229Y-10360174D01*
X20339229Y-10360174D02*
X20348753Y-10322079D01*
X20348753Y-10322079D02*
X20358277Y-10303031D01*
X20358277Y-10303031D02*
X20367801Y-10293508D01*
X20367801Y-10293508D02*
X20386848Y-10283984D01*
X20529706Y-10303031D02*
X20539229Y-10293508D01*
X20539229Y-10293508D02*
X20558277Y-10283984D01*
X20558277Y-10283984D02*
X20605896Y-10283984D01*
X20605896Y-10283984D02*
X20624944Y-10293508D01*
X20624944Y-10293508D02*
X20634468Y-10303031D01*
X20634468Y-10303031D02*
X20643991Y-10322079D01*
X20643991Y-10322079D02*
X20643991Y-10341127D01*
X20643991Y-10341127D02*
X20634468Y-10369698D01*
X20634468Y-10369698D02*
X20520182Y-10483984D01*
X20520182Y-10483984D02*
X20643991Y-10483984D01*
X20739229Y-10483984D02*
X20777325Y-10483984D01*
X20777325Y-10483984D02*
X20796372Y-10474460D01*
X20796372Y-10474460D02*
X20805896Y-10464936D01*
X20805896Y-10464936D02*
X20824944Y-10436365D01*
X20824944Y-10436365D02*
X20834468Y-10398270D01*
X20834468Y-10398270D02*
X20834468Y-10322079D01*
X20834468Y-10322079D02*
X20824944Y-10303031D01*
X20824944Y-10303031D02*
X20815420Y-10293508D01*
X20815420Y-10293508D02*
X20796372Y-10283984D01*
X20796372Y-10283984D02*
X20758277Y-10283984D01*
X20758277Y-10283984D02*
X20739229Y-10293508D01*
X20739229Y-10293508D02*
X20729706Y-10303031D01*
X20729706Y-10303031D02*
X20720182Y-10322079D01*
X20720182Y-10322079D02*
X20720182Y-10369698D01*
X20720182Y-10369698D02*
X20729706Y-10388746D01*
X20729706Y-10388746D02*
X20739229Y-10398270D01*
X20739229Y-10398270D02*
X20758277Y-10407793D01*
X20758277Y-10407793D02*
X20796372Y-10407793D01*
X20796372Y-10407793D02*
X20815420Y-10398270D01*
X20815420Y-10398270D02*
X20824944Y-10388746D01*
X20824944Y-10388746D02*
X20834468Y-10369698D01*
X21015420Y-10283984D02*
X20920182Y-10283984D01*
X20920182Y-10283984D02*
X20910658Y-10379222D01*
X20910658Y-10379222D02*
X20920182Y-10369698D01*
X20920182Y-10369698D02*
X20939229Y-10360174D01*
X20939229Y-10360174D02*
X20986849Y-10360174D01*
X20986849Y-10360174D02*
X21005896Y-10369698D01*
X21005896Y-10369698D02*
X21015420Y-10379222D01*
X21015420Y-10379222D02*
X21024944Y-10398270D01*
X21024944Y-10398270D02*
X21024944Y-10445889D01*
X21024944Y-10445889D02*
X21015420Y-10464936D01*
X21015420Y-10464936D02*
X21005896Y-10474460D01*
X21005896Y-10474460D02*
X20986849Y-10483984D01*
X20986849Y-10483984D02*
X20939229Y-10483984D01*
X20939229Y-10483984D02*
X20920182Y-10474460D01*
X20920182Y-10474460D02*
X20910658Y-10464936D01*
X21101134Y-10283984D02*
X21101134Y-10322079D01*
X21177325Y-10283984D02*
X21177325Y-10322079D01*
X21472563Y-10560174D02*
X21463039Y-10550650D01*
X21463039Y-10550650D02*
X21443991Y-10522079D01*
X21443991Y-10522079D02*
X21434468Y-10503031D01*
X21434468Y-10503031D02*
X21424944Y-10474460D01*
X21424944Y-10474460D02*
X21415420Y-10426841D01*
X21415420Y-10426841D02*
X21415420Y-10388746D01*
X21415420Y-10388746D02*
X21424944Y-10341127D01*
X21424944Y-10341127D02*
X21434468Y-10312555D01*
X21434468Y-10312555D02*
X21443991Y-10293508D01*
X21443991Y-10293508D02*
X21463039Y-10264936D01*
X21463039Y-10264936D02*
X21472563Y-10255412D01*
X21634468Y-10350650D02*
X21634468Y-10483984D01*
X21586849Y-10274460D02*
X21539230Y-10417317D01*
X21539230Y-10417317D02*
X21663039Y-10417317D01*
X21767801Y-10369698D02*
X21748753Y-10360174D01*
X21748753Y-10360174D02*
X21739230Y-10350650D01*
X21739230Y-10350650D02*
X21729706Y-10331603D01*
X21729706Y-10331603D02*
X21729706Y-10322079D01*
X21729706Y-10322079D02*
X21739230Y-10303031D01*
X21739230Y-10303031D02*
X21748753Y-10293508D01*
X21748753Y-10293508D02*
X21767801Y-10283984D01*
X21767801Y-10283984D02*
X21805896Y-10283984D01*
X21805896Y-10283984D02*
X21824944Y-10293508D01*
X21824944Y-10293508D02*
X21834468Y-10303031D01*
X21834468Y-10303031D02*
X21843991Y-10322079D01*
X21843991Y-10322079D02*
X21843991Y-10331603D01*
X21843991Y-10331603D02*
X21834468Y-10350650D01*
X21834468Y-10350650D02*
X21824944Y-10360174D01*
X21824944Y-10360174D02*
X21805896Y-10369698D01*
X21805896Y-10369698D02*
X21767801Y-10369698D01*
X21767801Y-10369698D02*
X21748753Y-10379222D01*
X21748753Y-10379222D02*
X21739230Y-10388746D01*
X21739230Y-10388746D02*
X21729706Y-10407793D01*
X21729706Y-10407793D02*
X21729706Y-10445889D01*
X21729706Y-10445889D02*
X21739230Y-10464936D01*
X21739230Y-10464936D02*
X21748753Y-10474460D01*
X21748753Y-10474460D02*
X21767801Y-10483984D01*
X21767801Y-10483984D02*
X21805896Y-10483984D01*
X21805896Y-10483984D02*
X21824944Y-10474460D01*
X21824944Y-10474460D02*
X21834468Y-10464936D01*
X21834468Y-10464936D02*
X21843991Y-10445889D01*
X21843991Y-10445889D02*
X21843991Y-10407793D01*
X21843991Y-10407793D02*
X21834468Y-10388746D01*
X21834468Y-10388746D02*
X21824944Y-10379222D01*
X21824944Y-10379222D02*
X21805896Y-10369698D01*
X22082087Y-10483984D02*
X22082087Y-10283984D01*
X22167801Y-10483984D02*
X22167801Y-10379222D01*
X22167801Y-10379222D02*
X22158277Y-10360174D01*
X22158277Y-10360174D02*
X22139230Y-10350650D01*
X22139230Y-10350650D02*
X22110658Y-10350650D01*
X22110658Y-10350650D02*
X22091611Y-10360174D01*
X22091611Y-10360174D02*
X22082087Y-10369698D01*
X22291611Y-10483984D02*
X22272563Y-10474460D01*
X22272563Y-10474460D02*
X22263039Y-10464936D01*
X22263039Y-10464936D02*
X22253515Y-10445889D01*
X22253515Y-10445889D02*
X22253515Y-10388746D01*
X22253515Y-10388746D02*
X22263039Y-10369698D01*
X22263039Y-10369698D02*
X22272563Y-10360174D01*
X22272563Y-10360174D02*
X22291611Y-10350650D01*
X22291611Y-10350650D02*
X22320182Y-10350650D01*
X22320182Y-10350650D02*
X22339230Y-10360174D01*
X22339230Y-10360174D02*
X22348753Y-10369698D01*
X22348753Y-10369698D02*
X22358277Y-10388746D01*
X22358277Y-10388746D02*
X22358277Y-10445889D01*
X22358277Y-10445889D02*
X22348753Y-10464936D01*
X22348753Y-10464936D02*
X22339230Y-10474460D01*
X22339230Y-10474460D02*
X22320182Y-10483984D01*
X22320182Y-10483984D02*
X22291611Y-10483984D01*
X22472563Y-10483984D02*
X22453515Y-10474460D01*
X22453515Y-10474460D02*
X22443991Y-10455412D01*
X22443991Y-10455412D02*
X22443991Y-10283984D01*
X22624944Y-10474460D02*
X22605896Y-10483984D01*
X22605896Y-10483984D02*
X22567801Y-10483984D01*
X22567801Y-10483984D02*
X22548753Y-10474460D01*
X22548753Y-10474460D02*
X22539230Y-10455412D01*
X22539230Y-10455412D02*
X22539230Y-10379222D01*
X22539230Y-10379222D02*
X22548753Y-10360174D01*
X22548753Y-10360174D02*
X22567801Y-10350650D01*
X22567801Y-10350650D02*
X22605896Y-10350650D01*
X22605896Y-10350650D02*
X22624944Y-10360174D01*
X22624944Y-10360174D02*
X22634468Y-10379222D01*
X22634468Y-10379222D02*
X22634468Y-10398270D01*
X22634468Y-10398270D02*
X22539230Y-10417317D01*
X22710658Y-10474460D02*
X22729706Y-10483984D01*
X22729706Y-10483984D02*
X22767801Y-10483984D01*
X22767801Y-10483984D02*
X22786849Y-10474460D01*
X22786849Y-10474460D02*
X22796372Y-10455412D01*
X22796372Y-10455412D02*
X22796372Y-10445889D01*
X22796372Y-10445889D02*
X22786849Y-10426841D01*
X22786849Y-10426841D02*
X22767801Y-10417317D01*
X22767801Y-10417317D02*
X22739230Y-10417317D01*
X22739230Y-10417317D02*
X22720182Y-10407793D01*
X22720182Y-10407793D02*
X22710658Y-10388746D01*
X22710658Y-10388746D02*
X22710658Y-10379222D01*
X22710658Y-10379222D02*
X22720182Y-10360174D01*
X22720182Y-10360174D02*
X22739230Y-10350650D01*
X22739230Y-10350650D02*
X22767801Y-10350650D01*
X22767801Y-10350650D02*
X22786849Y-10360174D01*
X22863039Y-10560174D02*
X22872563Y-10550650D01*
X22872563Y-10550650D02*
X22891611Y-10522079D01*
X22891611Y-10522079D02*
X22901134Y-10503031D01*
X22901134Y-10503031D02*
X22910658Y-10474460D01*
X22910658Y-10474460D02*
X22920182Y-10426841D01*
X22920182Y-10426841D02*
X22920182Y-10388746D01*
X22920182Y-10388746D02*
X22910658Y-10341127D01*
X22910658Y-10341127D02*
X22901134Y-10312555D01*
X22901134Y-10312555D02*
X22891611Y-10293508D01*
X22891611Y-10293508D02*
X22872563Y-10264936D01*
X22872563Y-10264936D02*
X22863039Y-10255412D01*
D12*
X17897500Y-10656500D02*
G75*
G02*
X17817500Y-10656500I-40000J0D01*
G01*
X17817500Y-10656500D02*
G75*
G02*
X17897500Y-10656500I40000J0D01*
G01*
D11*
X18196372Y-10547984D02*
X18215420Y-10547984D01*
X18215420Y-10547984D02*
X18234467Y-10557508D01*
X18234467Y-10557508D02*
X18243991Y-10567031D01*
X18243991Y-10567031D02*
X18253515Y-10586079D01*
X18253515Y-10586079D02*
X18263039Y-10624174D01*
X18263039Y-10624174D02*
X18263039Y-10671793D01*
X18263039Y-10671793D02*
X18253515Y-10709889D01*
X18253515Y-10709889D02*
X18243991Y-10728936D01*
X18243991Y-10728936D02*
X18234467Y-10738460D01*
X18234467Y-10738460D02*
X18215420Y-10747984D01*
X18215420Y-10747984D02*
X18196372Y-10747984D01*
X18196372Y-10747984D02*
X18177324Y-10738460D01*
X18177324Y-10738460D02*
X18167801Y-10728936D01*
X18167801Y-10728936D02*
X18158277Y-10709889D01*
X18158277Y-10709889D02*
X18148753Y-10671793D01*
X18148753Y-10671793D02*
X18148753Y-10624174D01*
X18148753Y-10624174D02*
X18158277Y-10586079D01*
X18158277Y-10586079D02*
X18167801Y-10567031D01*
X18167801Y-10567031D02*
X18177324Y-10557508D01*
X18177324Y-10557508D02*
X18196372Y-10547984D01*
X18348753Y-10728936D02*
X18358277Y-10738460D01*
X18358277Y-10738460D02*
X18348753Y-10747984D01*
X18348753Y-10747984D02*
X18339229Y-10738460D01*
X18339229Y-10738460D02*
X18348753Y-10728936D01*
X18348753Y-10728936D02*
X18348753Y-10747984D01*
X18472563Y-10633698D02*
X18453515Y-10624174D01*
X18453515Y-10624174D02*
X18443991Y-10614650D01*
X18443991Y-10614650D02*
X18434467Y-10595603D01*
X18434467Y-10595603D02*
X18434467Y-10586079D01*
X18434467Y-10586079D02*
X18443991Y-10567031D01*
X18443991Y-10567031D02*
X18453515Y-10557508D01*
X18453515Y-10557508D02*
X18472563Y-10547984D01*
X18472563Y-10547984D02*
X18510658Y-10547984D01*
X18510658Y-10547984D02*
X18529705Y-10557508D01*
X18529705Y-10557508D02*
X18539229Y-10567031D01*
X18539229Y-10567031D02*
X18548753Y-10586079D01*
X18548753Y-10586079D02*
X18548753Y-10595603D01*
X18548753Y-10595603D02*
X18539229Y-10614650D01*
X18539229Y-10614650D02*
X18529705Y-10624174D01*
X18529705Y-10624174D02*
X18510658Y-10633698D01*
X18510658Y-10633698D02*
X18472563Y-10633698D01*
X18472563Y-10633698D02*
X18453515Y-10643222D01*
X18453515Y-10643222D02*
X18443991Y-10652746D01*
X18443991Y-10652746D02*
X18434467Y-10671793D01*
X18434467Y-10671793D02*
X18434467Y-10709889D01*
X18434467Y-10709889D02*
X18443991Y-10728936D01*
X18443991Y-10728936D02*
X18453515Y-10738460D01*
X18453515Y-10738460D02*
X18472563Y-10747984D01*
X18472563Y-10747984D02*
X18510658Y-10747984D01*
X18510658Y-10747984D02*
X18529705Y-10738460D01*
X18529705Y-10738460D02*
X18539229Y-10728936D01*
X18539229Y-10728936D02*
X18548753Y-10709889D01*
X18548753Y-10709889D02*
X18548753Y-10671793D01*
X18548753Y-10671793D02*
X18539229Y-10652746D01*
X18539229Y-10652746D02*
X18529705Y-10643222D01*
X18529705Y-10643222D02*
X18510658Y-10633698D01*
X18672563Y-10547984D02*
X18691610Y-10547984D01*
X18691610Y-10547984D02*
X18710658Y-10557508D01*
X18710658Y-10557508D02*
X18720182Y-10567031D01*
X18720182Y-10567031D02*
X18729705Y-10586079D01*
X18729705Y-10586079D02*
X18739229Y-10624174D01*
X18739229Y-10624174D02*
X18739229Y-10671793D01*
X18739229Y-10671793D02*
X18729705Y-10709889D01*
X18729705Y-10709889D02*
X18720182Y-10728936D01*
X18720182Y-10728936D02*
X18710658Y-10738460D01*
X18710658Y-10738460D02*
X18691610Y-10747984D01*
X18691610Y-10747984D02*
X18672563Y-10747984D01*
X18672563Y-10747984D02*
X18653515Y-10738460D01*
X18653515Y-10738460D02*
X18643991Y-10728936D01*
X18643991Y-10728936D02*
X18634467Y-10709889D01*
X18634467Y-10709889D02*
X18624944Y-10671793D01*
X18624944Y-10671793D02*
X18624944Y-10624174D01*
X18624944Y-10624174D02*
X18634467Y-10586079D01*
X18634467Y-10586079D02*
X18643991Y-10567031D01*
X18643991Y-10567031D02*
X18653515Y-10557508D01*
X18653515Y-10557508D02*
X18672563Y-10547984D01*
X18863039Y-10547984D02*
X18882086Y-10547984D01*
X18882086Y-10547984D02*
X18901134Y-10557508D01*
X18901134Y-10557508D02*
X18910658Y-10567031D01*
X18910658Y-10567031D02*
X18920182Y-10586079D01*
X18920182Y-10586079D02*
X18929705Y-10624174D01*
X18929705Y-10624174D02*
X18929705Y-10671793D01*
X18929705Y-10671793D02*
X18920182Y-10709889D01*
X18920182Y-10709889D02*
X18910658Y-10728936D01*
X18910658Y-10728936D02*
X18901134Y-10738460D01*
X18901134Y-10738460D02*
X18882086Y-10747984D01*
X18882086Y-10747984D02*
X18863039Y-10747984D01*
X18863039Y-10747984D02*
X18843991Y-10738460D01*
X18843991Y-10738460D02*
X18834467Y-10728936D01*
X18834467Y-10728936D02*
X18824944Y-10709889D01*
X18824944Y-10709889D02*
X18815420Y-10671793D01*
X18815420Y-10671793D02*
X18815420Y-10624174D01*
X18815420Y-10624174D02*
X18824944Y-10586079D01*
X18824944Y-10586079D02*
X18834467Y-10567031D01*
X18834467Y-10567031D02*
X18843991Y-10557508D01*
X18843991Y-10557508D02*
X18863039Y-10547984D01*
X19015420Y-10747984D02*
X19015420Y-10614650D01*
X19015420Y-10633698D02*
X19024944Y-10624174D01*
X19024944Y-10624174D02*
X19043991Y-10614650D01*
X19043991Y-10614650D02*
X19072563Y-10614650D01*
X19072563Y-10614650D02*
X19091610Y-10624174D01*
X19091610Y-10624174D02*
X19101134Y-10643222D01*
X19101134Y-10643222D02*
X19101134Y-10747984D01*
X19101134Y-10643222D02*
X19110658Y-10624174D01*
X19110658Y-10624174D02*
X19129705Y-10614650D01*
X19129705Y-10614650D02*
X19158277Y-10614650D01*
X19158277Y-10614650D02*
X19177325Y-10624174D01*
X19177325Y-10624174D02*
X19186848Y-10643222D01*
X19186848Y-10643222D02*
X19186848Y-10747984D01*
X19282086Y-10747984D02*
X19282086Y-10614650D01*
X19282086Y-10633698D02*
X19291610Y-10624174D01*
X19291610Y-10624174D02*
X19310658Y-10614650D01*
X19310658Y-10614650D02*
X19339229Y-10614650D01*
X19339229Y-10614650D02*
X19358277Y-10624174D01*
X19358277Y-10624174D02*
X19367801Y-10643222D01*
X19367801Y-10643222D02*
X19367801Y-10747984D01*
X19367801Y-10643222D02*
X19377325Y-10624174D01*
X19377325Y-10624174D02*
X19396372Y-10614650D01*
X19396372Y-10614650D02*
X19424944Y-10614650D01*
X19424944Y-10614650D02*
X19443991Y-10624174D01*
X19443991Y-10624174D02*
X19453515Y-10643222D01*
X19453515Y-10643222D02*
X19453515Y-10747984D01*
X19843991Y-10538460D02*
X19672563Y-10795603D01*
X20101134Y-10547984D02*
X20120182Y-10547984D01*
X20120182Y-10547984D02*
X20139229Y-10557508D01*
X20139229Y-10557508D02*
X20148753Y-10567031D01*
X20148753Y-10567031D02*
X20158277Y-10586079D01*
X20158277Y-10586079D02*
X20167801Y-10624174D01*
X20167801Y-10624174D02*
X20167801Y-10671793D01*
X20167801Y-10671793D02*
X20158277Y-10709889D01*
X20158277Y-10709889D02*
X20148753Y-10728936D01*
X20148753Y-10728936D02*
X20139229Y-10738460D01*
X20139229Y-10738460D02*
X20120182Y-10747984D01*
X20120182Y-10747984D02*
X20101134Y-10747984D01*
X20101134Y-10747984D02*
X20082087Y-10738460D01*
X20082087Y-10738460D02*
X20072563Y-10728936D01*
X20072563Y-10728936D02*
X20063039Y-10709889D01*
X20063039Y-10709889D02*
X20053515Y-10671793D01*
X20053515Y-10671793D02*
X20053515Y-10624174D01*
X20053515Y-10624174D02*
X20063039Y-10586079D01*
X20063039Y-10586079D02*
X20072563Y-10567031D01*
X20072563Y-10567031D02*
X20082087Y-10557508D01*
X20082087Y-10557508D02*
X20101134Y-10547984D01*
X20253515Y-10728936D02*
X20263039Y-10738460D01*
X20263039Y-10738460D02*
X20253515Y-10747984D01*
X20253515Y-10747984D02*
X20243991Y-10738460D01*
X20243991Y-10738460D02*
X20253515Y-10728936D01*
X20253515Y-10728936D02*
X20253515Y-10747984D01*
X20386848Y-10547984D02*
X20405896Y-10547984D01*
X20405896Y-10547984D02*
X20424944Y-10557508D01*
X20424944Y-10557508D02*
X20434468Y-10567031D01*
X20434468Y-10567031D02*
X20443991Y-10586079D01*
X20443991Y-10586079D02*
X20453515Y-10624174D01*
X20453515Y-10624174D02*
X20453515Y-10671793D01*
X20453515Y-10671793D02*
X20443991Y-10709889D01*
X20443991Y-10709889D02*
X20434468Y-10728936D01*
X20434468Y-10728936D02*
X20424944Y-10738460D01*
X20424944Y-10738460D02*
X20405896Y-10747984D01*
X20405896Y-10747984D02*
X20386848Y-10747984D01*
X20386848Y-10747984D02*
X20367801Y-10738460D01*
X20367801Y-10738460D02*
X20358277Y-10728936D01*
X20358277Y-10728936D02*
X20348753Y-10709889D01*
X20348753Y-10709889D02*
X20339229Y-10671793D01*
X20339229Y-10671793D02*
X20339229Y-10624174D01*
X20339229Y-10624174D02*
X20348753Y-10586079D01*
X20348753Y-10586079D02*
X20358277Y-10567031D01*
X20358277Y-10567031D02*
X20367801Y-10557508D01*
X20367801Y-10557508D02*
X20386848Y-10547984D01*
X20520182Y-10547984D02*
X20643991Y-10547984D01*
X20643991Y-10547984D02*
X20577325Y-10624174D01*
X20577325Y-10624174D02*
X20605896Y-10624174D01*
X20605896Y-10624174D02*
X20624944Y-10633698D01*
X20624944Y-10633698D02*
X20634468Y-10643222D01*
X20634468Y-10643222D02*
X20643991Y-10662270D01*
X20643991Y-10662270D02*
X20643991Y-10709889D01*
X20643991Y-10709889D02*
X20634468Y-10728936D01*
X20634468Y-10728936D02*
X20624944Y-10738460D01*
X20624944Y-10738460D02*
X20605896Y-10747984D01*
X20605896Y-10747984D02*
X20548753Y-10747984D01*
X20548753Y-10747984D02*
X20529706Y-10738460D01*
X20529706Y-10738460D02*
X20520182Y-10728936D01*
X20834468Y-10747984D02*
X20720182Y-10747984D01*
X20777325Y-10747984D02*
X20777325Y-10547984D01*
X20777325Y-10547984D02*
X20758277Y-10576555D01*
X20758277Y-10576555D02*
X20739229Y-10595603D01*
X20739229Y-10595603D02*
X20720182Y-10605127D01*
X21015420Y-10547984D02*
X20920182Y-10547984D01*
X20920182Y-10547984D02*
X20910658Y-10643222D01*
X20910658Y-10643222D02*
X20920182Y-10633698D01*
X20920182Y-10633698D02*
X20939229Y-10624174D01*
X20939229Y-10624174D02*
X20986849Y-10624174D01*
X20986849Y-10624174D02*
X21005896Y-10633698D01*
X21005896Y-10633698D02*
X21015420Y-10643222D01*
X21015420Y-10643222D02*
X21024944Y-10662270D01*
X21024944Y-10662270D02*
X21024944Y-10709889D01*
X21024944Y-10709889D02*
X21015420Y-10728936D01*
X21015420Y-10728936D02*
X21005896Y-10738460D01*
X21005896Y-10738460D02*
X20986849Y-10747984D01*
X20986849Y-10747984D02*
X20939229Y-10747984D01*
X20939229Y-10747984D02*
X20920182Y-10738460D01*
X20920182Y-10738460D02*
X20910658Y-10728936D01*
X21101134Y-10547984D02*
X21101134Y-10586079D01*
X21177325Y-10547984D02*
X21177325Y-10586079D01*
X21472563Y-10824174D02*
X21463039Y-10814650D01*
X21463039Y-10814650D02*
X21443991Y-10786079D01*
X21443991Y-10786079D02*
X21434468Y-10767031D01*
X21434468Y-10767031D02*
X21424944Y-10738460D01*
X21424944Y-10738460D02*
X21415420Y-10690841D01*
X21415420Y-10690841D02*
X21415420Y-10652746D01*
X21415420Y-10652746D02*
X21424944Y-10605127D01*
X21424944Y-10605127D02*
X21434468Y-10576555D01*
X21434468Y-10576555D02*
X21443991Y-10557508D01*
X21443991Y-10557508D02*
X21463039Y-10528936D01*
X21463039Y-10528936D02*
X21472563Y-10519412D01*
X21577325Y-10633698D02*
X21558277Y-10624174D01*
X21558277Y-10624174D02*
X21548753Y-10614650D01*
X21548753Y-10614650D02*
X21539230Y-10595603D01*
X21539230Y-10595603D02*
X21539230Y-10586079D01*
X21539230Y-10586079D02*
X21548753Y-10567031D01*
X21548753Y-10567031D02*
X21558277Y-10557508D01*
X21558277Y-10557508D02*
X21577325Y-10547984D01*
X21577325Y-10547984D02*
X21615420Y-10547984D01*
X21615420Y-10547984D02*
X21634468Y-10557508D01*
X21634468Y-10557508D02*
X21643991Y-10567031D01*
X21643991Y-10567031D02*
X21653515Y-10586079D01*
X21653515Y-10586079D02*
X21653515Y-10595603D01*
X21653515Y-10595603D02*
X21643991Y-10614650D01*
X21643991Y-10614650D02*
X21634468Y-10624174D01*
X21634468Y-10624174D02*
X21615420Y-10633698D01*
X21615420Y-10633698D02*
X21577325Y-10633698D01*
X21577325Y-10633698D02*
X21558277Y-10643222D01*
X21558277Y-10643222D02*
X21548753Y-10652746D01*
X21548753Y-10652746D02*
X21539230Y-10671793D01*
X21539230Y-10671793D02*
X21539230Y-10709889D01*
X21539230Y-10709889D02*
X21548753Y-10728936D01*
X21548753Y-10728936D02*
X21558277Y-10738460D01*
X21558277Y-10738460D02*
X21577325Y-10747984D01*
X21577325Y-10747984D02*
X21615420Y-10747984D01*
X21615420Y-10747984D02*
X21634468Y-10738460D01*
X21634468Y-10738460D02*
X21643991Y-10728936D01*
X21643991Y-10728936D02*
X21653515Y-10709889D01*
X21653515Y-10709889D02*
X21653515Y-10671793D01*
X21653515Y-10671793D02*
X21643991Y-10652746D01*
X21643991Y-10652746D02*
X21634468Y-10643222D01*
X21634468Y-10643222D02*
X21615420Y-10633698D01*
X21891611Y-10747984D02*
X21891611Y-10547984D01*
X21977325Y-10747984D02*
X21977325Y-10643222D01*
X21977325Y-10643222D02*
X21967801Y-10624174D01*
X21967801Y-10624174D02*
X21948753Y-10614650D01*
X21948753Y-10614650D02*
X21920182Y-10614650D01*
X21920182Y-10614650D02*
X21901134Y-10624174D01*
X21901134Y-10624174D02*
X21891611Y-10633698D01*
X22101134Y-10747984D02*
X22082087Y-10738460D01*
X22082087Y-10738460D02*
X22072563Y-10728936D01*
X22072563Y-10728936D02*
X22063039Y-10709889D01*
X22063039Y-10709889D02*
X22063039Y-10652746D01*
X22063039Y-10652746D02*
X22072563Y-10633698D01*
X22072563Y-10633698D02*
X22082087Y-10624174D01*
X22082087Y-10624174D02*
X22101134Y-10614650D01*
X22101134Y-10614650D02*
X22129706Y-10614650D01*
X22129706Y-10614650D02*
X22148753Y-10624174D01*
X22148753Y-10624174D02*
X22158277Y-10633698D01*
X22158277Y-10633698D02*
X22167801Y-10652746D01*
X22167801Y-10652746D02*
X22167801Y-10709889D01*
X22167801Y-10709889D02*
X22158277Y-10728936D01*
X22158277Y-10728936D02*
X22148753Y-10738460D01*
X22148753Y-10738460D02*
X22129706Y-10747984D01*
X22129706Y-10747984D02*
X22101134Y-10747984D01*
X22282087Y-10747984D02*
X22263039Y-10738460D01*
X22263039Y-10738460D02*
X22253515Y-10719412D01*
X22253515Y-10719412D02*
X22253515Y-10547984D01*
X22434468Y-10738460D02*
X22415420Y-10747984D01*
X22415420Y-10747984D02*
X22377325Y-10747984D01*
X22377325Y-10747984D02*
X22358277Y-10738460D01*
X22358277Y-10738460D02*
X22348753Y-10719412D01*
X22348753Y-10719412D02*
X22348753Y-10643222D01*
X22348753Y-10643222D02*
X22358277Y-10624174D01*
X22358277Y-10624174D02*
X22377325Y-10614650D01*
X22377325Y-10614650D02*
X22415420Y-10614650D01*
X22415420Y-10614650D02*
X22434468Y-10624174D01*
X22434468Y-10624174D02*
X22443991Y-10643222D01*
X22443991Y-10643222D02*
X22443991Y-10662270D01*
X22443991Y-10662270D02*
X22348753Y-10681317D01*
X22520182Y-10738460D02*
X22539230Y-10747984D01*
X22539230Y-10747984D02*
X22577325Y-10747984D01*
X22577325Y-10747984D02*
X22596372Y-10738460D01*
X22596372Y-10738460D02*
X22605896Y-10719412D01*
X22605896Y-10719412D02*
X22605896Y-10709889D01*
X22605896Y-10709889D02*
X22596372Y-10690841D01*
X22596372Y-10690841D02*
X22577325Y-10681317D01*
X22577325Y-10681317D02*
X22548753Y-10681317D01*
X22548753Y-10681317D02*
X22529706Y-10671793D01*
X22529706Y-10671793D02*
X22520182Y-10652746D01*
X22520182Y-10652746D02*
X22520182Y-10643222D01*
X22520182Y-10643222D02*
X22529706Y-10624174D01*
X22529706Y-10624174D02*
X22548753Y-10614650D01*
X22548753Y-10614650D02*
X22577325Y-10614650D01*
X22577325Y-10614650D02*
X22596372Y-10624174D01*
X22672563Y-10824174D02*
X22682087Y-10814650D01*
X22682087Y-10814650D02*
X22701134Y-10786079D01*
X22701134Y-10786079D02*
X22710658Y-10767031D01*
X22710658Y-10767031D02*
X22720182Y-10738460D01*
X22720182Y-10738460D02*
X22729706Y-10690841D01*
X22729706Y-10690841D02*
X22729706Y-10652746D01*
X22729706Y-10652746D02*
X22720182Y-10605127D01*
X22720182Y-10605127D02*
X22710658Y-10576555D01*
X22710658Y-10576555D02*
X22701134Y-10557508D01*
X22701134Y-10557508D02*
X22682087Y-10528936D01*
X22682087Y-10528936D02*
X22672563Y-10519412D01*
D13*
X17842500Y-10865500D02*
X17842500Y-10975500D01*
X17787500Y-10920500D02*
X17897500Y-10920500D01*
D11*
X18263039Y-11011984D02*
X18148753Y-11011984D01*
X18205896Y-11011984D02*
X18205896Y-10811984D01*
X18205896Y-10811984D02*
X18186848Y-10840555D01*
X18186848Y-10840555D02*
X18167801Y-10859603D01*
X18167801Y-10859603D02*
X18148753Y-10869127D01*
X18348753Y-10992936D02*
X18358277Y-11002460D01*
X18358277Y-11002460D02*
X18348753Y-11011984D01*
X18348753Y-11011984D02*
X18339229Y-11002460D01*
X18339229Y-11002460D02*
X18348753Y-10992936D01*
X18348753Y-10992936D02*
X18348753Y-11011984D01*
X18548753Y-11011984D02*
X18434467Y-11011984D01*
X18491610Y-11011984D02*
X18491610Y-10811984D01*
X18491610Y-10811984D02*
X18472563Y-10840555D01*
X18472563Y-10840555D02*
X18453515Y-10859603D01*
X18453515Y-10859603D02*
X18434467Y-10869127D01*
X18672563Y-10811984D02*
X18691610Y-10811984D01*
X18691610Y-10811984D02*
X18710658Y-10821508D01*
X18710658Y-10821508D02*
X18720182Y-10831031D01*
X18720182Y-10831031D02*
X18729705Y-10850079D01*
X18729705Y-10850079D02*
X18739229Y-10888174D01*
X18739229Y-10888174D02*
X18739229Y-10935793D01*
X18739229Y-10935793D02*
X18729705Y-10973889D01*
X18729705Y-10973889D02*
X18720182Y-10992936D01*
X18720182Y-10992936D02*
X18710658Y-11002460D01*
X18710658Y-11002460D02*
X18691610Y-11011984D01*
X18691610Y-11011984D02*
X18672563Y-11011984D01*
X18672563Y-11011984D02*
X18653515Y-11002460D01*
X18653515Y-11002460D02*
X18643991Y-10992936D01*
X18643991Y-10992936D02*
X18634467Y-10973889D01*
X18634467Y-10973889D02*
X18624944Y-10935793D01*
X18624944Y-10935793D02*
X18624944Y-10888174D01*
X18624944Y-10888174D02*
X18634467Y-10850079D01*
X18634467Y-10850079D02*
X18643991Y-10831031D01*
X18643991Y-10831031D02*
X18653515Y-10821508D01*
X18653515Y-10821508D02*
X18672563Y-10811984D01*
X18863039Y-10811984D02*
X18882086Y-10811984D01*
X18882086Y-10811984D02*
X18901134Y-10821508D01*
X18901134Y-10821508D02*
X18910658Y-10831031D01*
X18910658Y-10831031D02*
X18920182Y-10850079D01*
X18920182Y-10850079D02*
X18929705Y-10888174D01*
X18929705Y-10888174D02*
X18929705Y-10935793D01*
X18929705Y-10935793D02*
X18920182Y-10973889D01*
X18920182Y-10973889D02*
X18910658Y-10992936D01*
X18910658Y-10992936D02*
X18901134Y-11002460D01*
X18901134Y-11002460D02*
X18882086Y-11011984D01*
X18882086Y-11011984D02*
X18863039Y-11011984D01*
X18863039Y-11011984D02*
X18843991Y-11002460D01*
X18843991Y-11002460D02*
X18834467Y-10992936D01*
X18834467Y-10992936D02*
X18824944Y-10973889D01*
X18824944Y-10973889D02*
X18815420Y-10935793D01*
X18815420Y-10935793D02*
X18815420Y-10888174D01*
X18815420Y-10888174D02*
X18824944Y-10850079D01*
X18824944Y-10850079D02*
X18834467Y-10831031D01*
X18834467Y-10831031D02*
X18843991Y-10821508D01*
X18843991Y-10821508D02*
X18863039Y-10811984D01*
X19015420Y-11011984D02*
X19015420Y-10878650D01*
X19015420Y-10897698D02*
X19024944Y-10888174D01*
X19024944Y-10888174D02*
X19043991Y-10878650D01*
X19043991Y-10878650D02*
X19072563Y-10878650D01*
X19072563Y-10878650D02*
X19091610Y-10888174D01*
X19091610Y-10888174D02*
X19101134Y-10907222D01*
X19101134Y-10907222D02*
X19101134Y-11011984D01*
X19101134Y-10907222D02*
X19110658Y-10888174D01*
X19110658Y-10888174D02*
X19129705Y-10878650D01*
X19129705Y-10878650D02*
X19158277Y-10878650D01*
X19158277Y-10878650D02*
X19177325Y-10888174D01*
X19177325Y-10888174D02*
X19186848Y-10907222D01*
X19186848Y-10907222D02*
X19186848Y-11011984D01*
X19282086Y-11011984D02*
X19282086Y-10878650D01*
X19282086Y-10897698D02*
X19291610Y-10888174D01*
X19291610Y-10888174D02*
X19310658Y-10878650D01*
X19310658Y-10878650D02*
X19339229Y-10878650D01*
X19339229Y-10878650D02*
X19358277Y-10888174D01*
X19358277Y-10888174D02*
X19367801Y-10907222D01*
X19367801Y-10907222D02*
X19367801Y-11011984D01*
X19367801Y-10907222D02*
X19377325Y-10888174D01*
X19377325Y-10888174D02*
X19396372Y-10878650D01*
X19396372Y-10878650D02*
X19424944Y-10878650D01*
X19424944Y-10878650D02*
X19443991Y-10888174D01*
X19443991Y-10888174D02*
X19453515Y-10907222D01*
X19453515Y-10907222D02*
X19453515Y-11011984D01*
X19843991Y-10802460D02*
X19672563Y-11059603D01*
X20101134Y-10811984D02*
X20120182Y-10811984D01*
X20120182Y-10811984D02*
X20139229Y-10821508D01*
X20139229Y-10821508D02*
X20148753Y-10831031D01*
X20148753Y-10831031D02*
X20158277Y-10850079D01*
X20158277Y-10850079D02*
X20167801Y-10888174D01*
X20167801Y-10888174D02*
X20167801Y-10935793D01*
X20167801Y-10935793D02*
X20158277Y-10973889D01*
X20158277Y-10973889D02*
X20148753Y-10992936D01*
X20148753Y-10992936D02*
X20139229Y-11002460D01*
X20139229Y-11002460D02*
X20120182Y-11011984D01*
X20120182Y-11011984D02*
X20101134Y-11011984D01*
X20101134Y-11011984D02*
X20082087Y-11002460D01*
X20082087Y-11002460D02*
X20072563Y-10992936D01*
X20072563Y-10992936D02*
X20063039Y-10973889D01*
X20063039Y-10973889D02*
X20053515Y-10935793D01*
X20053515Y-10935793D02*
X20053515Y-10888174D01*
X20053515Y-10888174D02*
X20063039Y-10850079D01*
X20063039Y-10850079D02*
X20072563Y-10831031D01*
X20072563Y-10831031D02*
X20082087Y-10821508D01*
X20082087Y-10821508D02*
X20101134Y-10811984D01*
X20253515Y-10992936D02*
X20263039Y-11002460D01*
X20263039Y-11002460D02*
X20253515Y-11011984D01*
X20253515Y-11011984D02*
X20243991Y-11002460D01*
X20243991Y-11002460D02*
X20253515Y-10992936D01*
X20253515Y-10992936D02*
X20253515Y-11011984D01*
X20386848Y-10811984D02*
X20405896Y-10811984D01*
X20405896Y-10811984D02*
X20424944Y-10821508D01*
X20424944Y-10821508D02*
X20434468Y-10831031D01*
X20434468Y-10831031D02*
X20443991Y-10850079D01*
X20443991Y-10850079D02*
X20453515Y-10888174D01*
X20453515Y-10888174D02*
X20453515Y-10935793D01*
X20453515Y-10935793D02*
X20443991Y-10973889D01*
X20443991Y-10973889D02*
X20434468Y-10992936D01*
X20434468Y-10992936D02*
X20424944Y-11002460D01*
X20424944Y-11002460D02*
X20405896Y-11011984D01*
X20405896Y-11011984D02*
X20386848Y-11011984D01*
X20386848Y-11011984D02*
X20367801Y-11002460D01*
X20367801Y-11002460D02*
X20358277Y-10992936D01*
X20358277Y-10992936D02*
X20348753Y-10973889D01*
X20348753Y-10973889D02*
X20339229Y-10935793D01*
X20339229Y-10935793D02*
X20339229Y-10888174D01*
X20339229Y-10888174D02*
X20348753Y-10850079D01*
X20348753Y-10850079D02*
X20358277Y-10831031D01*
X20358277Y-10831031D02*
X20367801Y-10821508D01*
X20367801Y-10821508D02*
X20386848Y-10811984D01*
X20624944Y-10878650D02*
X20624944Y-11011984D01*
X20577325Y-10802460D02*
X20529706Y-10945317D01*
X20529706Y-10945317D02*
X20653515Y-10945317D01*
X20710658Y-10811984D02*
X20834468Y-10811984D01*
X20834468Y-10811984D02*
X20767801Y-10888174D01*
X20767801Y-10888174D02*
X20796372Y-10888174D01*
X20796372Y-10888174D02*
X20815420Y-10897698D01*
X20815420Y-10897698D02*
X20824944Y-10907222D01*
X20824944Y-10907222D02*
X20834468Y-10926270D01*
X20834468Y-10926270D02*
X20834468Y-10973889D01*
X20834468Y-10973889D02*
X20824944Y-10992936D01*
X20824944Y-10992936D02*
X20815420Y-11002460D01*
X20815420Y-11002460D02*
X20796372Y-11011984D01*
X20796372Y-11011984D02*
X20739229Y-11011984D01*
X20739229Y-11011984D02*
X20720182Y-11002460D01*
X20720182Y-11002460D02*
X20710658Y-10992936D01*
X20901134Y-10811984D02*
X21024944Y-10811984D01*
X21024944Y-10811984D02*
X20958277Y-10888174D01*
X20958277Y-10888174D02*
X20986849Y-10888174D01*
X20986849Y-10888174D02*
X21005896Y-10897698D01*
X21005896Y-10897698D02*
X21015420Y-10907222D01*
X21015420Y-10907222D02*
X21024944Y-10926270D01*
X21024944Y-10926270D02*
X21024944Y-10973889D01*
X21024944Y-10973889D02*
X21015420Y-10992936D01*
X21015420Y-10992936D02*
X21005896Y-11002460D01*
X21005896Y-11002460D02*
X20986849Y-11011984D01*
X20986849Y-11011984D02*
X20929706Y-11011984D01*
X20929706Y-11011984D02*
X20910658Y-11002460D01*
X20910658Y-11002460D02*
X20901134Y-10992936D01*
X21101134Y-10811984D02*
X21101134Y-10850079D01*
X21177325Y-10811984D02*
X21177325Y-10850079D01*
X21472563Y-11088174D02*
X21463039Y-11078650D01*
X21463039Y-11078650D02*
X21443991Y-11050079D01*
X21443991Y-11050079D02*
X21434468Y-11031031D01*
X21434468Y-11031031D02*
X21424944Y-11002460D01*
X21424944Y-11002460D02*
X21415420Y-10954841D01*
X21415420Y-10954841D02*
X21415420Y-10916746D01*
X21415420Y-10916746D02*
X21424944Y-10869127D01*
X21424944Y-10869127D02*
X21434468Y-10840555D01*
X21434468Y-10840555D02*
X21443991Y-10821508D01*
X21443991Y-10821508D02*
X21463039Y-10792936D01*
X21463039Y-10792936D02*
X21472563Y-10783412D01*
X21643991Y-10811984D02*
X21548753Y-10811984D01*
X21548753Y-10811984D02*
X21539230Y-10907222D01*
X21539230Y-10907222D02*
X21548753Y-10897698D01*
X21548753Y-10897698D02*
X21567801Y-10888174D01*
X21567801Y-10888174D02*
X21615420Y-10888174D01*
X21615420Y-10888174D02*
X21634468Y-10897698D01*
X21634468Y-10897698D02*
X21643991Y-10907222D01*
X21643991Y-10907222D02*
X21653515Y-10926270D01*
X21653515Y-10926270D02*
X21653515Y-10973889D01*
X21653515Y-10973889D02*
X21643991Y-10992936D01*
X21643991Y-10992936D02*
X21634468Y-11002460D01*
X21634468Y-11002460D02*
X21615420Y-11011984D01*
X21615420Y-11011984D02*
X21567801Y-11011984D01*
X21567801Y-11011984D02*
X21548753Y-11002460D01*
X21548753Y-11002460D02*
X21539230Y-10992936D01*
X21748753Y-11011984D02*
X21786849Y-11011984D01*
X21786849Y-11011984D02*
X21805896Y-11002460D01*
X21805896Y-11002460D02*
X21815420Y-10992936D01*
X21815420Y-10992936D02*
X21834468Y-10964365D01*
X21834468Y-10964365D02*
X21843991Y-10926270D01*
X21843991Y-10926270D02*
X21843991Y-10850079D01*
X21843991Y-10850079D02*
X21834468Y-10831031D01*
X21834468Y-10831031D02*
X21824944Y-10821508D01*
X21824944Y-10821508D02*
X21805896Y-10811984D01*
X21805896Y-10811984D02*
X21767801Y-10811984D01*
X21767801Y-10811984D02*
X21748753Y-10821508D01*
X21748753Y-10821508D02*
X21739230Y-10831031D01*
X21739230Y-10831031D02*
X21729706Y-10850079D01*
X21729706Y-10850079D02*
X21729706Y-10897698D01*
X21729706Y-10897698D02*
X21739230Y-10916746D01*
X21739230Y-10916746D02*
X21748753Y-10926270D01*
X21748753Y-10926270D02*
X21767801Y-10935793D01*
X21767801Y-10935793D02*
X21805896Y-10935793D01*
X21805896Y-10935793D02*
X21824944Y-10926270D01*
X21824944Y-10926270D02*
X21834468Y-10916746D01*
X21834468Y-10916746D02*
X21843991Y-10897698D01*
X22082087Y-11011984D02*
X22082087Y-10811984D01*
X22167801Y-11011984D02*
X22167801Y-10907222D01*
X22167801Y-10907222D02*
X22158277Y-10888174D01*
X22158277Y-10888174D02*
X22139230Y-10878650D01*
X22139230Y-10878650D02*
X22110658Y-10878650D01*
X22110658Y-10878650D02*
X22091611Y-10888174D01*
X22091611Y-10888174D02*
X22082087Y-10897698D01*
X22291611Y-11011984D02*
X22272563Y-11002460D01*
X22272563Y-11002460D02*
X22263039Y-10992936D01*
X22263039Y-10992936D02*
X22253515Y-10973889D01*
X22253515Y-10973889D02*
X22253515Y-10916746D01*
X22253515Y-10916746D02*
X22263039Y-10897698D01*
X22263039Y-10897698D02*
X22272563Y-10888174D01*
X22272563Y-10888174D02*
X22291611Y-10878650D01*
X22291611Y-10878650D02*
X22320182Y-10878650D01*
X22320182Y-10878650D02*
X22339230Y-10888174D01*
X22339230Y-10888174D02*
X22348753Y-10897698D01*
X22348753Y-10897698D02*
X22358277Y-10916746D01*
X22358277Y-10916746D02*
X22358277Y-10973889D01*
X22358277Y-10973889D02*
X22348753Y-10992936D01*
X22348753Y-10992936D02*
X22339230Y-11002460D01*
X22339230Y-11002460D02*
X22320182Y-11011984D01*
X22320182Y-11011984D02*
X22291611Y-11011984D01*
X22472563Y-11011984D02*
X22453515Y-11002460D01*
X22453515Y-11002460D02*
X22443991Y-10983412D01*
X22443991Y-10983412D02*
X22443991Y-10811984D01*
X22624944Y-11002460D02*
X22605896Y-11011984D01*
X22605896Y-11011984D02*
X22567801Y-11011984D01*
X22567801Y-11011984D02*
X22548753Y-11002460D01*
X22548753Y-11002460D02*
X22539230Y-10983412D01*
X22539230Y-10983412D02*
X22539230Y-10907222D01*
X22539230Y-10907222D02*
X22548753Y-10888174D01*
X22548753Y-10888174D02*
X22567801Y-10878650D01*
X22567801Y-10878650D02*
X22605896Y-10878650D01*
X22605896Y-10878650D02*
X22624944Y-10888174D01*
X22624944Y-10888174D02*
X22634468Y-10907222D01*
X22634468Y-10907222D02*
X22634468Y-10926270D01*
X22634468Y-10926270D02*
X22539230Y-10945317D01*
X22710658Y-11002460D02*
X22729706Y-11011984D01*
X22729706Y-11011984D02*
X22767801Y-11011984D01*
X22767801Y-11011984D02*
X22786849Y-11002460D01*
X22786849Y-11002460D02*
X22796372Y-10983412D01*
X22796372Y-10983412D02*
X22796372Y-10973889D01*
X22796372Y-10973889D02*
X22786849Y-10954841D01*
X22786849Y-10954841D02*
X22767801Y-10945317D01*
X22767801Y-10945317D02*
X22739230Y-10945317D01*
X22739230Y-10945317D02*
X22720182Y-10935793D01*
X22720182Y-10935793D02*
X22710658Y-10916746D01*
X22710658Y-10916746D02*
X22710658Y-10907222D01*
X22710658Y-10907222D02*
X22720182Y-10888174D01*
X22720182Y-10888174D02*
X22739230Y-10878650D01*
X22739230Y-10878650D02*
X22767801Y-10878650D01*
X22767801Y-10878650D02*
X22786849Y-10888174D01*
X22863039Y-11088174D02*
X22872563Y-11078650D01*
X22872563Y-11078650D02*
X22891611Y-11050079D01*
X22891611Y-11050079D02*
X22901134Y-11031031D01*
X22901134Y-11031031D02*
X22910658Y-11002460D01*
X22910658Y-11002460D02*
X22920182Y-10954841D01*
X22920182Y-10954841D02*
X22920182Y-10916746D01*
X22920182Y-10916746D02*
X22910658Y-10869127D01*
X22910658Y-10869127D02*
X22901134Y-10840555D01*
X22901134Y-10840555D02*
X22891611Y-10821508D01*
X22891611Y-10821508D02*
X22872563Y-10792936D01*
X22872563Y-10792936D02*
X22863039Y-10783412D01*
M02*
