%TF.GenerationSoftware,KiCad,Pcbnew,9.0.4*%
%TF.CreationDate,2025-09-16T15:36:57-04:00*%
%TF.ProjectId,mic,6d69632e-6b69-4636-9164-5f7063625858,rev?*%
%TF.SameCoordinates,Original*%
%TF.FileFunction,Plated,1,4,PTH,Drill*%
%TF.FilePolarity,Positive*%
%FSLAX46Y46*%
G04 Gerber Fmt 4.6, Leading zero omitted, Abs format (unit mm)*
G04 Created by KiCad (PCBNEW 9.0.4) date 2025-09-16 15:36:57*
%MOMM*%
%LPD*%
G01*
G04 APERTURE LIST*
%TA.AperFunction,ComponentDrill*%
%ADD10C,0.750000*%
%TD*%
%TA.AperFunction,ComponentDrill*%
%ADD11C,0.800000*%
%TD*%
%TA.AperFunction,ComponentDrill*%
%ADD12C,1.100000*%
%TD*%
G04 APERTURE END LIST*
D10*
%TO.C,1R*%
X206000000Y-35000000D03*
X206000000Y-37000000D03*
X206000000Y-39000000D03*
X206000000Y-41000000D03*
X206000000Y-43000000D03*
X206000000Y-45000000D03*
%TO.C,1L*%
X206000000Y-51000000D03*
X206000000Y-53000000D03*
X206000000Y-55000000D03*
X206000000Y-57000000D03*
X206000000Y-59000000D03*
X206000000Y-61000000D03*
%TO.C,2R*%
X213500000Y-35000000D03*
X213500000Y-37000000D03*
X213500000Y-39000000D03*
X213500000Y-41000000D03*
X213500000Y-43000000D03*
X213500000Y-45000000D03*
%TO.C,2L*%
X213500000Y-51000000D03*
X213500000Y-53000000D03*
X213500000Y-55000000D03*
X213500000Y-57000000D03*
X213500000Y-59000000D03*
X213500000Y-61000000D03*
%TO.C,3L*%
X221000000Y-51000000D03*
X221000000Y-53000000D03*
X221000000Y-55000000D03*
X221000000Y-57000000D03*
X221000000Y-59000000D03*
X221000000Y-61000000D03*
%TO.C,3R*%
X221050000Y-35000000D03*
X221050000Y-37000000D03*
X221050000Y-39000000D03*
X221050000Y-41000000D03*
X221050000Y-43000000D03*
X221050000Y-45000000D03*
%TO.C,4R*%
X228600000Y-35000000D03*
X228600000Y-37000000D03*
X228600000Y-39000000D03*
X228600000Y-41000000D03*
X228600000Y-43000000D03*
X228600000Y-45000000D03*
%TO.C,4L*%
X228650000Y-51000000D03*
X228650000Y-53000000D03*
X228650000Y-55000000D03*
X228650000Y-57000000D03*
X228650000Y-59000000D03*
X228650000Y-61000000D03*
D11*
%TO.C,Teensy 4.1*%
X189650000Y-34690000D03*
X192101600Y-46930000D03*
X192101600Y-48930000D03*
X192190000Y-34690000D03*
X194101600Y-46930000D03*
X194101600Y-48930000D03*
X196101600Y-46930000D03*
X196101600Y-48930000D03*
D12*
X183300000Y-33960000D03*
X183300000Y-36500000D03*
X183300000Y-39040000D03*
X183300000Y-41580000D03*
X183300000Y-44120000D03*
X183300000Y-46660000D03*
X183300000Y-49200000D03*
X183300000Y-51740000D03*
X183300000Y-54280000D03*
X183300000Y-56820000D03*
X183300000Y-59360000D03*
X183300000Y-61900000D03*
X183300000Y-64440000D03*
X183300000Y-66980000D03*
X183300000Y-69520000D03*
X183300000Y-72060000D03*
X183300000Y-74600000D03*
X183300000Y-77140000D03*
X183300000Y-79680000D03*
X183300000Y-82220000D03*
X183300000Y-84760000D03*
X183300000Y-87300000D03*
X183300000Y-89840000D03*
X183300000Y-92380000D03*
X185840000Y-79680000D03*
X186350800Y-40259200D03*
X186350800Y-42799200D03*
X186350800Y-45339200D03*
X186350800Y-47879200D03*
X186350800Y-50419200D03*
X188380000Y-79680000D03*
X190920000Y-79680000D03*
X193460000Y-79680000D03*
X196000000Y-36500000D03*
X196000000Y-79680000D03*
X198540000Y-33960000D03*
X198540000Y-36500000D03*
X198540000Y-39040000D03*
X198540000Y-41580000D03*
X198540000Y-44120000D03*
X198540000Y-46660000D03*
X198540000Y-49200000D03*
X198540000Y-51740000D03*
X198540000Y-54280000D03*
X198540000Y-56820000D03*
X198540000Y-59360000D03*
X198540000Y-61900000D03*
X198540000Y-64440000D03*
X198540000Y-66980000D03*
X198540000Y-69520000D03*
X198540000Y-72060000D03*
X198540000Y-74600000D03*
X198540000Y-77140000D03*
X198540000Y-79680000D03*
X198540000Y-82220000D03*
X198540000Y-84760000D03*
X198540000Y-87300000D03*
X198540000Y-89840000D03*
X198540000Y-92380000D03*
M02*
