%TF.GenerationSoftware,KiCad,Pcbnew,9.0.4*%
%TF.CreationDate,2025-09-16T15:38:44-04:00*%
%TF.ProjectId,mic,6d69632e-6b69-4636-9164-5f7063625858,rev?*%
%TF.SameCoordinates,Original*%
%TF.FileFunction,Copper,L4,Bot*%
%TF.FilePolarity,Positive*%
%FSLAX46Y46*%
G04 Gerber Fmt 4.6, Leading zero omitted, Abs format (unit mm)*
G04 Created by KiCad (PCBNEW 9.0.4) date 2025-09-16 15:38:44*
%MOMM*%
%LPD*%
G01*
G04 APERTURE LIST*
G04 Aperture macros list*
%AMRoundRect*
0 Rectangle with rounded corners*
0 $1 Rounding radius*
0 $2 $3 $4 $5 $6 $7 $8 $9 X,Y pos of 4 corners*
0 Add a 4 corners polygon primitive as box body*
4,1,4,$2,$3,$4,$5,$6,$7,$8,$9,$2,$3,0*
0 Add four circle primitives for the rounded corners*
1,1,$1+$1,$2,$3*
1,1,$1+$1,$4,$5*
1,1,$1+$1,$6,$7*
1,1,$1+$1,$8,$9*
0 Add four rect primitives between the rounded corners*
20,1,$1+$1,$2,$3,$4,$5,0*
20,1,$1+$1,$4,$5,$6,$7,0*
20,1,$1+$1,$6,$7,$8,$9,0*
20,1,$1+$1,$8,$9,$2,$3,0*%
G04 Aperture macros list end*
%TA.AperFunction,ComponentPad*%
%ADD10O,1.750000X1.200000*%
%TD*%
%TA.AperFunction,ComponentPad*%
%ADD11RoundRect,0.250000X-0.625000X0.350000X-0.625000X-0.350000X0.625000X-0.350000X0.625000X0.350000X0*%
%TD*%
%TA.AperFunction,ComponentPad*%
%ADD12C,1.600000*%
%TD*%
%TA.AperFunction,ComponentPad*%
%ADD13R,1.600000X1.600000*%
%TD*%
%TA.AperFunction,ComponentPad*%
%ADD14R,1.300000X1.300000*%
%TD*%
%TA.AperFunction,ComponentPad*%
%ADD15C,1.300000*%
%TD*%
%TA.AperFunction,Conductor*%
%ADD16C,0.200000*%
%TD*%
G04 APERTURE END LIST*
D10*
%TO.P,3L,6,Pin_6*%
%TO.N,LRCLK1*%
X221000000Y-61000000D03*
%TO.P,3L,5,Pin_5*%
%TO.N,BCLK1*%
X221000000Y-59000000D03*
%TO.P,3L,4,Pin_4*%
%TO.N,GND*%
X221000000Y-57000000D03*
%TO.P,3L,3,Pin_3*%
%TO.N,SAI1_RXD2*%
X221000000Y-55000000D03*
%TO.P,3L,2,Pin_2*%
%TO.N,+3.3V*%
X221000000Y-53000000D03*
D11*
%TO.P,3L,1,Pin_1*%
%TO.N,GND*%
X221000000Y-51000000D03*
%TD*%
%TO.P,4R,1,Pin_1*%
%TO.N,GND*%
X228600000Y-35000000D03*
D10*
%TO.P,4R,2,Pin_2*%
%TO.N,+3.3V*%
X228600000Y-37000000D03*
%TO.P,4R,3,Pin_3*%
%TO.N,SAI1_RXD3*%
X228600000Y-39000000D03*
%TO.P,4R,4,Pin_4*%
%TO.N,+3.3V*%
X228600000Y-41000000D03*
%TO.P,4R,5,Pin_5*%
%TO.N,BCLK1*%
X228600000Y-43000000D03*
%TO.P,4R,6,Pin_6*%
%TO.N,LRCLK1*%
X228600000Y-45000000D03*
%TD*%
D11*
%TO.P,1R,1,Pin_1*%
%TO.N,GND*%
X206000000Y-35000000D03*
D10*
%TO.P,1R,2,Pin_2*%
%TO.N,+3.3V*%
X206000000Y-37000000D03*
%TO.P,1R,3,Pin_3*%
%TO.N,SAI1_RXD0*%
X206000000Y-39000000D03*
%TO.P,1R,4,Pin_4*%
%TO.N,+3.3V*%
X206000000Y-41000000D03*
%TO.P,1R,5,Pin_5*%
%TO.N,BCLK1*%
X206000000Y-43000000D03*
%TO.P,1R,6,Pin_6*%
%TO.N,LRCLK1*%
X206000000Y-45000000D03*
%TD*%
D11*
%TO.P,3R,1,Pin_1*%
%TO.N,GND*%
X221050000Y-35000000D03*
D10*
%TO.P,3R,2,Pin_2*%
%TO.N,+3.3V*%
X221050000Y-37000000D03*
%TO.P,3R,3,Pin_3*%
%TO.N,SAI1_RXD2*%
X221050000Y-39000000D03*
%TO.P,3R,4,Pin_4*%
%TO.N,+3.3V*%
X221050000Y-41000000D03*
%TO.P,3R,5,Pin_5*%
%TO.N,BCLK1*%
X221050000Y-43000000D03*
%TO.P,3R,6,Pin_6*%
%TO.N,LRCLK1*%
X221050000Y-45000000D03*
%TD*%
D11*
%TO.P,4L,1,Pin_1*%
%TO.N,GND*%
X228650000Y-51000000D03*
D10*
%TO.P,4L,2,Pin_2*%
%TO.N,+3.3V*%
X228650000Y-53000000D03*
%TO.P,4L,3,Pin_3*%
%TO.N,SAI1_RXD3*%
X228650000Y-55000000D03*
%TO.P,4L,4,Pin_4*%
%TO.N,GND*%
X228650000Y-57000000D03*
%TO.P,4L,5,Pin_5*%
%TO.N,BCLK1*%
X228650000Y-59000000D03*
%TO.P,4L,6,Pin_6*%
%TO.N,LRCLK1*%
X228650000Y-61000000D03*
%TD*%
%TO.P,2R,6,Pin_6*%
%TO.N,LRCLK1*%
X213500000Y-45000000D03*
%TO.P,2R,5,Pin_5*%
%TO.N,BCLK1*%
X213500000Y-43000000D03*
%TO.P,2R,4,Pin_4*%
%TO.N,+3.3V*%
X213500000Y-41000000D03*
%TO.P,2R,3,Pin_3*%
%TO.N,SAI1_RXD1*%
X213500000Y-39000000D03*
%TO.P,2R,2,Pin_2*%
%TO.N,+3.3V*%
X213500000Y-37000000D03*
D11*
%TO.P,2R,1,Pin_1*%
%TO.N,GND*%
X213500000Y-35000000D03*
%TD*%
D10*
%TO.P,2L,6,Pin_6*%
%TO.N,LRCLK1*%
X213500000Y-61000000D03*
%TO.P,2L,5,Pin_5*%
%TO.N,BCLK1*%
X213500000Y-59000000D03*
%TO.P,2L,4,Pin_4*%
%TO.N,GND*%
X213500000Y-57000000D03*
%TO.P,2L,3,Pin_3*%
%TO.N,SAI1_RXD1*%
X213500000Y-55000000D03*
%TO.P,2L,2,Pin_2*%
%TO.N,+3.3V*%
X213500000Y-53000000D03*
D11*
%TO.P,2L,1,Pin_1*%
%TO.N,GND*%
X213500000Y-51000000D03*
%TD*%
D10*
%TO.P,1L,6,Pin_6*%
%TO.N,LRCLK1*%
X206000000Y-61000000D03*
%TO.P,1L,5,Pin_5*%
%TO.N,BCLK1*%
X206000000Y-59000000D03*
%TO.P,1L,4,Pin_4*%
%TO.N,GND*%
X206000000Y-57000000D03*
%TO.P,1L,3,Pin_3*%
%TO.N,SAI1_RXD0*%
X206000000Y-55000000D03*
%TO.P,1L,2,Pin_2*%
%TO.N,+3.3V*%
X206000000Y-53000000D03*
D11*
%TO.P,1L,1,Pin_1*%
%TO.N,GND*%
X206000000Y-51000000D03*
%TD*%
D12*
%TO.P,Teensy 4.1,49,VUSB*%
%TO.N,unconnected-(U1-VUSB-Pad49)*%
X196000000Y-36500000D03*
%TO.P,Teensy 4.1,59,GND*%
%TO.N,unconnected-(U1-GND-Pad59)*%
X186350800Y-50419200D03*
%TO.P,Teensy 4.1,58,GND*%
%TO.N,unconnected-(U1-GND-Pad58)*%
X186350800Y-47879200D03*
%TO.P,Teensy 4.1,57,D+*%
%TO.N,unconnected-(U1-D+-Pad57)*%
X186350800Y-45339200D03*
%TO.P,Teensy 4.1,56,D-*%
%TO.N,unconnected-(U1-D--Pad56)*%
X186350800Y-42799200D03*
D13*
%TO.P,Teensy 4.1,55,5V*%
%TO.N,unconnected-(U1-5V-Pad55)*%
X186350800Y-40259200D03*
D12*
%TO.P,Teensy 4.1,48,VIN*%
%TO.N,unconnected-(U1-VIN-Pad48)*%
X198540000Y-33960000D03*
%TO.P,Teensy 4.1,47,GND*%
%TO.N,unconnected-(U1-GND-Pad47)*%
X198540000Y-36500000D03*
%TO.P,Teensy 4.1,46,3V3*%
%TO.N,+3.3V*%
X198540000Y-39040000D03*
%TO.P,Teensy 4.1,45,23_A9_CRX1_MCLK1*%
%TO.N,unconnected-(U1-23_A9_CRX1_MCLK1-Pad45)*%
X198540000Y-41580000D03*
%TO.P,Teensy 4.1,44,22_A8_CTX1*%
%TO.N,unconnected-(U1-22_A8_CTX1-Pad44)*%
X198540000Y-44120000D03*
%TO.P,Teensy 4.1,43,21_A7_RX5_BCLK1*%
%TO.N,BCLK1*%
X198540000Y-46660000D03*
%TO.P,Teensy 4.1,42,20_A6_TX5_LRCLK1*%
%TO.N,LRCLK1*%
X198540000Y-49200000D03*
%TO.P,Teensy 4.1,41,19_A5_SCL*%
%TO.N,unconnected-(U1-19_A5_SCL-Pad41)*%
X198540000Y-51740000D03*
%TO.P,Teensy 4.1,40,18_A4_SDA*%
%TO.N,unconnected-(U1-18_A4_SDA-Pad40)*%
X198540000Y-54280000D03*
%TO.P,Teensy 4.1,39,17_A3_TX4_SDA1*%
%TO.N,unconnected-(U1-17_A3_TX4_SDA1-Pad39)*%
X198540000Y-56820000D03*
%TO.P,Teensy 4.1,38,16_A2_RX4_SCL1*%
%TO.N,unconnected-(U1-16_A2_RX4_SCL1-Pad38)*%
X198540000Y-59360000D03*
%TO.P,Teensy 4.1,37,15_A1_RX3_SPDIF_IN*%
%TO.N,unconnected-(U1-15_A1_RX3_SPDIF_IN-Pad37)*%
X198540000Y-61900000D03*
%TO.P,Teensy 4.1,36,14_A0_TX3_SPDIF_OUT*%
%TO.N,unconnected-(U1-14_A0_TX3_SPDIF_OUT-Pad36)*%
X198540000Y-64440000D03*
%TO.P,Teensy 4.1,35,13_SCK_LED*%
%TO.N,unconnected-(U1-13_SCK_LED-Pad35)*%
X198540000Y-66980000D03*
D13*
%TO.P,Teensy 4.1,1,GND*%
%TO.N,GND*%
X183300000Y-33960000D03*
D12*
%TO.P,Teensy 4.1,2,0_RX1_CRX2_CS1*%
%TO.N,unconnected-(U1-0_RX1_CRX2_CS1-Pad2)*%
X183300000Y-36500000D03*
%TO.P,Teensy 4.1,3,1_TX1_CTX2_MISO1*%
%TO.N,unconnected-(U1-1_TX1_CTX2_MISO1-Pad3)*%
X183300000Y-39040000D03*
%TO.P,Teensy 4.1,4,2_OUT2*%
%TO.N,SAI2_RXD0*%
X183300000Y-41580000D03*
%TO.P,Teensy 4.1,5,3_LRCLK2*%
%TO.N,unconnected-(U1-3_LRCLK2-Pad5)*%
X183300000Y-44120000D03*
%TO.P,Teensy 4.1,6,4_BCLK2*%
%TO.N,unconnected-(U1-4_BCLK2-Pad6)*%
X183300000Y-46660000D03*
%TO.P,Teensy 4.1,7,5_IN2*%
%TO.N,SAI2_RXD1*%
X183300000Y-49200000D03*
%TO.P,Teensy 4.1,8,6_OUT1D*%
%TO.N,SAI1_RXD1*%
X183300000Y-51740000D03*
%TO.P,Teensy 4.1,9,7_RX2_OUT1A*%
%TO.N,unconnected-(U1-7_RX2_OUT1A-Pad9)*%
X183300000Y-54280000D03*
%TO.P,Teensy 4.1,10,8_TX2_IN1*%
%TO.N,SAI1_RXD0*%
X183300000Y-56820000D03*
%TO.P,Teensy 4.1,11,9_OUT1C*%
%TO.N,SAI1_RXD3*%
X183300000Y-59360000D03*
%TO.P,Teensy 4.1,12,10_CS_MQSR*%
%TO.N,unconnected-(U1-10_CS_MQSR-Pad12)*%
X183300000Y-61900000D03*
%TO.P,Teensy 4.1,13,11_MOSI_CTX1*%
%TO.N,unconnected-(U1-11_MOSI_CTX1-Pad13)*%
X183300000Y-64440000D03*
%TO.P,Teensy 4.1,34,GND*%
%TO.N,unconnected-(U1-GND-Pad34)*%
X198540000Y-69520000D03*
%TO.P,Teensy 4.1,33,41_A17*%
%TO.N,unconnected-(U1-41_A17-Pad33)*%
X198540000Y-72060000D03*
%TO.P,Teensy 4.1,32,40_A16*%
%TO.N,unconnected-(U1-40_A16-Pad32)*%
X198540000Y-74600000D03*
%TO.P,Teensy 4.1,31,39_MISO1_OUT1A*%
%TO.N,unconnected-(U1-39_MISO1_OUT1A-Pad31)*%
X198540000Y-77140000D03*
%TO.P,Teensy 4.1,30,38_CS1_IN1*%
%TO.N,unconnected-(U1-38_CS1_IN1-Pad30)*%
X198540000Y-79680000D03*
%TO.P,Teensy 4.1,29,37_CS*%
%TO.N,unconnected-(U1-37_CS-Pad29)*%
X198540000Y-82220000D03*
%TO.P,Teensy 4.1,28,36_CS*%
%TO.N,unconnected-(U1-36_CS-Pad28)*%
X198540000Y-84760000D03*
%TO.P,Teensy 4.1,27,35_TX8*%
%TO.N,unconnected-(U1-35_TX8-Pad27)*%
X198540000Y-87300000D03*
%TO.P,Teensy 4.1,26,34_RX8*%
%TO.N,unconnected-(U1-34_RX8-Pad26)*%
X198540000Y-89840000D03*
%TO.P,Teensy 4.1,25,33_MCLK2*%
%TO.N,unconnected-(U1-33_MCLK2-Pad25)*%
X198540000Y-92380000D03*
%TO.P,Teensy 4.1,24,32_OUT1B*%
%TO.N,SAI1_RXD2*%
X183300000Y-92380000D03*
%TO.P,Teensy 4.1,23,31_CTX3*%
%TO.N,unconnected-(U1-31_CTX3-Pad23)*%
X183300000Y-89840000D03*
%TO.P,Teensy 4.1,22,30_CRX3*%
%TO.N,unconnected-(U1-30_CRX3-Pad22)*%
X183300000Y-87300000D03*
%TO.P,Teensy 4.1,21,29_TX7*%
%TO.N,unconnected-(U1-29_TX7-Pad21)*%
X183300000Y-84760000D03*
%TO.P,Teensy 4.1,14,12_MISO_MQSL*%
%TO.N,unconnected-(U1-12_MISO_MQSL-Pad14)*%
X183300000Y-66980000D03*
%TO.P,Teensy 4.1,15,3V3*%
%TO.N,unconnected-(U1-3V3-Pad15)*%
X183300000Y-69520000D03*
%TO.P,Teensy 4.1,16,24_A10_TX6_SCL2*%
%TO.N,unconnected-(U1-24_A10_TX6_SCL2-Pad16)*%
X183300000Y-72060000D03*
%TO.P,Teensy 4.1,20,28_RX7*%
%TO.N,unconnected-(U1-28_RX7-Pad20)*%
X183300000Y-82220000D03*
%TO.P,Teensy 4.1,19,27_A13_SCK1*%
%TO.N,unconnected-(U1-27_A13_SCK1-Pad19)*%
X183300000Y-79680000D03*
%TO.P,Teensy 4.1,18,26_A12_MOSI1*%
%TO.N,unconnected-(U1-26_A12_MOSI1-Pad18)*%
X183300000Y-77140000D03*
%TO.P,Teensy 4.1,17,25_A11_RX6_SDA2*%
%TO.N,unconnected-(U1-25_A11_RX6_SDA2-Pad17)*%
X183300000Y-74600000D03*
D14*
%TO.P,Teensy 4.1,60,R+*%
%TO.N,unconnected-(U1-R+-Pad60)*%
X196101600Y-46930000D03*
D15*
%TO.P,Teensy 4.1,65,R-*%
%TO.N,unconnected-(U1-R--Pad65)*%
X196101600Y-48930000D03*
%TO.P,Teensy 4.1,61,LED*%
%TO.N,unconnected-(U1-LED-Pad61)*%
X194101600Y-46930000D03*
%TO.P,Teensy 4.1,64,GND*%
%TO.N,unconnected-(U1-GND-Pad64)*%
X194101600Y-48930000D03*
%TO.P,Teensy 4.1,63,T+*%
%TO.N,unconnected-(U1-T+-Pad63)*%
X192101600Y-48930000D03*
%TO.P,Teensy 4.1,62,T-*%
%TO.N,unconnected-(U1-T--Pad62)*%
X192101600Y-46930000D03*
D12*
%TO.P,Teensy 4.1,50,VBAT*%
%TO.N,unconnected-(U1-VBAT-Pad50)*%
X185840000Y-79680000D03*
%TO.P,Teensy 4.1,51,3V3*%
%TO.N,unconnected-(U1-3V3-Pad51)*%
X188380000Y-79680000D03*
%TO.P,Teensy 4.1,52,GND*%
%TO.N,unconnected-(U1-GND-Pad52)*%
X190920000Y-79680000D03*
%TO.P,Teensy 4.1,53,PROGRAM*%
%TO.N,unconnected-(U1-PROGRAM-Pad53)*%
X193460000Y-79680000D03*
%TO.P,Teensy 4.1,54,ON_OFF*%
%TO.N,unconnected-(U1-ON_OFF-Pad54)*%
X196000000Y-79680000D03*
D15*
%TO.P,Teensy 4.1,67,D+*%
%TO.N,unconnected-(U1-D+-Pad67)*%
X189650000Y-34690000D03*
%TO.P,Teensy 4.1,66,D-*%
%TO.N,unconnected-(U1-D--Pad66)*%
X192190000Y-34690000D03*
%TD*%
D16*
%TO.N,SAI1_RXD3*%
X184401000Y-60461000D02*
X183300000Y-59360000D01*
X198961000Y-60461000D02*
X184401000Y-60461000D01*
X200500000Y-62000000D02*
X198961000Y-60461000D01*
X221650000Y-62000000D02*
X200500000Y-62000000D01*
X228650000Y-55000000D02*
X221650000Y-62000000D01*
%TO.N,SAI1_RXD1*%
X184401000Y-52841000D02*
X183300000Y-51740000D01*
X210599000Y-57901000D02*
X203720894Y-57901000D01*
X198660894Y-52841000D02*
X184401000Y-52841000D01*
X213500000Y-55000000D02*
X210599000Y-57901000D01*
X203720894Y-57901000D02*
X198660894Y-52841000D01*
%TO.N,SAI1_RXD2*%
X182843950Y-58259000D02*
X182199000Y-58903950D01*
X182199000Y-58903950D02*
X182199000Y-91279000D01*
X205351794Y-60099000D02*
X203511794Y-58259000D01*
X215901000Y-60099000D02*
X205351794Y-60099000D01*
X203511794Y-58259000D02*
X182843950Y-58259000D01*
X182199000Y-91279000D02*
X183300000Y-92380000D01*
X221000000Y-55000000D02*
X215901000Y-60099000D01*
%TO.N,SAI1_RXD0*%
X207176000Y-53824000D02*
X206000000Y-55000000D01*
X206000000Y-39000000D02*
X207176000Y-40176000D01*
X207176000Y-40176000D02*
X207176000Y-53824000D01*
%TO.N,SAI1_RXD1*%
X214676000Y-53824000D02*
X213500000Y-55000000D01*
X214676000Y-40176000D02*
X214676000Y-53824000D01*
X213500000Y-39000000D02*
X214676000Y-40176000D01*
%TO.N,SAI1_RXD2*%
X222500000Y-53500000D02*
X221000000Y-55000000D01*
X222500000Y-40450000D02*
X222500000Y-53500000D01*
X221050000Y-39000000D02*
X222500000Y-40450000D01*
%TO.N,SAI1_RXD3*%
X229826000Y-53824000D02*
X228650000Y-55000000D01*
X229826000Y-40226000D02*
X229826000Y-53824000D01*
X228600000Y-39000000D02*
X229826000Y-40226000D01*
%TO.N,SAI1_RXD0*%
X182199000Y-51283950D02*
X182199000Y-55719000D01*
X182199000Y-55719000D02*
X183300000Y-56820000D01*
X182843950Y-50639000D02*
X182199000Y-51283950D01*
X184139000Y-50639000D02*
X182843950Y-50639000D01*
X185940000Y-52440000D02*
X184139000Y-50639000D01*
X186060000Y-52440000D02*
X185940000Y-52440000D01*
X201639000Y-50639000D02*
X187861000Y-50639000D01*
X206000000Y-55000000D02*
X201639000Y-50639000D01*
X187861000Y-50639000D02*
X186060000Y-52440000D01*
%TD*%
%TA.AperFunction,Conductor*%
%TO.N,GND*%
G36*
X201405942Y-51259185D02*
G01*
X201426584Y-51275819D01*
X204657083Y-54506318D01*
X204690568Y-54567641D01*
X204687333Y-54632316D01*
X204651598Y-54742297D01*
X204651597Y-54742301D01*
X204624500Y-54913389D01*
X204624500Y-55086610D01*
X204651597Y-55257697D01*
X204651597Y-55257699D01*
X204651598Y-55257701D01*
X204705127Y-55422445D01*
X204783768Y-55576788D01*
X204885586Y-55716928D01*
X205008072Y-55839414D01*
X205091449Y-55899991D01*
X205134114Y-55955322D01*
X205140093Y-56024935D01*
X205107487Y-56086730D01*
X205091448Y-56100627D01*
X205008404Y-56160961D01*
X205008399Y-56160965D01*
X204885967Y-56283397D01*
X204784195Y-56423475D01*
X204705591Y-56577744D01*
X204652085Y-56742415D01*
X204650884Y-56749999D01*
X204650885Y-56750000D01*
X205719670Y-56750000D01*
X205699925Y-56769745D01*
X205650556Y-56855255D01*
X205625000Y-56950630D01*
X205625000Y-57049370D01*
X205650556Y-57144745D01*
X205699925Y-57230255D01*
X205719670Y-57250000D01*
X204650885Y-57250000D01*
X204644878Y-57257033D01*
X204586371Y-57295225D01*
X204550589Y-57300500D01*
X204020992Y-57300500D01*
X203953953Y-57280815D01*
X203933311Y-57264181D01*
X199481838Y-52812708D01*
X199448353Y-52751385D01*
X199453337Y-52681693D01*
X199481837Y-52637346D01*
X199531966Y-52587219D01*
X199531968Y-52587215D01*
X199531971Y-52587213D01*
X199584732Y-52514590D01*
X199652287Y-52421610D01*
X199745220Y-52239219D01*
X199808477Y-52044534D01*
X199840500Y-51842352D01*
X199840500Y-51637648D01*
X199808477Y-51435466D01*
X199808475Y-51435462D01*
X199808475Y-51435457D01*
X199797545Y-51401817D01*
X199795550Y-51331976D01*
X199831631Y-51272144D01*
X199894332Y-51241316D01*
X199915476Y-51239500D01*
X201338903Y-51239500D01*
X201405942Y-51259185D01*
G37*
%TD.AperFunction*%
%TA.AperFunction,Conductor*%
G36*
X235442539Y-29519685D02*
G01*
X235488294Y-29572489D01*
X235499500Y-29624000D01*
X235499500Y-96376000D01*
X235479815Y-96443039D01*
X235427011Y-96488794D01*
X235375500Y-96500000D01*
X179624500Y-96500000D01*
X179557461Y-96480315D01*
X179511706Y-96427511D01*
X179500500Y-96376000D01*
X179500500Y-55798054D01*
X181598498Y-55798054D01*
X181598499Y-55798057D01*
X181639423Y-55950785D01*
X181652123Y-55972781D01*
X181682234Y-56024935D01*
X181718479Y-56087715D01*
X181837349Y-56206585D01*
X181837355Y-56206590D01*
X182005922Y-56375157D01*
X182039407Y-56436480D01*
X182036173Y-56501155D01*
X182031522Y-56515468D01*
X181999500Y-56717648D01*
X181999500Y-56922351D01*
X182031522Y-57124534D01*
X182094781Y-57319223D01*
X182187715Y-57501613D01*
X182308028Y-57667213D01*
X182359583Y-57718768D01*
X182393068Y-57780091D01*
X182388084Y-57849783D01*
X182359583Y-57894130D01*
X181833697Y-58420016D01*
X181833691Y-58420022D01*
X181830286Y-58423428D01*
X181830284Y-58423430D01*
X181718480Y-58535234D01*
X181689578Y-58585295D01*
X181683862Y-58595193D01*
X181683861Y-58595196D01*
X181639423Y-58672164D01*
X181639423Y-58672165D01*
X181598499Y-58824893D01*
X181598499Y-58824895D01*
X181598499Y-58992996D01*
X181598500Y-58993009D01*
X181598500Y-91192330D01*
X181598499Y-91192348D01*
X181598499Y-91358054D01*
X181598498Y-91358054D01*
X181598499Y-91358057D01*
X181639423Y-91510785D01*
X181652123Y-91532781D01*
X181696361Y-91609404D01*
X181718479Y-91647715D01*
X181837349Y-91766585D01*
X181837355Y-91766590D01*
X182005922Y-91935157D01*
X182039407Y-91996480D01*
X182036173Y-92061155D01*
X182031522Y-92075468D01*
X181999500Y-92277648D01*
X181999500Y-92482351D01*
X182031522Y-92684534D01*
X182094781Y-92879223D01*
X182187715Y-93061613D01*
X182308028Y-93227213D01*
X182452786Y-93371971D01*
X182607749Y-93484556D01*
X182618390Y-93492287D01*
X182734607Y-93551503D01*
X182800776Y-93585218D01*
X182800778Y-93585218D01*
X182800781Y-93585220D01*
X182905137Y-93619127D01*
X182995465Y-93648477D01*
X183096557Y-93664488D01*
X183197648Y-93680500D01*
X183197649Y-93680500D01*
X183402351Y-93680500D01*
X183402352Y-93680500D01*
X183604534Y-93648477D01*
X183799219Y-93585220D01*
X183981610Y-93492287D01*
X184074590Y-93424732D01*
X184147213Y-93371971D01*
X184147215Y-93371968D01*
X184147219Y-93371966D01*
X184291966Y-93227219D01*
X184291968Y-93227215D01*
X184291971Y-93227213D01*
X184344732Y-93154590D01*
X184412287Y-93061610D01*
X184505220Y-92879219D01*
X184568477Y-92684534D01*
X184600500Y-92482352D01*
X184600500Y-92277648D01*
X184568477Y-92075466D01*
X184505220Y-91880781D01*
X184505218Y-91880778D01*
X184505218Y-91880776D01*
X184471503Y-91814607D01*
X184412287Y-91698390D01*
X184394661Y-91674130D01*
X184291968Y-91532783D01*
X184147213Y-91388028D01*
X183981614Y-91267715D01*
X183975006Y-91264348D01*
X183888917Y-91220483D01*
X183838123Y-91172511D01*
X183821328Y-91104690D01*
X183843865Y-91038555D01*
X183888917Y-90999516D01*
X183981610Y-90952287D01*
X184002770Y-90936913D01*
X184147213Y-90831971D01*
X184147215Y-90831968D01*
X184147219Y-90831966D01*
X184291966Y-90687219D01*
X184291968Y-90687215D01*
X184291971Y-90687213D01*
X184344732Y-90614590D01*
X184412287Y-90521610D01*
X184505220Y-90339219D01*
X184568477Y-90144534D01*
X184600500Y-89942352D01*
X184600500Y-89737648D01*
X184568477Y-89535466D01*
X184505220Y-89340781D01*
X184505218Y-89340778D01*
X184505218Y-89340776D01*
X184471503Y-89274607D01*
X184412287Y-89158390D01*
X184404556Y-89147749D01*
X184291971Y-88992786D01*
X184147213Y-88848028D01*
X183981614Y-88727715D01*
X183975006Y-88724348D01*
X183888917Y-88680483D01*
X183838123Y-88632511D01*
X183821328Y-88564690D01*
X183843865Y-88498555D01*
X183888917Y-88459516D01*
X183981610Y-88412287D01*
X184002770Y-88396913D01*
X184147213Y-88291971D01*
X184147215Y-88291968D01*
X184147219Y-88291966D01*
X184291966Y-88147219D01*
X184291968Y-88147215D01*
X184291971Y-88147213D01*
X184344732Y-88074590D01*
X184412287Y-87981610D01*
X184505220Y-87799219D01*
X184568477Y-87604534D01*
X184600500Y-87402352D01*
X184600500Y-87197648D01*
X184568477Y-86995466D01*
X184505220Y-86800781D01*
X184505218Y-86800778D01*
X184505218Y-86800776D01*
X184471503Y-86734607D01*
X184412287Y-86618390D01*
X184404556Y-86607749D01*
X184291971Y-86452786D01*
X184147213Y-86308028D01*
X183981614Y-86187715D01*
X183975006Y-86184348D01*
X183888917Y-86140483D01*
X183838123Y-86092511D01*
X183821328Y-86024690D01*
X183843865Y-85958555D01*
X183888917Y-85919516D01*
X183981610Y-85872287D01*
X184002770Y-85856913D01*
X184147213Y-85751971D01*
X184147215Y-85751968D01*
X184147219Y-85751966D01*
X184291966Y-85607219D01*
X184291968Y-85607215D01*
X184291971Y-85607213D01*
X184344732Y-85534590D01*
X184412287Y-85441610D01*
X184505220Y-85259219D01*
X184568477Y-85064534D01*
X184600500Y-84862352D01*
X184600500Y-84657648D01*
X184568477Y-84455466D01*
X184505220Y-84260781D01*
X184505218Y-84260778D01*
X184505218Y-84260776D01*
X184471503Y-84194607D01*
X184412287Y-84078390D01*
X184404556Y-84067749D01*
X184291971Y-83912786D01*
X184147213Y-83768028D01*
X183981614Y-83647715D01*
X183975006Y-83644348D01*
X183888917Y-83600483D01*
X183838123Y-83552511D01*
X183821328Y-83484690D01*
X183843865Y-83418555D01*
X183888917Y-83379516D01*
X183981610Y-83332287D01*
X184002770Y-83316913D01*
X184147213Y-83211971D01*
X184147215Y-83211968D01*
X184147219Y-83211966D01*
X184291966Y-83067219D01*
X184291968Y-83067215D01*
X184291971Y-83067213D01*
X184344732Y-82994590D01*
X184412287Y-82901610D01*
X184505220Y-82719219D01*
X184568477Y-82524534D01*
X184600500Y-82322352D01*
X184600500Y-82117648D01*
X184568477Y-81915466D01*
X184505220Y-81720781D01*
X184505218Y-81720778D01*
X184505218Y-81720776D01*
X184471503Y-81654607D01*
X184412287Y-81538390D01*
X184404556Y-81527749D01*
X184291971Y-81372786D01*
X184147213Y-81228028D01*
X183981614Y-81107715D01*
X183975006Y-81104348D01*
X183888917Y-81060483D01*
X183838123Y-81012511D01*
X183821328Y-80944690D01*
X183843865Y-80878555D01*
X183888917Y-80839516D01*
X183981610Y-80792287D01*
X184002770Y-80776913D01*
X184147213Y-80671971D01*
X184147215Y-80671968D01*
X184147219Y-80671966D01*
X184291966Y-80527219D01*
X184291968Y-80527215D01*
X184291971Y-80527213D01*
X184412284Y-80361614D01*
X184412285Y-80361613D01*
X184412287Y-80361610D01*
X184459516Y-80268917D01*
X184507489Y-80218123D01*
X184575310Y-80201328D01*
X184641445Y-80223865D01*
X184680485Y-80268919D01*
X184727715Y-80361614D01*
X184848028Y-80527213D01*
X184992786Y-80671971D01*
X185147749Y-80784556D01*
X185158390Y-80792287D01*
X185251080Y-80839515D01*
X185340776Y-80885218D01*
X185340778Y-80885218D01*
X185340781Y-80885220D01*
X185445137Y-80919127D01*
X185535465Y-80948477D01*
X185554697Y-80951523D01*
X185737648Y-80980500D01*
X185737649Y-80980500D01*
X185942351Y-80980500D01*
X185942352Y-80980500D01*
X186144534Y-80948477D01*
X186339219Y-80885220D01*
X186521610Y-80792287D01*
X186614590Y-80724732D01*
X186687213Y-80671971D01*
X186687215Y-80671968D01*
X186687219Y-80671966D01*
X186831966Y-80527219D01*
X186831968Y-80527215D01*
X186831971Y-80527213D01*
X186952284Y-80361614D01*
X186952285Y-80361613D01*
X186952287Y-80361610D01*
X186999516Y-80268917D01*
X187047489Y-80218123D01*
X187115310Y-80201328D01*
X187181445Y-80223865D01*
X187220485Y-80268919D01*
X187267715Y-80361614D01*
X187388028Y-80527213D01*
X187532786Y-80671971D01*
X187687749Y-80784556D01*
X187698390Y-80792287D01*
X187791080Y-80839515D01*
X187880776Y-80885218D01*
X187880778Y-80885218D01*
X187880781Y-80885220D01*
X187985137Y-80919127D01*
X188075465Y-80948477D01*
X188094697Y-80951523D01*
X188277648Y-80980500D01*
X188277649Y-80980500D01*
X188482351Y-80980500D01*
X188482352Y-80980500D01*
X188684534Y-80948477D01*
X188879219Y-80885220D01*
X189061610Y-80792287D01*
X189154590Y-80724732D01*
X189227213Y-80671971D01*
X189227215Y-80671968D01*
X189227219Y-80671966D01*
X189371966Y-80527219D01*
X189371968Y-80527215D01*
X189371971Y-80527213D01*
X189492284Y-80361614D01*
X189492285Y-80361613D01*
X189492287Y-80361610D01*
X189539516Y-80268917D01*
X189587489Y-80218123D01*
X189655310Y-80201328D01*
X189721445Y-80223865D01*
X189760485Y-80268919D01*
X189807715Y-80361614D01*
X189928028Y-80527213D01*
X190072786Y-80671971D01*
X190227749Y-80784556D01*
X190238390Y-80792287D01*
X190331080Y-80839515D01*
X190420776Y-80885218D01*
X190420778Y-80885218D01*
X190420781Y-80885220D01*
X190525137Y-80919127D01*
X190615465Y-80948477D01*
X190634697Y-80951523D01*
X190817648Y-80980500D01*
X190817649Y-80980500D01*
X191022351Y-80980500D01*
X191022352Y-80980500D01*
X191224534Y-80948477D01*
X191419219Y-80885220D01*
X191601610Y-80792287D01*
X191694590Y-80724732D01*
X191767213Y-80671971D01*
X191767215Y-80671968D01*
X191767219Y-80671966D01*
X191911966Y-80527219D01*
X191911968Y-80527215D01*
X191911971Y-80527213D01*
X192032284Y-80361614D01*
X192032285Y-80361613D01*
X192032287Y-80361610D01*
X192079516Y-80268917D01*
X192127489Y-80218123D01*
X192195310Y-80201328D01*
X192261445Y-80223865D01*
X192300485Y-80268919D01*
X192347715Y-80361614D01*
X192468028Y-80527213D01*
X192612786Y-80671971D01*
X192767749Y-80784556D01*
X192778390Y-80792287D01*
X192871080Y-80839515D01*
X192960776Y-80885218D01*
X192960778Y-80885218D01*
X192960781Y-80885220D01*
X193065137Y-80919127D01*
X193155465Y-80948477D01*
X193174697Y-80951523D01*
X193357648Y-80980500D01*
X193357649Y-80980500D01*
X193562351Y-80980500D01*
X193562352Y-80980500D01*
X193764534Y-80948477D01*
X193959219Y-80885220D01*
X194141610Y-80792287D01*
X194234590Y-80724732D01*
X194307213Y-80671971D01*
X194307215Y-80671968D01*
X194307219Y-80671966D01*
X194451966Y-80527219D01*
X194451968Y-80527215D01*
X194451971Y-80527213D01*
X194572284Y-80361614D01*
X194572285Y-80361613D01*
X194572287Y-80361610D01*
X194619516Y-80268917D01*
X194667489Y-80218123D01*
X194735310Y-80201328D01*
X194801445Y-80223865D01*
X194840485Y-80268919D01*
X194887715Y-80361614D01*
X195008028Y-80527213D01*
X195152786Y-80671971D01*
X195307749Y-80784556D01*
X195318390Y-80792287D01*
X195411080Y-80839515D01*
X195500776Y-80885218D01*
X195500778Y-80885218D01*
X195500781Y-80885220D01*
X195605137Y-80919127D01*
X195695465Y-80948477D01*
X195714697Y-80951523D01*
X195897648Y-80980500D01*
X195897649Y-80980500D01*
X196102351Y-80980500D01*
X196102352Y-80980500D01*
X196304534Y-80948477D01*
X196499219Y-80885220D01*
X196681610Y-80792287D01*
X196774590Y-80724732D01*
X196847213Y-80671971D01*
X196847215Y-80671968D01*
X196847219Y-80671966D01*
X196991966Y-80527219D01*
X196991968Y-80527215D01*
X196991971Y-80527213D01*
X197112284Y-80361614D01*
X197112285Y-80361613D01*
X197112287Y-80361610D01*
X197159516Y-80268917D01*
X197207489Y-80218123D01*
X197275310Y-80201328D01*
X197341445Y-80223865D01*
X197380485Y-80268919D01*
X197427715Y-80361614D01*
X197548028Y-80527213D01*
X197692786Y-80671971D01*
X197847749Y-80784556D01*
X197858390Y-80792287D01*
X197949840Y-80838883D01*
X197951080Y-80839515D01*
X198001876Y-80887490D01*
X198018671Y-80955311D01*
X197996134Y-81021446D01*
X197951080Y-81060485D01*
X197858386Y-81107715D01*
X197692786Y-81228028D01*
X197548028Y-81372786D01*
X197427715Y-81538386D01*
X197334781Y-81720776D01*
X197271522Y-81915465D01*
X197239500Y-82117648D01*
X197239500Y-82322351D01*
X197271522Y-82524534D01*
X197334781Y-82719223D01*
X197427715Y-82901613D01*
X197548028Y-83067213D01*
X197692786Y-83211971D01*
X197847749Y-83324556D01*
X197858390Y-83332287D01*
X197949840Y-83378883D01*
X197951080Y-83379515D01*
X198001876Y-83427490D01*
X198018671Y-83495311D01*
X197996134Y-83561446D01*
X197951080Y-83600485D01*
X197858386Y-83647715D01*
X197692786Y-83768028D01*
X197548028Y-83912786D01*
X197427715Y-84078386D01*
X197334781Y-84260776D01*
X197271522Y-84455465D01*
X197239500Y-84657648D01*
X197239500Y-84862351D01*
X197271522Y-85064534D01*
X197334781Y-85259223D01*
X197427715Y-85441613D01*
X197548028Y-85607213D01*
X197692786Y-85751971D01*
X197847749Y-85864556D01*
X197858390Y-85872287D01*
X197949840Y-85918883D01*
X197951080Y-85919515D01*
X198001876Y-85967490D01*
X198018671Y-86035311D01*
X197996134Y-86101446D01*
X197951080Y-86140485D01*
X197858386Y-86187715D01*
X197692786Y-86308028D01*
X197548028Y-86452786D01*
X197427715Y-86618386D01*
X197334781Y-86800776D01*
X197271522Y-86995465D01*
X197239500Y-87197648D01*
X197239500Y-87402351D01*
X197271522Y-87604534D01*
X197334781Y-87799223D01*
X197427715Y-87981613D01*
X197548028Y-88147213D01*
X197692786Y-88291971D01*
X197847749Y-88404556D01*
X197858390Y-88412287D01*
X197949840Y-88458883D01*
X197951080Y-88459515D01*
X198001876Y-88507490D01*
X198018671Y-88575311D01*
X197996134Y-88641446D01*
X197951080Y-88680485D01*
X197858386Y-88727715D01*
X197692786Y-88848028D01*
X197548028Y-88992786D01*
X197427715Y-89158386D01*
X197334781Y-89340776D01*
X197271522Y-89535465D01*
X197239500Y-89737648D01*
X197239500Y-89942351D01*
X197271522Y-90144534D01*
X197334781Y-90339223D01*
X197427715Y-90521613D01*
X197548028Y-90687213D01*
X197692786Y-90831971D01*
X197847749Y-90944556D01*
X197858390Y-90952287D01*
X197949840Y-90998883D01*
X197951080Y-90999515D01*
X198001876Y-91047490D01*
X198018671Y-91115311D01*
X197996134Y-91181446D01*
X197951080Y-91220485D01*
X197858386Y-91267715D01*
X197692786Y-91388028D01*
X197692782Y-91388032D01*
X197548034Y-91532781D01*
X197548032Y-91532783D01*
X197427715Y-91698386D01*
X197334781Y-91880776D01*
X197271522Y-92075465D01*
X197239500Y-92277648D01*
X197239500Y-92482351D01*
X197271522Y-92684534D01*
X197334781Y-92879223D01*
X197427715Y-93061613D01*
X197548028Y-93227213D01*
X197692786Y-93371971D01*
X197847749Y-93484556D01*
X197858390Y-93492287D01*
X197974607Y-93551503D01*
X198040776Y-93585218D01*
X198040778Y-93585218D01*
X198040781Y-93585220D01*
X198145137Y-93619127D01*
X198235465Y-93648477D01*
X198336557Y-93664488D01*
X198437648Y-93680500D01*
X198437649Y-93680500D01*
X198642351Y-93680500D01*
X198642352Y-93680500D01*
X198844534Y-93648477D01*
X199039219Y-93585220D01*
X199221610Y-93492287D01*
X199314590Y-93424732D01*
X199387213Y-93371971D01*
X199387215Y-93371968D01*
X199387219Y-93371966D01*
X199531966Y-93227219D01*
X199531968Y-93227215D01*
X199531971Y-93227213D01*
X199584732Y-93154590D01*
X199652287Y-93061610D01*
X199745220Y-92879219D01*
X199808477Y-92684534D01*
X199840500Y-92482352D01*
X199840500Y-92277648D01*
X199808477Y-92075466D01*
X199745220Y-91880781D01*
X199745218Y-91880778D01*
X199745218Y-91880776D01*
X199711503Y-91814607D01*
X199652287Y-91698390D01*
X199634661Y-91674130D01*
X199531968Y-91532783D01*
X199387213Y-91388028D01*
X199221614Y-91267715D01*
X199215006Y-91264348D01*
X199128917Y-91220483D01*
X199078123Y-91172511D01*
X199061328Y-91104690D01*
X199083865Y-91038555D01*
X199128917Y-90999516D01*
X199221610Y-90952287D01*
X199242770Y-90936913D01*
X199387213Y-90831971D01*
X199387215Y-90831968D01*
X199387219Y-90831966D01*
X199531966Y-90687219D01*
X199531968Y-90687215D01*
X199531971Y-90687213D01*
X199584732Y-90614590D01*
X199652287Y-90521610D01*
X199745220Y-90339219D01*
X199808477Y-90144534D01*
X199840500Y-89942352D01*
X199840500Y-89737648D01*
X199808477Y-89535466D01*
X199745220Y-89340781D01*
X199745218Y-89340778D01*
X199745218Y-89340776D01*
X199711503Y-89274607D01*
X199652287Y-89158390D01*
X199644556Y-89147749D01*
X199531971Y-88992786D01*
X199387213Y-88848028D01*
X199221614Y-88727715D01*
X199215006Y-88724348D01*
X199128917Y-88680483D01*
X199078123Y-88632511D01*
X199061328Y-88564690D01*
X199083865Y-88498555D01*
X199128917Y-88459516D01*
X199221610Y-88412287D01*
X199242770Y-88396913D01*
X199387213Y-88291971D01*
X199387215Y-88291968D01*
X199387219Y-88291966D01*
X199531966Y-88147219D01*
X199531968Y-88147215D01*
X199531971Y-88147213D01*
X199584732Y-88074590D01*
X199652287Y-87981610D01*
X199745220Y-87799219D01*
X199808477Y-87604534D01*
X199840500Y-87402352D01*
X199840500Y-87197648D01*
X199808477Y-86995466D01*
X199745220Y-86800781D01*
X199745218Y-86800778D01*
X199745218Y-86800776D01*
X199711503Y-86734607D01*
X199652287Y-86618390D01*
X199644556Y-86607749D01*
X199531971Y-86452786D01*
X199387213Y-86308028D01*
X199221614Y-86187715D01*
X199215006Y-86184348D01*
X199128917Y-86140483D01*
X199078123Y-86092511D01*
X199061328Y-86024690D01*
X199083865Y-85958555D01*
X199128917Y-85919516D01*
X199221610Y-85872287D01*
X199242770Y-85856913D01*
X199387213Y-85751971D01*
X199387215Y-85751968D01*
X199387219Y-85751966D01*
X199531966Y-85607219D01*
X199531968Y-85607215D01*
X199531971Y-85607213D01*
X199584732Y-85534590D01*
X199652287Y-85441610D01*
X199745220Y-85259219D01*
X199808477Y-85064534D01*
X199840500Y-84862352D01*
X199840500Y-84657648D01*
X199808477Y-84455466D01*
X199745220Y-84260781D01*
X199745218Y-84260778D01*
X199745218Y-84260776D01*
X199711503Y-84194607D01*
X199652287Y-84078390D01*
X199644556Y-84067749D01*
X199531971Y-83912786D01*
X199387213Y-83768028D01*
X199221614Y-83647715D01*
X199215006Y-83644348D01*
X199128917Y-83600483D01*
X199078123Y-83552511D01*
X199061328Y-83484690D01*
X199083865Y-83418555D01*
X199128917Y-83379516D01*
X199221610Y-83332287D01*
X199242770Y-83316913D01*
X199387213Y-83211971D01*
X199387215Y-83211968D01*
X199387219Y-83211966D01*
X199531966Y-83067219D01*
X199531968Y-83067215D01*
X199531971Y-83067213D01*
X199584732Y-82994590D01*
X199652287Y-82901610D01*
X199745220Y-82719219D01*
X199808477Y-82524534D01*
X199840500Y-82322352D01*
X199840500Y-82117648D01*
X199808477Y-81915466D01*
X199745220Y-81720781D01*
X199745218Y-81720778D01*
X199745218Y-81720776D01*
X199711503Y-81654607D01*
X199652287Y-81538390D01*
X199644556Y-81527749D01*
X199531971Y-81372786D01*
X199387213Y-81228028D01*
X199221614Y-81107715D01*
X199215006Y-81104348D01*
X199128917Y-81060483D01*
X199078123Y-81012511D01*
X199061328Y-80944690D01*
X199083865Y-80878555D01*
X199128917Y-80839516D01*
X199221610Y-80792287D01*
X199242770Y-80776913D01*
X199387213Y-80671971D01*
X199387215Y-80671968D01*
X199387219Y-80671966D01*
X199531966Y-80527219D01*
X199531968Y-80527215D01*
X199531971Y-80527213D01*
X199584732Y-80454590D01*
X199652287Y-80361610D01*
X199745220Y-80179219D01*
X199808477Y-79984534D01*
X199840500Y-79782352D01*
X199840500Y-79577648D01*
X199808477Y-79375466D01*
X199745220Y-79180781D01*
X199745218Y-79180778D01*
X199745218Y-79180776D01*
X199699515Y-79091080D01*
X199652287Y-78998390D01*
X199644556Y-78987749D01*
X199531971Y-78832786D01*
X199387213Y-78688028D01*
X199221614Y-78567715D01*
X199215006Y-78564348D01*
X199128917Y-78520483D01*
X199078123Y-78472511D01*
X199061328Y-78404690D01*
X199083865Y-78338555D01*
X199128917Y-78299516D01*
X199221610Y-78252287D01*
X199242770Y-78236913D01*
X199387213Y-78131971D01*
X199387215Y-78131968D01*
X199387219Y-78131966D01*
X199531966Y-77987219D01*
X199531968Y-77987215D01*
X199531971Y-77987213D01*
X199584732Y-77914590D01*
X199652287Y-77821610D01*
X199745220Y-77639219D01*
X199808477Y-77444534D01*
X199840500Y-77242352D01*
X199840500Y-77037648D01*
X199808477Y-76835466D01*
X199745220Y-76640781D01*
X199745218Y-76640778D01*
X199745218Y-76640776D01*
X199711503Y-76574607D01*
X199652287Y-76458390D01*
X199644556Y-76447749D01*
X199531971Y-76292786D01*
X199387213Y-76148028D01*
X199221614Y-76027715D01*
X199215006Y-76024348D01*
X199128917Y-75980483D01*
X199078123Y-75932511D01*
X199061328Y-75864690D01*
X199083865Y-75798555D01*
X199128917Y-75759516D01*
X199221610Y-75712287D01*
X199242770Y-75696913D01*
X199387213Y-75591971D01*
X199387215Y-75591968D01*
X199387219Y-75591966D01*
X199531966Y-75447219D01*
X199531968Y-75447215D01*
X199531971Y-75447213D01*
X199584732Y-75374590D01*
X199652287Y-75281610D01*
X199745220Y-75099219D01*
X199808477Y-74904534D01*
X199840500Y-74702352D01*
X199840500Y-74497648D01*
X199808477Y-74295466D01*
X199745220Y-74100781D01*
X199745218Y-74100778D01*
X199745218Y-74100776D01*
X199711503Y-74034607D01*
X199652287Y-73918390D01*
X199644556Y-73907749D01*
X199531971Y-73752786D01*
X199387213Y-73608028D01*
X199221614Y-73487715D01*
X199215006Y-73484348D01*
X199128917Y-73440483D01*
X199078123Y-73392511D01*
X199061328Y-73324690D01*
X199083865Y-73258555D01*
X199128917Y-73219516D01*
X199221610Y-73172287D01*
X199242770Y-73156913D01*
X199387213Y-73051971D01*
X199387215Y-73051968D01*
X199387219Y-73051966D01*
X199531966Y-72907219D01*
X199531968Y-72907215D01*
X199531971Y-72907213D01*
X199584732Y-72834590D01*
X199652287Y-72741610D01*
X199745220Y-72559219D01*
X199808477Y-72364534D01*
X199840500Y-72162352D01*
X199840500Y-71957648D01*
X199808477Y-71755466D01*
X199745220Y-71560781D01*
X199745218Y-71560778D01*
X199745218Y-71560776D01*
X199711503Y-71494607D01*
X199652287Y-71378390D01*
X199644556Y-71367749D01*
X199531971Y-71212786D01*
X199387213Y-71068028D01*
X199221614Y-70947715D01*
X199215006Y-70944348D01*
X199128917Y-70900483D01*
X199078123Y-70852511D01*
X199061328Y-70784690D01*
X199083865Y-70718555D01*
X199128917Y-70679516D01*
X199221610Y-70632287D01*
X199242770Y-70616913D01*
X199387213Y-70511971D01*
X199387215Y-70511968D01*
X199387219Y-70511966D01*
X199531966Y-70367219D01*
X199531968Y-70367215D01*
X199531971Y-70367213D01*
X199584732Y-70294590D01*
X199652287Y-70201610D01*
X199745220Y-70019219D01*
X199808477Y-69824534D01*
X199840500Y-69622352D01*
X199840500Y-69417648D01*
X199808477Y-69215466D01*
X199745220Y-69020781D01*
X199745218Y-69020778D01*
X199745218Y-69020776D01*
X199711503Y-68954607D01*
X199652287Y-68838390D01*
X199644556Y-68827749D01*
X199531971Y-68672786D01*
X199387213Y-68528028D01*
X199221614Y-68407715D01*
X199215006Y-68404348D01*
X199128917Y-68360483D01*
X199078123Y-68312511D01*
X199061328Y-68244690D01*
X199083865Y-68178555D01*
X199128917Y-68139516D01*
X199221610Y-68092287D01*
X199242770Y-68076913D01*
X199387213Y-67971971D01*
X199387215Y-67971968D01*
X199387219Y-67971966D01*
X199531966Y-67827219D01*
X199531968Y-67827215D01*
X199531971Y-67827213D01*
X199584732Y-67754590D01*
X199652287Y-67661610D01*
X199745220Y-67479219D01*
X199808477Y-67284534D01*
X199840500Y-67082352D01*
X199840500Y-66877648D01*
X199808477Y-66675466D01*
X199745220Y-66480781D01*
X199745218Y-66480778D01*
X199745218Y-66480776D01*
X199711503Y-66414607D01*
X199652287Y-66298390D01*
X199644556Y-66287749D01*
X199531971Y-66132786D01*
X199387213Y-65988028D01*
X199221614Y-65867715D01*
X199215006Y-65864348D01*
X199128917Y-65820483D01*
X199078123Y-65772511D01*
X199061328Y-65704690D01*
X199083865Y-65638555D01*
X199128917Y-65599516D01*
X199221610Y-65552287D01*
X199242770Y-65536913D01*
X199387213Y-65431971D01*
X199387215Y-65431968D01*
X199387219Y-65431966D01*
X199531966Y-65287219D01*
X199531968Y-65287215D01*
X199531971Y-65287213D01*
X199584732Y-65214590D01*
X199652287Y-65121610D01*
X199745220Y-64939219D01*
X199808477Y-64744534D01*
X199840500Y-64542352D01*
X199840500Y-64337648D01*
X199808477Y-64135466D01*
X199745220Y-63940781D01*
X199745218Y-63940778D01*
X199745218Y-63940776D01*
X199711503Y-63874607D01*
X199652287Y-63758390D01*
X199644556Y-63747749D01*
X199531971Y-63592786D01*
X199387213Y-63448028D01*
X199221614Y-63327715D01*
X199215006Y-63324348D01*
X199128917Y-63280483D01*
X199078123Y-63232511D01*
X199061328Y-63164690D01*
X199083865Y-63098555D01*
X199128917Y-63059516D01*
X199221610Y-63012287D01*
X199242770Y-62996913D01*
X199387213Y-62891971D01*
X199387215Y-62891968D01*
X199387219Y-62891966D01*
X199531966Y-62747219D01*
X199531968Y-62747215D01*
X199531971Y-62747213D01*
X199584732Y-62674590D01*
X199652287Y-62581610D01*
X199745220Y-62399219D01*
X199757430Y-62361637D01*
X199796865Y-62303966D01*
X199861223Y-62276767D01*
X199930069Y-62288680D01*
X199963041Y-62312277D01*
X200131284Y-62480520D01*
X200131286Y-62480521D01*
X200131290Y-62480524D01*
X200268209Y-62559573D01*
X200268216Y-62559577D01*
X200420943Y-62600501D01*
X200420945Y-62600501D01*
X200586654Y-62600501D01*
X200586670Y-62600500D01*
X221563331Y-62600500D01*
X221563347Y-62600501D01*
X221570943Y-62600501D01*
X221729054Y-62600501D01*
X221729057Y-62600501D01*
X221881785Y-62559577D01*
X221931904Y-62530639D01*
X222018716Y-62480520D01*
X222130520Y-62368716D01*
X222130520Y-62368714D01*
X222140728Y-62358507D01*
X222140729Y-62358504D01*
X227144185Y-57355048D01*
X227205505Y-57321566D01*
X227275197Y-57326550D01*
X227331130Y-57368422D01*
X227349794Y-57404414D01*
X227355591Y-57422255D01*
X227434195Y-57576524D01*
X227535967Y-57716602D01*
X227658401Y-57839036D01*
X227741447Y-57899371D01*
X227784114Y-57954701D01*
X227790093Y-58024314D01*
X227757488Y-58086109D01*
X227741450Y-58100007D01*
X227658072Y-58160585D01*
X227535588Y-58283069D01*
X227535588Y-58283070D01*
X227535586Y-58283072D01*
X227491859Y-58343256D01*
X227433768Y-58423211D01*
X227355128Y-58577552D01*
X227301597Y-58742302D01*
X227274500Y-58913389D01*
X227274500Y-59086610D01*
X227301589Y-59257648D01*
X227301598Y-59257701D01*
X227355127Y-59422445D01*
X227433768Y-59576788D01*
X227535586Y-59716928D01*
X227658072Y-59839414D01*
X227675196Y-59851855D01*
X227741023Y-59899683D01*
X227783689Y-59955013D01*
X227789667Y-60024626D01*
X227757061Y-60086421D01*
X227741023Y-60100317D01*
X227658078Y-60160581D01*
X227658069Y-60160588D01*
X227535588Y-60283069D01*
X227535588Y-60283070D01*
X227535586Y-60283072D01*
X227500750Y-60331020D01*
X227433768Y-60423211D01*
X227355128Y-60577552D01*
X227301597Y-60742302D01*
X227274500Y-60913389D01*
X227274500Y-61086610D01*
X227301344Y-61256102D01*
X227301598Y-61257701D01*
X227355127Y-61422445D01*
X227433768Y-61576788D01*
X227535586Y-61716928D01*
X227658072Y-61839414D01*
X227798212Y-61941232D01*
X227952555Y-62019873D01*
X228117299Y-62073402D01*
X228288389Y-62100500D01*
X228288390Y-62100500D01*
X229011610Y-62100500D01*
X229011611Y-62100500D01*
X229182701Y-62073402D01*
X229347445Y-62019873D01*
X229501788Y-61941232D01*
X229641928Y-61839414D01*
X229764414Y-61716928D01*
X229866232Y-61576788D01*
X229944873Y-61422445D01*
X229998402Y-61257701D01*
X230025500Y-61086611D01*
X230025500Y-60913389D01*
X229998402Y-60742299D01*
X229944873Y-60577555D01*
X229866232Y-60423212D01*
X229764414Y-60283072D01*
X229641928Y-60160586D01*
X229558975Y-60100317D01*
X229516311Y-60044988D01*
X229510332Y-59975374D01*
X229542938Y-59913579D01*
X229558976Y-59899682D01*
X229641928Y-59839414D01*
X229764414Y-59716928D01*
X229866232Y-59576788D01*
X229944873Y-59422445D01*
X229998402Y-59257701D01*
X230025500Y-59086611D01*
X230025500Y-58913389D01*
X229998402Y-58742299D01*
X229944873Y-58577555D01*
X229866232Y-58423212D01*
X229764414Y-58283072D01*
X229641928Y-58160586D01*
X229558550Y-58100008D01*
X229515885Y-58044677D01*
X229509906Y-57975064D01*
X229542512Y-57913269D01*
X229558552Y-57899371D01*
X229641598Y-57839036D01*
X229764032Y-57716602D01*
X229865804Y-57576524D01*
X229944408Y-57422255D01*
X229997914Y-57257584D01*
X229999115Y-57250000D01*
X228930330Y-57250000D01*
X228950075Y-57230255D01*
X228999444Y-57144745D01*
X229025000Y-57049370D01*
X229025000Y-56950630D01*
X228999444Y-56855255D01*
X228950075Y-56769745D01*
X228930330Y-56750000D01*
X229999115Y-56750000D01*
X229999115Y-56749999D01*
X229997914Y-56742415D01*
X229944408Y-56577744D01*
X229865804Y-56423475D01*
X229764032Y-56283397D01*
X229641602Y-56160967D01*
X229558551Y-56100628D01*
X229515885Y-56045298D01*
X229509906Y-55975685D01*
X229542511Y-55913889D01*
X229558551Y-55899991D01*
X229641928Y-55839414D01*
X229764414Y-55716928D01*
X229866232Y-55576788D01*
X229944873Y-55422445D01*
X229998402Y-55257701D01*
X230025500Y-55086611D01*
X230025500Y-54913389D01*
X229998402Y-54742299D01*
X229962665Y-54632315D01*
X229960671Y-54562475D01*
X229992914Y-54506319D01*
X230194713Y-54304521D01*
X230194716Y-54304520D01*
X230306520Y-54192716D01*
X230356639Y-54105904D01*
X230385577Y-54055785D01*
X230426500Y-53903057D01*
X230426500Y-53744943D01*
X230426500Y-40315059D01*
X230426501Y-40315046D01*
X230426501Y-40146945D01*
X230426501Y-40146943D01*
X230385577Y-39994215D01*
X230330893Y-39899500D01*
X230306520Y-39857284D01*
X230194716Y-39745480D01*
X230194713Y-39745478D01*
X229942916Y-39493681D01*
X229909431Y-39432358D01*
X229912665Y-39367684D01*
X229948402Y-39257701D01*
X229975500Y-39086611D01*
X229975500Y-38913389D01*
X229948402Y-38742299D01*
X229894873Y-38577555D01*
X229816232Y-38423212D01*
X229714414Y-38283072D01*
X229591928Y-38160586D01*
X229508975Y-38100317D01*
X229466311Y-38044988D01*
X229460332Y-37975374D01*
X229492938Y-37913579D01*
X229508976Y-37899682D01*
X229591928Y-37839414D01*
X229714414Y-37716928D01*
X229816232Y-37576788D01*
X229894873Y-37422445D01*
X229948402Y-37257701D01*
X229975500Y-37086611D01*
X229975500Y-36913389D01*
X229948402Y-36742299D01*
X229894873Y-36577555D01*
X229816232Y-36423212D01*
X229714414Y-36283072D01*
X229606508Y-36175166D01*
X229573023Y-36113843D01*
X229578007Y-36044151D01*
X229619879Y-35988218D01*
X229629094Y-35981945D01*
X229693345Y-35942315D01*
X229817315Y-35818345D01*
X229909356Y-35669124D01*
X229909358Y-35669119D01*
X229964505Y-35502697D01*
X229964506Y-35502690D01*
X229974999Y-35399986D01*
X229975000Y-35399973D01*
X229975000Y-35250000D01*
X228880330Y-35250000D01*
X228900075Y-35230255D01*
X228949444Y-35144745D01*
X228975000Y-35049370D01*
X228975000Y-34950630D01*
X228949444Y-34855255D01*
X228900075Y-34769745D01*
X228880330Y-34750000D01*
X229974999Y-34750000D01*
X229974999Y-34600028D01*
X229974998Y-34600013D01*
X229964505Y-34497302D01*
X229909358Y-34330880D01*
X229909356Y-34330875D01*
X229817315Y-34181654D01*
X229693345Y-34057684D01*
X229544124Y-33965643D01*
X229544119Y-33965641D01*
X229377697Y-33910494D01*
X229377690Y-33910493D01*
X229274986Y-33900000D01*
X228850000Y-33900000D01*
X228850000Y-34719670D01*
X228830255Y-34699925D01*
X228744745Y-34650556D01*
X228649370Y-34625000D01*
X228550630Y-34625000D01*
X228455255Y-34650556D01*
X228369745Y-34699925D01*
X228350000Y-34719670D01*
X228350000Y-33900000D01*
X227925028Y-33900000D01*
X227925012Y-33900001D01*
X227822302Y-33910494D01*
X227655880Y-33965641D01*
X227655875Y-33965643D01*
X227506654Y-34057684D01*
X227382684Y-34181654D01*
X227290643Y-34330875D01*
X227290641Y-34330880D01*
X227235494Y-34497302D01*
X227235493Y-34497309D01*
X227225000Y-34600013D01*
X227225000Y-34750000D01*
X228319670Y-34750000D01*
X228299925Y-34769745D01*
X228250556Y-34855255D01*
X228225000Y-34950630D01*
X228225000Y-35049370D01*
X228250556Y-35144745D01*
X228299925Y-35230255D01*
X228319670Y-35250000D01*
X227225001Y-35250000D01*
X227225001Y-35399986D01*
X227235494Y-35502697D01*
X227290641Y-35669119D01*
X227290643Y-35669124D01*
X227382684Y-35818345D01*
X227506656Y-35942317D01*
X227570906Y-35981946D01*
X227617631Y-36033893D01*
X227628854Y-36102856D01*
X227601011Y-36166938D01*
X227593492Y-36175166D01*
X227485585Y-36283073D01*
X227383768Y-36423211D01*
X227305128Y-36577552D01*
X227251597Y-36742302D01*
X227243264Y-36794918D01*
X227224500Y-36913389D01*
X227224500Y-37086611D01*
X227251598Y-37257701D01*
X227305127Y-37422445D01*
X227383768Y-37576788D01*
X227485586Y-37716928D01*
X227608072Y-37839414D01*
X227608078Y-37839418D01*
X227691023Y-37899683D01*
X227733689Y-37955013D01*
X227739667Y-38024626D01*
X227707061Y-38086421D01*
X227691023Y-38100317D01*
X227608078Y-38160581D01*
X227608069Y-38160588D01*
X227485588Y-38283069D01*
X227485588Y-38283070D01*
X227485586Y-38283072D01*
X227441859Y-38343256D01*
X227383768Y-38423211D01*
X227305128Y-38577552D01*
X227251597Y-38742302D01*
X227224500Y-38913389D01*
X227224500Y-39086610D01*
X227233328Y-39142352D01*
X227251598Y-39257701D01*
X227305127Y-39422445D01*
X227383768Y-39576788D01*
X227485586Y-39716928D01*
X227608072Y-39839414D01*
X227608078Y-39839418D01*
X227691023Y-39899683D01*
X227733689Y-39955013D01*
X227739667Y-40024626D01*
X227707061Y-40086421D01*
X227691023Y-40100317D01*
X227608078Y-40160581D01*
X227608069Y-40160588D01*
X227485588Y-40283069D01*
X227485588Y-40283070D01*
X227485586Y-40283072D01*
X227462346Y-40315059D01*
X227383768Y-40423211D01*
X227305128Y-40577552D01*
X227251597Y-40742302D01*
X227226876Y-40898386D01*
X227224500Y-40913389D01*
X227224500Y-41086611D01*
X227251598Y-41257701D01*
X227303275Y-41416746D01*
X227305128Y-41422447D01*
X227383768Y-41576788D01*
X227485586Y-41716928D01*
X227608072Y-41839414D01*
X227608078Y-41839418D01*
X227691023Y-41899683D01*
X227733689Y-41955013D01*
X227739667Y-42024626D01*
X227707061Y-42086421D01*
X227691023Y-42100317D01*
X227608078Y-42160581D01*
X227608069Y-42160588D01*
X227485588Y-42283069D01*
X227485588Y-42283070D01*
X227485586Y-42283072D01*
X227473301Y-42299981D01*
X227383768Y-42423211D01*
X227305128Y-42577552D01*
X227251597Y-42742302D01*
X227226375Y-42901551D01*
X227224500Y-42913389D01*
X227224500Y-43086611D01*
X227251598Y-43257701D01*
X227305127Y-43422445D01*
X227383768Y-43576788D01*
X227485586Y-43716928D01*
X227608072Y-43839414D01*
X227608078Y-43839418D01*
X227691023Y-43899683D01*
X227733689Y-43955013D01*
X227739667Y-44024626D01*
X227707061Y-44086421D01*
X227691023Y-44100317D01*
X227608078Y-44160581D01*
X227608069Y-44160588D01*
X227485588Y-44283069D01*
X227485588Y-44283070D01*
X227485586Y-44283072D01*
X227441859Y-44343256D01*
X227383768Y-44423211D01*
X227305128Y-44577552D01*
X227251597Y-44742302D01*
X227224500Y-44913389D01*
X227224500Y-45086611D01*
X227251598Y-45257701D01*
X227305127Y-45422445D01*
X227383768Y-45576788D01*
X227485586Y-45716928D01*
X227608072Y-45839414D01*
X227748212Y-45941232D01*
X227902555Y-46019873D01*
X228067299Y-46073402D01*
X228238389Y-46100500D01*
X228238390Y-46100500D01*
X228961610Y-46100500D01*
X228961611Y-46100500D01*
X229082102Y-46081416D01*
X229151396Y-46090371D01*
X229204848Y-46135367D01*
X229225487Y-46202118D01*
X229225500Y-46203889D01*
X229225500Y-49776000D01*
X229205815Y-49843039D01*
X229153011Y-49888794D01*
X229101500Y-49900000D01*
X228900000Y-49900000D01*
X228900000Y-50719670D01*
X228880255Y-50699925D01*
X228794745Y-50650556D01*
X228699370Y-50625000D01*
X228600630Y-50625000D01*
X228505255Y-50650556D01*
X228419745Y-50699925D01*
X228400000Y-50719670D01*
X228400000Y-49900000D01*
X227975028Y-49900000D01*
X227975012Y-49900001D01*
X227872302Y-49910494D01*
X227705880Y-49965641D01*
X227705875Y-49965643D01*
X227556654Y-50057684D01*
X227432684Y-50181654D01*
X227340643Y-50330875D01*
X227340641Y-50330880D01*
X227285494Y-50497302D01*
X227285493Y-50497309D01*
X227275000Y-50600013D01*
X227275000Y-50750000D01*
X228369670Y-50750000D01*
X228349925Y-50769745D01*
X228300556Y-50855255D01*
X228275000Y-50950630D01*
X228275000Y-51049370D01*
X228300556Y-51144745D01*
X228349925Y-51230255D01*
X228369670Y-51250000D01*
X227275001Y-51250000D01*
X227275001Y-51399986D01*
X227285494Y-51502697D01*
X227340641Y-51669119D01*
X227340643Y-51669124D01*
X227432684Y-51818345D01*
X227556656Y-51942317D01*
X227620906Y-51981946D01*
X227667631Y-52033893D01*
X227678854Y-52102856D01*
X227651011Y-52166938D01*
X227643492Y-52175166D01*
X227535585Y-52283073D01*
X227433768Y-52423211D01*
X227355128Y-52577552D01*
X227301597Y-52742302D01*
X227290446Y-52812708D01*
X227274500Y-52913389D01*
X227274500Y-53086611D01*
X227301598Y-53257701D01*
X227355127Y-53422445D01*
X227433768Y-53576788D01*
X227535586Y-53716928D01*
X227658072Y-53839414D01*
X227658078Y-53839418D01*
X227741023Y-53899683D01*
X227783689Y-53955013D01*
X227789667Y-54024626D01*
X227757061Y-54086421D01*
X227741023Y-54100317D01*
X227658078Y-54160581D01*
X227658069Y-54160588D01*
X227535588Y-54283069D01*
X227535588Y-54283070D01*
X227535586Y-54283072D01*
X227512588Y-54314726D01*
X227433768Y-54423211D01*
X227355128Y-54577552D01*
X227301597Y-54742302D01*
X227274500Y-54913389D01*
X227274500Y-55086610D01*
X227301597Y-55257698D01*
X227337333Y-55367681D01*
X227339328Y-55437522D01*
X227307083Y-55493680D01*
X222386778Y-60413985D01*
X222325455Y-60447470D01*
X222255763Y-60442486D01*
X222199830Y-60400614D01*
X222198779Y-60399190D01*
X222193804Y-60392343D01*
X222114414Y-60283072D01*
X221991928Y-60160586D01*
X221908975Y-60100317D01*
X221866311Y-60044988D01*
X221860332Y-59975374D01*
X221892938Y-59913579D01*
X221908976Y-59899682D01*
X221991928Y-59839414D01*
X222114414Y-59716928D01*
X222216232Y-59576788D01*
X222294873Y-59422445D01*
X222348402Y-59257701D01*
X222375500Y-59086611D01*
X222375500Y-58913389D01*
X222348402Y-58742299D01*
X222294873Y-58577555D01*
X222216232Y-58423212D01*
X222114414Y-58283072D01*
X221991928Y-58160586D01*
X221908550Y-58100008D01*
X221865885Y-58044677D01*
X221859906Y-57975064D01*
X221892512Y-57913269D01*
X221908552Y-57899371D01*
X221991598Y-57839036D01*
X222114032Y-57716602D01*
X222215804Y-57576524D01*
X222294408Y-57422255D01*
X222347914Y-57257584D01*
X222349115Y-57250000D01*
X221280330Y-57250000D01*
X221300075Y-57230255D01*
X221349444Y-57144745D01*
X221375000Y-57049370D01*
X221375000Y-56950630D01*
X221349444Y-56855255D01*
X221300075Y-56769745D01*
X221280330Y-56750000D01*
X222349115Y-56750000D01*
X222349115Y-56749999D01*
X222347914Y-56742415D01*
X222294408Y-56577744D01*
X222215804Y-56423475D01*
X222114032Y-56283397D01*
X221991602Y-56160967D01*
X221908551Y-56100628D01*
X221865885Y-56045298D01*
X221859906Y-55975685D01*
X221892511Y-55913889D01*
X221908551Y-55899991D01*
X221991928Y-55839414D01*
X222114414Y-55716928D01*
X222216232Y-55576788D01*
X222294873Y-55422445D01*
X222348402Y-55257701D01*
X222375500Y-55086611D01*
X222375500Y-54913389D01*
X222348402Y-54742299D01*
X222312665Y-54632315D01*
X222310671Y-54562475D01*
X222342914Y-54506319D01*
X222858506Y-53990728D01*
X222858511Y-53990724D01*
X222868714Y-53980520D01*
X222868716Y-53980520D01*
X222980520Y-53868716D01*
X223059577Y-53731784D01*
X223095320Y-53598390D01*
X223100500Y-53579058D01*
X223100500Y-53420943D01*
X223100500Y-40539060D01*
X223100501Y-40539047D01*
X223100501Y-40370944D01*
X223085594Y-40315311D01*
X223059577Y-40218216D01*
X223026302Y-40160581D01*
X222980524Y-40081290D01*
X222980518Y-40081282D01*
X222392916Y-39493681D01*
X222359431Y-39432358D01*
X222362665Y-39367684D01*
X222398402Y-39257701D01*
X222425500Y-39086611D01*
X222425500Y-38913389D01*
X222398402Y-38742299D01*
X222344873Y-38577555D01*
X222266232Y-38423212D01*
X222164414Y-38283072D01*
X222041928Y-38160586D01*
X221958975Y-38100317D01*
X221916311Y-38044988D01*
X221910332Y-37975374D01*
X221942938Y-37913579D01*
X221958976Y-37899682D01*
X222041928Y-37839414D01*
X222164414Y-37716928D01*
X222266232Y-37576788D01*
X222344873Y-37422445D01*
X222398402Y-37257701D01*
X222425500Y-37086611D01*
X222425500Y-36913389D01*
X222398402Y-36742299D01*
X222344873Y-36577555D01*
X222266232Y-36423212D01*
X222164414Y-36283072D01*
X222056508Y-36175166D01*
X222023023Y-36113843D01*
X222028007Y-36044151D01*
X222069879Y-35988218D01*
X222079094Y-35981945D01*
X222143345Y-35942315D01*
X222267315Y-35818345D01*
X222359356Y-35669124D01*
X222359358Y-35669119D01*
X222414505Y-35502697D01*
X222414506Y-35502690D01*
X222424999Y-35399986D01*
X222425000Y-35399973D01*
X222425000Y-35250000D01*
X221330330Y-35250000D01*
X221350075Y-35230255D01*
X221399444Y-35144745D01*
X221425000Y-35049370D01*
X221425000Y-34950630D01*
X221399444Y-34855255D01*
X221350075Y-34769745D01*
X221330330Y-34750000D01*
X222424999Y-34750000D01*
X222424999Y-34600029D01*
X222424998Y-34600012D01*
X222414505Y-34497302D01*
X222359358Y-34330880D01*
X222359356Y-34330875D01*
X222267315Y-34181654D01*
X222143345Y-34057684D01*
X221994124Y-33965643D01*
X221994119Y-33965641D01*
X221827697Y-33910494D01*
X221827690Y-33910493D01*
X221724986Y-33900000D01*
X221300000Y-33900000D01*
X221300000Y-34719670D01*
X221280255Y-34699925D01*
X221194745Y-34650556D01*
X221099370Y-34625000D01*
X221000630Y-34625000D01*
X220905255Y-34650556D01*
X220819745Y-34699925D01*
X220800000Y-34719670D01*
X220800000Y-33900000D01*
X220375028Y-33900000D01*
X220375012Y-33900001D01*
X220272302Y-33910494D01*
X220105880Y-33965641D01*
X220105875Y-33965643D01*
X219956654Y-34057684D01*
X219832684Y-34181654D01*
X219740643Y-34330875D01*
X219740641Y-34330880D01*
X219685494Y-34497302D01*
X219685493Y-34497309D01*
X219675000Y-34600013D01*
X219675000Y-34750000D01*
X220769670Y-34750000D01*
X220749925Y-34769745D01*
X220700556Y-34855255D01*
X220675000Y-34950630D01*
X220675000Y-35049370D01*
X220700556Y-35144745D01*
X220749925Y-35230255D01*
X220769670Y-35250000D01*
X219675001Y-35250000D01*
X219675001Y-35399986D01*
X219685494Y-35502697D01*
X219740641Y-35669119D01*
X219740643Y-35669124D01*
X219832684Y-35818345D01*
X219956656Y-35942317D01*
X220020906Y-35981946D01*
X220067631Y-36033893D01*
X220078854Y-36102856D01*
X220051011Y-36166938D01*
X220043492Y-36175166D01*
X219935585Y-36283073D01*
X219833768Y-36423211D01*
X219755128Y-36577552D01*
X219701597Y-36742302D01*
X219693264Y-36794918D01*
X219674500Y-36913389D01*
X219674500Y-37086611D01*
X219701598Y-37257701D01*
X219755127Y-37422445D01*
X219833768Y-37576788D01*
X219935586Y-37716928D01*
X220058072Y-37839414D01*
X220058078Y-37839418D01*
X220141023Y-37899683D01*
X220183689Y-37955013D01*
X220189667Y-38024626D01*
X220157061Y-38086421D01*
X220141023Y-38100317D01*
X220058078Y-38160581D01*
X220058069Y-38160588D01*
X219935588Y-38283069D01*
X219935588Y-38283070D01*
X219935586Y-38283072D01*
X219891859Y-38343256D01*
X219833768Y-38423211D01*
X219755128Y-38577552D01*
X219701597Y-38742302D01*
X219674500Y-38913389D01*
X219674500Y-39086610D01*
X219683328Y-39142352D01*
X219701598Y-39257701D01*
X219755127Y-39422445D01*
X219833768Y-39576788D01*
X219935586Y-39716928D01*
X220058072Y-39839414D01*
X220058078Y-39839418D01*
X220141023Y-39899683D01*
X220183689Y-39955013D01*
X220189667Y-40024626D01*
X220157061Y-40086421D01*
X220141023Y-40100317D01*
X220058078Y-40160581D01*
X220058069Y-40160588D01*
X219935588Y-40283069D01*
X219935588Y-40283070D01*
X219935586Y-40283072D01*
X219912346Y-40315059D01*
X219833768Y-40423211D01*
X219755128Y-40577552D01*
X219701597Y-40742302D01*
X219676876Y-40898386D01*
X219674500Y-40913389D01*
X219674500Y-41086611D01*
X219701598Y-41257701D01*
X219753275Y-41416746D01*
X219755128Y-41422447D01*
X219833768Y-41576788D01*
X219935586Y-41716928D01*
X220058072Y-41839414D01*
X220058078Y-41839418D01*
X220141023Y-41899683D01*
X220183689Y-41955013D01*
X220189667Y-42024626D01*
X220157061Y-42086421D01*
X220141023Y-42100317D01*
X220058078Y-42160581D01*
X220058069Y-42160588D01*
X219935588Y-42283069D01*
X219935588Y-42283070D01*
X219935586Y-42283072D01*
X219923301Y-42299981D01*
X219833768Y-42423211D01*
X219755128Y-42577552D01*
X219701597Y-42742302D01*
X219676375Y-42901551D01*
X219674500Y-42913389D01*
X219674500Y-43086611D01*
X219701598Y-43257701D01*
X219755127Y-43422445D01*
X219833768Y-43576788D01*
X219935586Y-43716928D01*
X220058072Y-43839414D01*
X220058078Y-43839418D01*
X220141023Y-43899683D01*
X220183689Y-43955013D01*
X220189667Y-44024626D01*
X220157061Y-44086421D01*
X220141023Y-44100317D01*
X220058078Y-44160581D01*
X220058069Y-44160588D01*
X219935588Y-44283069D01*
X219935588Y-44283070D01*
X219935586Y-44283072D01*
X219891859Y-44343256D01*
X219833768Y-44423211D01*
X219755128Y-44577552D01*
X219701597Y-44742302D01*
X219674500Y-44913389D01*
X219674500Y-45086611D01*
X219701598Y-45257701D01*
X219755127Y-45422445D01*
X219833768Y-45576788D01*
X219935586Y-45716928D01*
X220058072Y-45839414D01*
X220198212Y-45941232D01*
X220352555Y-46019873D01*
X220517299Y-46073402D01*
X220688389Y-46100500D01*
X220688390Y-46100500D01*
X221411610Y-46100500D01*
X221411611Y-46100500D01*
X221582701Y-46073402D01*
X221737184Y-46023206D01*
X221807023Y-46021212D01*
X221866856Y-46057292D01*
X221897684Y-46119993D01*
X221899500Y-46141138D01*
X221899500Y-49785624D01*
X221879815Y-49852663D01*
X221827011Y-49898418D01*
X221762897Y-49908982D01*
X221674986Y-49900000D01*
X221250000Y-49900000D01*
X221250000Y-50719670D01*
X221230255Y-50699925D01*
X221144745Y-50650556D01*
X221049370Y-50625000D01*
X220950630Y-50625000D01*
X220855255Y-50650556D01*
X220769745Y-50699925D01*
X220750000Y-50719670D01*
X220750000Y-49900000D01*
X220325028Y-49900000D01*
X220325012Y-49900001D01*
X220222302Y-49910494D01*
X220055880Y-49965641D01*
X220055875Y-49965643D01*
X219906654Y-50057684D01*
X219782684Y-50181654D01*
X219690643Y-50330875D01*
X219690641Y-50330880D01*
X219635494Y-50497302D01*
X219635493Y-50497309D01*
X219625000Y-50600013D01*
X219625000Y-50750000D01*
X220719670Y-50750000D01*
X220699925Y-50769745D01*
X220650556Y-50855255D01*
X220625000Y-50950630D01*
X220625000Y-51049370D01*
X220650556Y-51144745D01*
X220699925Y-51230255D01*
X220719670Y-51250000D01*
X219625001Y-51250000D01*
X219625001Y-51399986D01*
X219635494Y-51502697D01*
X219690641Y-51669119D01*
X219690643Y-51669124D01*
X219782684Y-51818345D01*
X219906656Y-51942317D01*
X219970906Y-51981946D01*
X220017631Y-52033893D01*
X220028854Y-52102856D01*
X220001011Y-52166938D01*
X219993492Y-52175166D01*
X219885585Y-52283073D01*
X219783768Y-52423211D01*
X219705128Y-52577552D01*
X219651597Y-52742302D01*
X219640446Y-52812708D01*
X219624500Y-52913389D01*
X219624500Y-53086611D01*
X219651598Y-53257701D01*
X219705127Y-53422445D01*
X219783768Y-53576788D01*
X219885586Y-53716928D01*
X220008072Y-53839414D01*
X220008078Y-53839418D01*
X220091023Y-53899683D01*
X220133689Y-53955013D01*
X220139667Y-54024626D01*
X220107061Y-54086421D01*
X220091023Y-54100317D01*
X220008078Y-54160581D01*
X220008069Y-54160588D01*
X219885588Y-54283069D01*
X219885588Y-54283070D01*
X219885586Y-54283072D01*
X219862588Y-54314726D01*
X219783768Y-54423211D01*
X219705128Y-54577552D01*
X219651597Y-54742302D01*
X219624500Y-54913389D01*
X219624500Y-55086610D01*
X219651597Y-55257698D01*
X219687333Y-55367681D01*
X219689328Y-55437522D01*
X219657083Y-55493680D01*
X215688584Y-59462181D01*
X215627261Y-59495666D01*
X215600903Y-59498500D01*
X214940832Y-59498500D01*
X214873793Y-59478815D01*
X214828038Y-59426011D01*
X214818094Y-59356853D01*
X214822898Y-59336192D01*
X214848402Y-59257701D01*
X214875500Y-59086611D01*
X214875500Y-58913389D01*
X214848402Y-58742299D01*
X214794873Y-58577555D01*
X214716232Y-58423212D01*
X214614414Y-58283072D01*
X214491928Y-58160586D01*
X214408550Y-58100008D01*
X214365885Y-58044677D01*
X214359906Y-57975064D01*
X214392512Y-57913269D01*
X214408552Y-57899371D01*
X214491598Y-57839036D01*
X214614032Y-57716602D01*
X214715804Y-57576524D01*
X214794408Y-57422255D01*
X214847914Y-57257584D01*
X214849115Y-57250000D01*
X213780330Y-57250000D01*
X213800075Y-57230255D01*
X213849444Y-57144745D01*
X213875000Y-57049370D01*
X213875000Y-56950630D01*
X213849444Y-56855255D01*
X213800075Y-56769745D01*
X213780330Y-56750000D01*
X214849115Y-56750000D01*
X214849115Y-56749999D01*
X214847914Y-56742415D01*
X214794408Y-56577744D01*
X214715804Y-56423475D01*
X214614032Y-56283397D01*
X214491602Y-56160967D01*
X214408551Y-56100628D01*
X214365885Y-56045298D01*
X214359906Y-55975685D01*
X214392511Y-55913889D01*
X214408551Y-55899991D01*
X214491928Y-55839414D01*
X214614414Y-55716928D01*
X214716232Y-55576788D01*
X214794873Y-55422445D01*
X214848402Y-55257701D01*
X214875500Y-55086611D01*
X214875500Y-54913389D01*
X214848402Y-54742299D01*
X214812665Y-54632315D01*
X214810671Y-54562475D01*
X214842914Y-54506319D01*
X215044713Y-54304521D01*
X215044716Y-54304520D01*
X215156520Y-54192716D01*
X215206639Y-54105904D01*
X215235577Y-54055785D01*
X215276500Y-53903057D01*
X215276500Y-53744943D01*
X215276500Y-40096943D01*
X215263957Y-40050130D01*
X215235577Y-39944215D01*
X215185387Y-39857284D01*
X215156520Y-39807284D01*
X215044716Y-39695480D01*
X215044715Y-39695479D01*
X215040385Y-39691149D01*
X215040374Y-39691139D01*
X214842916Y-39493681D01*
X214809431Y-39432358D01*
X214812665Y-39367684D01*
X214848402Y-39257701D01*
X214875500Y-39086611D01*
X214875500Y-38913389D01*
X214848402Y-38742299D01*
X214794873Y-38577555D01*
X214716232Y-38423212D01*
X214614414Y-38283072D01*
X214491928Y-38160586D01*
X214408975Y-38100317D01*
X214366311Y-38044988D01*
X214360332Y-37975374D01*
X214392938Y-37913579D01*
X214408976Y-37899682D01*
X214491928Y-37839414D01*
X214614414Y-37716928D01*
X214716232Y-37576788D01*
X214794873Y-37422445D01*
X214848402Y-37257701D01*
X214875500Y-37086611D01*
X214875500Y-36913389D01*
X214848402Y-36742299D01*
X214794873Y-36577555D01*
X214716232Y-36423212D01*
X214614414Y-36283072D01*
X214506508Y-36175166D01*
X214473023Y-36113843D01*
X214478007Y-36044151D01*
X214519879Y-35988218D01*
X214529094Y-35981945D01*
X214593345Y-35942315D01*
X214717315Y-35818345D01*
X214809356Y-35669124D01*
X214809358Y-35669119D01*
X214864505Y-35502697D01*
X214864506Y-35502690D01*
X214874999Y-35399986D01*
X214875000Y-35399973D01*
X214875000Y-35250000D01*
X213780330Y-35250000D01*
X213800075Y-35230255D01*
X213849444Y-35144745D01*
X213875000Y-35049370D01*
X213875000Y-34950630D01*
X213849444Y-34855255D01*
X213800075Y-34769745D01*
X213780330Y-34750000D01*
X214874999Y-34750000D01*
X214874999Y-34600029D01*
X214874998Y-34600012D01*
X214864505Y-34497302D01*
X214809358Y-34330880D01*
X214809356Y-34330875D01*
X214717315Y-34181654D01*
X214593345Y-34057684D01*
X214444124Y-33965643D01*
X214444119Y-33965641D01*
X214277697Y-33910494D01*
X214277690Y-33910493D01*
X214174986Y-33900000D01*
X213750000Y-33900000D01*
X213750000Y-34719670D01*
X213730255Y-34699925D01*
X213644745Y-34650556D01*
X213549370Y-34625000D01*
X213450630Y-34625000D01*
X213355255Y-34650556D01*
X213269745Y-34699925D01*
X213250000Y-34719670D01*
X213250000Y-33900000D01*
X212825028Y-33900000D01*
X212825012Y-33900001D01*
X212722302Y-33910494D01*
X212555880Y-33965641D01*
X212555875Y-33965643D01*
X212406654Y-34057684D01*
X212282684Y-34181654D01*
X212190643Y-34330875D01*
X212190641Y-34330880D01*
X212135494Y-34497302D01*
X212135493Y-34497309D01*
X212125000Y-34600013D01*
X212125000Y-34750000D01*
X213219670Y-34750000D01*
X213199925Y-34769745D01*
X213150556Y-34855255D01*
X213125000Y-34950630D01*
X213125000Y-35049370D01*
X213150556Y-35144745D01*
X213199925Y-35230255D01*
X213219670Y-35250000D01*
X212125001Y-35250000D01*
X212125001Y-35399986D01*
X212135494Y-35502697D01*
X212190641Y-35669119D01*
X212190643Y-35669124D01*
X212282684Y-35818345D01*
X212406656Y-35942317D01*
X212470906Y-35981946D01*
X212517631Y-36033893D01*
X212528854Y-36102856D01*
X212501011Y-36166938D01*
X212493492Y-36175166D01*
X212385585Y-36283073D01*
X212283768Y-36423211D01*
X212205128Y-36577552D01*
X212151597Y-36742302D01*
X212143264Y-36794918D01*
X212124500Y-36913389D01*
X212124500Y-37086611D01*
X212151598Y-37257701D01*
X212205127Y-37422445D01*
X212283768Y-37576788D01*
X212385586Y-37716928D01*
X212508072Y-37839414D01*
X212508078Y-37839418D01*
X212591023Y-37899683D01*
X212633689Y-37955013D01*
X212639667Y-38024626D01*
X212607061Y-38086421D01*
X212591023Y-38100317D01*
X212508078Y-38160581D01*
X212508069Y-38160588D01*
X212385588Y-38283069D01*
X212385588Y-38283070D01*
X212385586Y-38283072D01*
X212341859Y-38343256D01*
X212283768Y-38423211D01*
X212205128Y-38577552D01*
X212151597Y-38742302D01*
X212124500Y-38913389D01*
X212124500Y-39086610D01*
X212133328Y-39142352D01*
X212151598Y-39257701D01*
X212205127Y-39422445D01*
X212283768Y-39576788D01*
X212385586Y-39716928D01*
X212508072Y-39839414D01*
X212508078Y-39839418D01*
X212591023Y-39899683D01*
X212633689Y-39955013D01*
X212639667Y-40024626D01*
X212607061Y-40086421D01*
X212591023Y-40100317D01*
X212508078Y-40160581D01*
X212508069Y-40160588D01*
X212385588Y-40283069D01*
X212385588Y-40283070D01*
X212385586Y-40283072D01*
X212362346Y-40315059D01*
X212283768Y-40423211D01*
X212205128Y-40577552D01*
X212151597Y-40742302D01*
X212126876Y-40898386D01*
X212124500Y-40913389D01*
X212124500Y-41086611D01*
X212151598Y-41257701D01*
X212203275Y-41416746D01*
X212205128Y-41422447D01*
X212283768Y-41576788D01*
X212385586Y-41716928D01*
X212508072Y-41839414D01*
X212508078Y-41839418D01*
X212591023Y-41899683D01*
X212633689Y-41955013D01*
X212639667Y-42024626D01*
X212607061Y-42086421D01*
X212591023Y-42100317D01*
X212508078Y-42160581D01*
X212508069Y-42160588D01*
X212385588Y-42283069D01*
X212385588Y-42283070D01*
X212385586Y-42283072D01*
X212373301Y-42299981D01*
X212283768Y-42423211D01*
X212205128Y-42577552D01*
X212151597Y-42742302D01*
X212126375Y-42901551D01*
X212124500Y-42913389D01*
X212124500Y-43086611D01*
X212151598Y-43257701D01*
X212205127Y-43422445D01*
X212283768Y-43576788D01*
X212385586Y-43716928D01*
X212508072Y-43839414D01*
X212508078Y-43839418D01*
X212591023Y-43899683D01*
X212633689Y-43955013D01*
X212639667Y-44024626D01*
X212607061Y-44086421D01*
X212591023Y-44100317D01*
X212508078Y-44160581D01*
X212508069Y-44160588D01*
X212385588Y-44283069D01*
X212385588Y-44283070D01*
X212385586Y-44283072D01*
X212341859Y-44343256D01*
X212283768Y-44423211D01*
X212205128Y-44577552D01*
X212151597Y-44742302D01*
X212124500Y-44913389D01*
X212124500Y-45086611D01*
X212151598Y-45257701D01*
X212205127Y-45422445D01*
X212283768Y-45576788D01*
X212385586Y-45716928D01*
X212508072Y-45839414D01*
X212648212Y-45941232D01*
X212802555Y-46019873D01*
X212967299Y-46073402D01*
X213138389Y-46100500D01*
X213138390Y-46100500D01*
X213861610Y-46100500D01*
X213861611Y-46100500D01*
X213932103Y-46089335D01*
X214001395Y-46098289D01*
X214054847Y-46143286D01*
X214075487Y-46210037D01*
X214075500Y-46211808D01*
X214075500Y-49776000D01*
X214055815Y-49843039D01*
X214003011Y-49888794D01*
X213951500Y-49900000D01*
X213750000Y-49900000D01*
X213750000Y-50719670D01*
X213730255Y-50699925D01*
X213644745Y-50650556D01*
X213549370Y-50625000D01*
X213450630Y-50625000D01*
X213355255Y-50650556D01*
X213269745Y-50699925D01*
X213250000Y-50719670D01*
X213250000Y-49900000D01*
X212825028Y-49900000D01*
X212825012Y-49900001D01*
X212722302Y-49910494D01*
X212555880Y-49965641D01*
X212555875Y-49965643D01*
X212406654Y-50057684D01*
X212282684Y-50181654D01*
X212190643Y-50330875D01*
X212190641Y-50330880D01*
X212135494Y-50497302D01*
X212135493Y-50497309D01*
X212125000Y-50600013D01*
X212125000Y-50750000D01*
X213219670Y-50750000D01*
X213199925Y-50769745D01*
X213150556Y-50855255D01*
X213125000Y-50950630D01*
X213125000Y-51049370D01*
X213150556Y-51144745D01*
X213199925Y-51230255D01*
X213219670Y-51250000D01*
X212125001Y-51250000D01*
X212125001Y-51399986D01*
X212135494Y-51502697D01*
X212190641Y-51669119D01*
X212190643Y-51669124D01*
X212282684Y-51818345D01*
X212406656Y-51942317D01*
X212470906Y-51981946D01*
X212517631Y-52033893D01*
X212528854Y-52102856D01*
X212501011Y-52166938D01*
X212493492Y-52175166D01*
X212385585Y-52283073D01*
X212283768Y-52423211D01*
X212205128Y-52577552D01*
X212151597Y-52742302D01*
X212140446Y-52812708D01*
X212124500Y-52913389D01*
X212124500Y-53086611D01*
X212151598Y-53257701D01*
X212205127Y-53422445D01*
X212283768Y-53576788D01*
X212385586Y-53716928D01*
X212508072Y-53839414D01*
X212508078Y-53839418D01*
X212591023Y-53899683D01*
X212633689Y-53955013D01*
X212639667Y-54024626D01*
X212607061Y-54086421D01*
X212591023Y-54100317D01*
X212508078Y-54160581D01*
X212508069Y-54160588D01*
X212385588Y-54283069D01*
X212385588Y-54283070D01*
X212385586Y-54283072D01*
X212362588Y-54314726D01*
X212283768Y-54423211D01*
X212205128Y-54577552D01*
X212151597Y-54742302D01*
X212124500Y-54913389D01*
X212124500Y-55086610D01*
X212151597Y-55257698D01*
X212187333Y-55367681D01*
X212189328Y-55437522D01*
X212157083Y-55493680D01*
X210386584Y-57264181D01*
X210325261Y-57297666D01*
X210298903Y-57300500D01*
X207449411Y-57300500D01*
X207382372Y-57280815D01*
X207355122Y-57257033D01*
X207349115Y-57250000D01*
X206280330Y-57250000D01*
X206300075Y-57230255D01*
X206349444Y-57144745D01*
X206375000Y-57049370D01*
X206375000Y-56950630D01*
X206349444Y-56855255D01*
X206300075Y-56769745D01*
X206280330Y-56750000D01*
X207349115Y-56750000D01*
X207349115Y-56749999D01*
X207347914Y-56742415D01*
X207294408Y-56577744D01*
X207215804Y-56423475D01*
X207114032Y-56283397D01*
X206991602Y-56160967D01*
X206908551Y-56100628D01*
X206865885Y-56045298D01*
X206859906Y-55975685D01*
X206892511Y-55913889D01*
X206908551Y-55899991D01*
X206991928Y-55839414D01*
X207114414Y-55716928D01*
X207216232Y-55576788D01*
X207294873Y-55422445D01*
X207348402Y-55257701D01*
X207375500Y-55086611D01*
X207375500Y-54913389D01*
X207348402Y-54742299D01*
X207312665Y-54632315D01*
X207310671Y-54562475D01*
X207342914Y-54506319D01*
X207544713Y-54304521D01*
X207544716Y-54304520D01*
X207656520Y-54192716D01*
X207706639Y-54105904D01*
X207735577Y-54055785D01*
X207776500Y-53903057D01*
X207776500Y-53744943D01*
X207776500Y-40096943D01*
X207763957Y-40050130D01*
X207735577Y-39944215D01*
X207685387Y-39857284D01*
X207656520Y-39807284D01*
X207544716Y-39695480D01*
X207544715Y-39695479D01*
X207540385Y-39691149D01*
X207540374Y-39691139D01*
X207342916Y-39493681D01*
X207309431Y-39432358D01*
X207312665Y-39367684D01*
X207348402Y-39257701D01*
X207375500Y-39086611D01*
X207375500Y-38913389D01*
X207348402Y-38742299D01*
X207294873Y-38577555D01*
X207216232Y-38423212D01*
X207114414Y-38283072D01*
X206991928Y-38160586D01*
X206908975Y-38100317D01*
X206866311Y-38044988D01*
X206860332Y-37975374D01*
X206892938Y-37913579D01*
X206908976Y-37899682D01*
X206991928Y-37839414D01*
X207114414Y-37716928D01*
X207216232Y-37576788D01*
X207294873Y-37422445D01*
X207348402Y-37257701D01*
X207375500Y-37086611D01*
X207375500Y-36913389D01*
X207348402Y-36742299D01*
X207294873Y-36577555D01*
X207216232Y-36423212D01*
X207114414Y-36283072D01*
X207006508Y-36175166D01*
X206973023Y-36113843D01*
X206978007Y-36044151D01*
X207019879Y-35988218D01*
X207029094Y-35981945D01*
X207093345Y-35942315D01*
X207217315Y-35818345D01*
X207309356Y-35669124D01*
X207309358Y-35669119D01*
X207364505Y-35502697D01*
X207364506Y-35502690D01*
X207374999Y-35399986D01*
X207375000Y-35399973D01*
X207375000Y-35250000D01*
X206280330Y-35250000D01*
X206300075Y-35230255D01*
X206349444Y-35144745D01*
X206375000Y-35049370D01*
X206375000Y-34950630D01*
X206349444Y-34855255D01*
X206300075Y-34769745D01*
X206280330Y-34750000D01*
X207374999Y-34750000D01*
X207374999Y-34600029D01*
X207374998Y-34600012D01*
X207364505Y-34497302D01*
X207309358Y-34330880D01*
X207309356Y-34330875D01*
X207217315Y-34181654D01*
X207093345Y-34057684D01*
X206944124Y-33965643D01*
X206944119Y-33965641D01*
X206777697Y-33910494D01*
X206777690Y-33910493D01*
X206674986Y-33900000D01*
X206250000Y-33900000D01*
X206250000Y-34719670D01*
X206230255Y-34699925D01*
X206144745Y-34650556D01*
X206049370Y-34625000D01*
X205950630Y-34625000D01*
X205855255Y-34650556D01*
X205769745Y-34699925D01*
X205750000Y-34719670D01*
X205750000Y-33900000D01*
X205325028Y-33900000D01*
X205325012Y-33900001D01*
X205222302Y-33910494D01*
X205055880Y-33965641D01*
X205055875Y-33965643D01*
X204906654Y-34057684D01*
X204782684Y-34181654D01*
X204690643Y-34330875D01*
X204690641Y-34330880D01*
X204635494Y-34497302D01*
X204635493Y-34497309D01*
X204625000Y-34600013D01*
X204625000Y-34750000D01*
X205719670Y-34750000D01*
X205699925Y-34769745D01*
X205650556Y-34855255D01*
X205625000Y-34950630D01*
X205625000Y-35049370D01*
X205650556Y-35144745D01*
X205699925Y-35230255D01*
X205719670Y-35250000D01*
X204625001Y-35250000D01*
X204625001Y-35399986D01*
X204635494Y-35502697D01*
X204690641Y-35669119D01*
X204690643Y-35669124D01*
X204782684Y-35818345D01*
X204906656Y-35942317D01*
X204970906Y-35981946D01*
X205017631Y-36033893D01*
X205028854Y-36102856D01*
X205001011Y-36166938D01*
X204993492Y-36175166D01*
X204885585Y-36283073D01*
X204783768Y-36423211D01*
X204705128Y-36577552D01*
X204651597Y-36742302D01*
X204643264Y-36794918D01*
X204624500Y-36913389D01*
X204624500Y-37086611D01*
X204651598Y-37257701D01*
X204705127Y-37422445D01*
X204783768Y-37576788D01*
X204885586Y-37716928D01*
X205008072Y-37839414D01*
X205008078Y-37839418D01*
X205091023Y-37899683D01*
X205133689Y-37955013D01*
X205139667Y-38024626D01*
X205107061Y-38086421D01*
X205091023Y-38100317D01*
X205008078Y-38160581D01*
X205008069Y-38160588D01*
X204885588Y-38283069D01*
X204885588Y-38283070D01*
X204885586Y-38283072D01*
X204841859Y-38343256D01*
X204783768Y-38423211D01*
X204705128Y-38577552D01*
X204651597Y-38742302D01*
X204624500Y-38913389D01*
X204624500Y-39086610D01*
X204633328Y-39142352D01*
X204651598Y-39257701D01*
X204705127Y-39422445D01*
X204783768Y-39576788D01*
X204885586Y-39716928D01*
X205008072Y-39839414D01*
X205008078Y-39839418D01*
X205091023Y-39899683D01*
X205133689Y-39955013D01*
X205139667Y-40024626D01*
X205107061Y-40086421D01*
X205091023Y-40100317D01*
X205008078Y-40160581D01*
X205008069Y-40160588D01*
X204885588Y-40283069D01*
X204885588Y-40283070D01*
X204885586Y-40283072D01*
X204862346Y-40315059D01*
X204783768Y-40423211D01*
X204705128Y-40577552D01*
X204651597Y-40742302D01*
X204626876Y-40898386D01*
X204624500Y-40913389D01*
X204624500Y-41086611D01*
X204651598Y-41257701D01*
X204703275Y-41416746D01*
X204705128Y-41422447D01*
X204783768Y-41576788D01*
X204885586Y-41716928D01*
X205008072Y-41839414D01*
X205008078Y-41839418D01*
X205091023Y-41899683D01*
X205133689Y-41955013D01*
X205139667Y-42024626D01*
X205107061Y-42086421D01*
X205091023Y-42100317D01*
X205008078Y-42160581D01*
X205008069Y-42160588D01*
X204885588Y-42283069D01*
X204885588Y-42283070D01*
X204885586Y-42283072D01*
X204873301Y-42299981D01*
X204783768Y-42423211D01*
X204705128Y-42577552D01*
X204651597Y-42742302D01*
X204626375Y-42901551D01*
X204624500Y-42913389D01*
X204624500Y-43086611D01*
X204651598Y-43257701D01*
X204705127Y-43422445D01*
X204783768Y-43576788D01*
X204885586Y-43716928D01*
X205008072Y-43839414D01*
X205008078Y-43839418D01*
X205091023Y-43899683D01*
X205133689Y-43955013D01*
X205139667Y-44024626D01*
X205107061Y-44086421D01*
X205091023Y-44100317D01*
X205008078Y-44160581D01*
X205008069Y-44160588D01*
X204885588Y-44283069D01*
X204885588Y-44283070D01*
X204885586Y-44283072D01*
X204841859Y-44343256D01*
X204783768Y-44423211D01*
X204705128Y-44577552D01*
X204651597Y-44742302D01*
X204624500Y-44913389D01*
X204624500Y-45086611D01*
X204651598Y-45257701D01*
X204705127Y-45422445D01*
X204783768Y-45576788D01*
X204885586Y-45716928D01*
X205008072Y-45839414D01*
X205148212Y-45941232D01*
X205302555Y-46019873D01*
X205467299Y-46073402D01*
X205638389Y-46100500D01*
X205638390Y-46100500D01*
X206361610Y-46100500D01*
X206361611Y-46100500D01*
X206432103Y-46089335D01*
X206501395Y-46098289D01*
X206554847Y-46143286D01*
X206575487Y-46210037D01*
X206575500Y-46211808D01*
X206575500Y-49776000D01*
X206555815Y-49843039D01*
X206503011Y-49888794D01*
X206451500Y-49900000D01*
X206250000Y-49900000D01*
X206250000Y-50719670D01*
X206230255Y-50699925D01*
X206144745Y-50650556D01*
X206049370Y-50625000D01*
X205950630Y-50625000D01*
X205855255Y-50650556D01*
X205769745Y-50699925D01*
X205750000Y-50719670D01*
X205750000Y-49900000D01*
X205325028Y-49900000D01*
X205325012Y-49900001D01*
X205222302Y-49910494D01*
X205055880Y-49965641D01*
X205055875Y-49965643D01*
X204906654Y-50057684D01*
X204782684Y-50181654D01*
X204690643Y-50330875D01*
X204690641Y-50330880D01*
X204635494Y-50497302D01*
X204635493Y-50497309D01*
X204625000Y-50600013D01*
X204625000Y-50750000D01*
X205719670Y-50750000D01*
X205699925Y-50769745D01*
X205650556Y-50855255D01*
X205625000Y-50950630D01*
X205625000Y-51049370D01*
X205650556Y-51144745D01*
X205699925Y-51230255D01*
X205719670Y-51250000D01*
X204625001Y-51250000D01*
X204625001Y-51399986D01*
X204635494Y-51502697D01*
X204690641Y-51669119D01*
X204690643Y-51669124D01*
X204782684Y-51818345D01*
X204906656Y-51942317D01*
X204970906Y-51981946D01*
X205017631Y-52033893D01*
X205028854Y-52102856D01*
X205001011Y-52166938D01*
X204993492Y-52175166D01*
X204885585Y-52283073D01*
X204783768Y-52423211D01*
X204705128Y-52577552D01*
X204699395Y-52595194D01*
X204659954Y-52652867D01*
X204595594Y-52680062D01*
X204526749Y-52668143D01*
X204493785Y-52644550D01*
X202126590Y-50277355D01*
X202126588Y-50277352D01*
X202007717Y-50158481D01*
X202007716Y-50158480D01*
X201920904Y-50108360D01*
X201920904Y-50108359D01*
X201920900Y-50108358D01*
X201870785Y-50079423D01*
X201718057Y-50038499D01*
X201559943Y-50038499D01*
X201552347Y-50038499D01*
X201552331Y-50038500D01*
X199774697Y-50038500D01*
X199707658Y-50018815D01*
X199661903Y-49966011D01*
X199651959Y-49896853D01*
X199664212Y-49858205D01*
X199676904Y-49833297D01*
X199745220Y-49699219D01*
X199808477Y-49504534D01*
X199840500Y-49302352D01*
X199840500Y-49097648D01*
X199827900Y-49018096D01*
X199808477Y-48895465D01*
X199745218Y-48700776D01*
X199711503Y-48634607D01*
X199652287Y-48518390D01*
X199644556Y-48507749D01*
X199531971Y-48352786D01*
X199387213Y-48208028D01*
X199221614Y-48087715D01*
X199187590Y-48070379D01*
X199128917Y-48040483D01*
X199078123Y-47992511D01*
X199061328Y-47924690D01*
X199083865Y-47858555D01*
X199128917Y-47819516D01*
X199221610Y-47772287D01*
X199338334Y-47687483D01*
X199387213Y-47651971D01*
X199387215Y-47651968D01*
X199387219Y-47651966D01*
X199531966Y-47507219D01*
X199531968Y-47507215D01*
X199531971Y-47507213D01*
X199603581Y-47408648D01*
X199652287Y-47341610D01*
X199745220Y-47159219D01*
X199808477Y-46964534D01*
X199840500Y-46762352D01*
X199840500Y-46557648D01*
X199827901Y-46478101D01*
X199808477Y-46355465D01*
X199766734Y-46226994D01*
X199745220Y-46160781D01*
X199745218Y-46160778D01*
X199745218Y-46160776D01*
X199700698Y-46073402D01*
X199652287Y-45978390D01*
X199628759Y-45946006D01*
X199531971Y-45812786D01*
X199387213Y-45668028D01*
X199221614Y-45547715D01*
X199215006Y-45544348D01*
X199128917Y-45500483D01*
X199078123Y-45452511D01*
X199061328Y-45384690D01*
X199083865Y-45318555D01*
X199128917Y-45279516D01*
X199221610Y-45232287D01*
X199242770Y-45216913D01*
X199387213Y-45111971D01*
X199387215Y-45111968D01*
X199387219Y-45111966D01*
X199531966Y-44967219D01*
X199531968Y-44967215D01*
X199531971Y-44967213D01*
X199624409Y-44839981D01*
X199652287Y-44801610D01*
X199745220Y-44619219D01*
X199808477Y-44424534D01*
X199840500Y-44222352D01*
X199840500Y-44017648D01*
X199828397Y-43941232D01*
X199808477Y-43815465D01*
X199745218Y-43620776D01*
X199711503Y-43554607D01*
X199652287Y-43438390D01*
X199640702Y-43422445D01*
X199531971Y-43272786D01*
X199387213Y-43128028D01*
X199221614Y-43007715D01*
X199215006Y-43004348D01*
X199128917Y-42960483D01*
X199078123Y-42912511D01*
X199061328Y-42844690D01*
X199083865Y-42778555D01*
X199128917Y-42739516D01*
X199221610Y-42692287D01*
X199242770Y-42676913D01*
X199387213Y-42571971D01*
X199387215Y-42571968D01*
X199387219Y-42571966D01*
X199531966Y-42427219D01*
X199531968Y-42427215D01*
X199531971Y-42427213D01*
X199624409Y-42299981D01*
X199652287Y-42261610D01*
X199745220Y-42079219D01*
X199808477Y-41884534D01*
X199840500Y-41682352D01*
X199840500Y-41477648D01*
X199808477Y-41275466D01*
X199745220Y-41080781D01*
X199745218Y-41080778D01*
X199745218Y-41080776D01*
X199659929Y-40913389D01*
X199652287Y-40898390D01*
X199644556Y-40887749D01*
X199531971Y-40732786D01*
X199387213Y-40588028D01*
X199221614Y-40467715D01*
X199215006Y-40464348D01*
X199128917Y-40420483D01*
X199078123Y-40372511D01*
X199061328Y-40304690D01*
X199083865Y-40238555D01*
X199128917Y-40199516D01*
X199221610Y-40152287D01*
X199319330Y-40081290D01*
X199387213Y-40031971D01*
X199387215Y-40031968D01*
X199387219Y-40031966D01*
X199531966Y-39887219D01*
X199531968Y-39887215D01*
X199531971Y-39887213D01*
X199590042Y-39807284D01*
X199652287Y-39721610D01*
X199745220Y-39539219D01*
X199808477Y-39344534D01*
X199840500Y-39142352D01*
X199840500Y-38937648D01*
X199808477Y-38735466D01*
X199745220Y-38540781D01*
X199745218Y-38540778D01*
X199745218Y-38540776D01*
X199711503Y-38474607D01*
X199652287Y-38358390D01*
X199597566Y-38283072D01*
X199531971Y-38192786D01*
X199387213Y-38048028D01*
X199221614Y-37927715D01*
X199215006Y-37924348D01*
X199128917Y-37880483D01*
X199078123Y-37832511D01*
X199061328Y-37764690D01*
X199083865Y-37698555D01*
X199128917Y-37659516D01*
X199221610Y-37612287D01*
X199270471Y-37576788D01*
X199387213Y-37491971D01*
X199387215Y-37491968D01*
X199387219Y-37491966D01*
X199531966Y-37347219D01*
X199531968Y-37347215D01*
X199531971Y-37347213D01*
X199597007Y-37257697D01*
X199652287Y-37181610D01*
X199745220Y-36999219D01*
X199808477Y-36804534D01*
X199840500Y-36602352D01*
X199840500Y-36397648D01*
X199808477Y-36195466D01*
X199745220Y-36000781D01*
X199745218Y-36000778D01*
X199745218Y-36000776D01*
X199699515Y-35911080D01*
X199652287Y-35818390D01*
X199644556Y-35807749D01*
X199531971Y-35652786D01*
X199387213Y-35508028D01*
X199221614Y-35387715D01*
X199159929Y-35356285D01*
X199128917Y-35340483D01*
X199078123Y-35292511D01*
X199061328Y-35224690D01*
X199083865Y-35158555D01*
X199128917Y-35119516D01*
X199221610Y-35072287D01*
X199318225Y-35002093D01*
X199387213Y-34951971D01*
X199387215Y-34951968D01*
X199387219Y-34951966D01*
X199531966Y-34807219D01*
X199531968Y-34807215D01*
X199531971Y-34807213D01*
X199652284Y-34641614D01*
X199652285Y-34641613D01*
X199652287Y-34641610D01*
X199745220Y-34459219D01*
X199808477Y-34264534D01*
X199840500Y-34062352D01*
X199840500Y-33857648D01*
X199823087Y-33747708D01*
X199808477Y-33655465D01*
X199745218Y-33460776D01*
X199711503Y-33394607D01*
X199652287Y-33278390D01*
X199644556Y-33267749D01*
X199531971Y-33112786D01*
X199387213Y-32968028D01*
X199221613Y-32847715D01*
X199221612Y-32847714D01*
X199221610Y-32847713D01*
X199133487Y-32802812D01*
X199039223Y-32754781D01*
X198844534Y-32691522D01*
X198669995Y-32663878D01*
X198642352Y-32659500D01*
X198437648Y-32659500D01*
X198413329Y-32663351D01*
X198235465Y-32691522D01*
X198040776Y-32754781D01*
X197858386Y-32847715D01*
X197692786Y-32968028D01*
X197548028Y-33112786D01*
X197427715Y-33278386D01*
X197334781Y-33460776D01*
X197271522Y-33655465D01*
X197239500Y-33857648D01*
X197239500Y-34062351D01*
X197271522Y-34264534D01*
X197334781Y-34459223D01*
X197360654Y-34510000D01*
X197427471Y-34641136D01*
X197427715Y-34641613D01*
X197548028Y-34807213D01*
X197692786Y-34951971D01*
X197826847Y-35049370D01*
X197858390Y-35072287D01*
X197946511Y-35117187D01*
X197951080Y-35119515D01*
X198001876Y-35167490D01*
X198018671Y-35235311D01*
X197996134Y-35301446D01*
X197951080Y-35340485D01*
X197858386Y-35387715D01*
X197692786Y-35508028D01*
X197548028Y-35652786D01*
X197427715Y-35818386D01*
X197380485Y-35911080D01*
X197332510Y-35961876D01*
X197264689Y-35978671D01*
X197198554Y-35956134D01*
X197159515Y-35911080D01*
X197153615Y-35899500D01*
X197112287Y-35818390D01*
X197104556Y-35807749D01*
X196991971Y-35652786D01*
X196847213Y-35508028D01*
X196681613Y-35387715D01*
X196681612Y-35387714D01*
X196681610Y-35387713D01*
X196591403Y-35341750D01*
X196499223Y-35294781D01*
X196304534Y-35231522D01*
X196126685Y-35203354D01*
X196102352Y-35199500D01*
X195897648Y-35199500D01*
X195873340Y-35203350D01*
X195695465Y-35231522D01*
X195500776Y-35294781D01*
X195318386Y-35387715D01*
X195152786Y-35508028D01*
X195008028Y-35652786D01*
X194887715Y-35818386D01*
X194794781Y-36000776D01*
X194731522Y-36195465D01*
X194699500Y-36397648D01*
X194699500Y-36602351D01*
X194731522Y-36804534D01*
X194794781Y-36999223D01*
X194887715Y-37181613D01*
X195008028Y-37347213D01*
X195152786Y-37491971D01*
X195269529Y-37576788D01*
X195318390Y-37612287D01*
X195411080Y-37659515D01*
X195500776Y-37705218D01*
X195500778Y-37705218D01*
X195500781Y-37705220D01*
X195536815Y-37716928D01*
X195695465Y-37768477D01*
X195714697Y-37771523D01*
X195897648Y-37800500D01*
X195897649Y-37800500D01*
X196102351Y-37800500D01*
X196102352Y-37800500D01*
X196304534Y-37768477D01*
X196499219Y-37705220D01*
X196681610Y-37612287D01*
X196774590Y-37544732D01*
X196847213Y-37491971D01*
X196847215Y-37491968D01*
X196847219Y-37491966D01*
X196991966Y-37347219D01*
X196991968Y-37347215D01*
X196991971Y-37347213D01*
X197112284Y-37181614D01*
X197112285Y-37181613D01*
X197112287Y-37181610D01*
X197159516Y-37088917D01*
X197207489Y-37038123D01*
X197275310Y-37021328D01*
X197341445Y-37043865D01*
X197380485Y-37088919D01*
X197427715Y-37181614D01*
X197548028Y-37347213D01*
X197692786Y-37491971D01*
X197809529Y-37576788D01*
X197858390Y-37612287D01*
X197949840Y-37658883D01*
X197951080Y-37659515D01*
X198001876Y-37707490D01*
X198018671Y-37775311D01*
X197996134Y-37841446D01*
X197951080Y-37880485D01*
X197858386Y-37927715D01*
X197692786Y-38048028D01*
X197548028Y-38192786D01*
X197427715Y-38358386D01*
X197334781Y-38540776D01*
X197271522Y-38735465D01*
X197239500Y-38937648D01*
X197239500Y-39142351D01*
X197271522Y-39344534D01*
X197334781Y-39539223D01*
X197353922Y-39576788D01*
X197425328Y-39716930D01*
X197427715Y-39721613D01*
X197548028Y-39887213D01*
X197692786Y-40031971D01*
X197847749Y-40144556D01*
X197858390Y-40152287D01*
X197949840Y-40198883D01*
X197951080Y-40199515D01*
X198001876Y-40247490D01*
X198018671Y-40315311D01*
X197996134Y-40381446D01*
X197951080Y-40420485D01*
X197858386Y-40467715D01*
X197692786Y-40588028D01*
X197548028Y-40732786D01*
X197427715Y-40898386D01*
X197334781Y-41080776D01*
X197271522Y-41275465D01*
X197249146Y-41416744D01*
X197239500Y-41477648D01*
X197239500Y-41682352D01*
X197243878Y-41709995D01*
X197271522Y-41884534D01*
X197334781Y-42079223D01*
X197427715Y-42261613D01*
X197548028Y-42427213D01*
X197692786Y-42571971D01*
X197847749Y-42684556D01*
X197858390Y-42692287D01*
X197949840Y-42738883D01*
X197951080Y-42739515D01*
X198001876Y-42787490D01*
X198018671Y-42855311D01*
X197996134Y-42921446D01*
X197951080Y-42960485D01*
X197858386Y-43007715D01*
X197692786Y-43128028D01*
X197548028Y-43272786D01*
X197427715Y-43438386D01*
X197334781Y-43620776D01*
X197271522Y-43815465D01*
X197248834Y-43958715D01*
X197239500Y-44017648D01*
X197239500Y-44222352D01*
X197240223Y-44226915D01*
X197271522Y-44424534D01*
X197334781Y-44619223D01*
X197427715Y-44801613D01*
X197548028Y-44967213D01*
X197692786Y-45111971D01*
X197847749Y-45224556D01*
X197858390Y-45232287D01*
X197949840Y-45278883D01*
X197951080Y-45279515D01*
X198001876Y-45327490D01*
X198018671Y-45395311D01*
X197996134Y-45461446D01*
X197951080Y-45500485D01*
X197858386Y-45547715D01*
X197692786Y-45668028D01*
X197548028Y-45812786D01*
X197427714Y-45978386D01*
X197406063Y-46020879D01*
X197358088Y-46071674D01*
X197290266Y-46088468D01*
X197224132Y-46065930D01*
X197196313Y-46038893D01*
X197109147Y-45922455D01*
X197109144Y-45922452D01*
X196993935Y-45836206D01*
X196993928Y-45836202D01*
X196859082Y-45785908D01*
X196859083Y-45785908D01*
X196799483Y-45779501D01*
X196799481Y-45779500D01*
X196799473Y-45779500D01*
X196799464Y-45779500D01*
X195403729Y-45779500D01*
X195403723Y-45779501D01*
X195344116Y-45785908D01*
X195209271Y-45836202D01*
X195209264Y-45836206D01*
X195094055Y-45922452D01*
X195018690Y-46023126D01*
X194962756Y-46064996D01*
X194893064Y-46069980D01*
X194846539Y-46049132D01*
X194704597Y-45946006D01*
X194704596Y-45946005D01*
X194704594Y-45946004D01*
X194652900Y-45919664D01*
X194543239Y-45863788D01*
X194543236Y-45863787D01*
X194371010Y-45807829D01*
X194192151Y-45779500D01*
X194192146Y-45779500D01*
X194011054Y-45779500D01*
X194011049Y-45779500D01*
X193832189Y-45807829D01*
X193659963Y-45863787D01*
X193659960Y-45863788D01*
X193498602Y-45946006D01*
X193352105Y-46052441D01*
X193352100Y-46052445D01*
X193224045Y-46180500D01*
X193201918Y-46210956D01*
X193146587Y-46253621D01*
X193076974Y-46259600D01*
X193015179Y-46226994D01*
X193001282Y-46210956D01*
X192979154Y-46180500D01*
X192851099Y-46052445D01*
X192851094Y-46052441D01*
X192704597Y-45946006D01*
X192704596Y-45946005D01*
X192704594Y-45946004D01*
X192652900Y-45919664D01*
X192543239Y-45863788D01*
X192543236Y-45863787D01*
X192371010Y-45807829D01*
X192192151Y-45779500D01*
X192192146Y-45779500D01*
X192011054Y-45779500D01*
X192011049Y-45779500D01*
X191832189Y-45807829D01*
X191659963Y-45863787D01*
X191659960Y-45863788D01*
X191498602Y-45946006D01*
X191352105Y-46052441D01*
X191352100Y-46052445D01*
X191224045Y-46180500D01*
X191224041Y-46180505D01*
X191117606Y-46327002D01*
X191035388Y-46488360D01*
X191035387Y-46488363D01*
X190979429Y-46660589D01*
X190951100Y-46839448D01*
X190951100Y-47020551D01*
X190979429Y-47199410D01*
X191035387Y-47371636D01*
X191035388Y-47371639D01*
X191091264Y-47481300D01*
X191104467Y-47507212D01*
X191117606Y-47532997D01*
X191224041Y-47679494D01*
X191224045Y-47679499D01*
X191352100Y-47807554D01*
X191382556Y-47829682D01*
X191425221Y-47885013D01*
X191431200Y-47954626D01*
X191398594Y-48016421D01*
X191382556Y-48030318D01*
X191352100Y-48052445D01*
X191224045Y-48180500D01*
X191224041Y-48180505D01*
X191117606Y-48327002D01*
X191035388Y-48488360D01*
X191035387Y-48488363D01*
X190979429Y-48660589D01*
X190951100Y-48839448D01*
X190951100Y-49020551D01*
X190979429Y-49199410D01*
X191035387Y-49371636D01*
X191035388Y-49371639D01*
X191063713Y-49427228D01*
X191115170Y-49528218D01*
X191117606Y-49532997D01*
X191224041Y-49679494D01*
X191224045Y-49679499D01*
X191352102Y-49807556D01*
X191361221Y-49814181D01*
X191403888Y-49869510D01*
X191409868Y-49939124D01*
X191377263Y-50000919D01*
X191316424Y-50035277D01*
X191288337Y-50038500D01*
X187947670Y-50038500D01*
X187947654Y-50038499D01*
X187940058Y-50038499D01*
X187781943Y-50038499D01*
X187781942Y-50038499D01*
X187723200Y-50054239D01*
X187653350Y-50052576D01*
X187595488Y-50013413D01*
X187573176Y-49972781D01*
X187556022Y-49919986D01*
X187556020Y-49919980D01*
X187502112Y-49814181D01*
X187463087Y-49737590D01*
X187435209Y-49699219D01*
X187342771Y-49571986D01*
X187198013Y-49427228D01*
X187032414Y-49306915D01*
X187023457Y-49302351D01*
X186939717Y-49259683D01*
X186888923Y-49211711D01*
X186872128Y-49143890D01*
X186894665Y-49077755D01*
X186939717Y-49038716D01*
X187032410Y-48991487D01*
X187164573Y-48895466D01*
X187198013Y-48871171D01*
X187198015Y-48871168D01*
X187198019Y-48871166D01*
X187342766Y-48726419D01*
X187342768Y-48726415D01*
X187342771Y-48726413D01*
X187420795Y-48619020D01*
X187463087Y-48560810D01*
X187556020Y-48378419D01*
X187619277Y-48183734D01*
X187651300Y-47981552D01*
X187651300Y-47776848D01*
X187619277Y-47574666D01*
X187597361Y-47507217D01*
X187556018Y-47379976D01*
X187522303Y-47313807D01*
X187463087Y-47197590D01*
X187435209Y-47159219D01*
X187342771Y-47031986D01*
X187198013Y-46887228D01*
X187032414Y-46766915D01*
X187023457Y-46762351D01*
X186939717Y-46719683D01*
X186888923Y-46671711D01*
X186872128Y-46603890D01*
X186894665Y-46537755D01*
X186939717Y-46498716D01*
X187032410Y-46451487D01*
X187164573Y-46355466D01*
X187198013Y-46331171D01*
X187198015Y-46331168D01*
X187198019Y-46331166D01*
X187342766Y-46186419D01*
X187342768Y-46186415D01*
X187342771Y-46186413D01*
X187413931Y-46088468D01*
X187463087Y-46020810D01*
X187556020Y-45838419D01*
X187619277Y-45643734D01*
X187651300Y-45441552D01*
X187651300Y-45236848D01*
X187631520Y-45111966D01*
X187619277Y-45034665D01*
X187556018Y-44839976D01*
X187506248Y-44742299D01*
X187463087Y-44657590D01*
X187404939Y-44577555D01*
X187342771Y-44491986D01*
X187198013Y-44347228D01*
X187032414Y-44226915D01*
X187023457Y-44222351D01*
X186939717Y-44179683D01*
X186888923Y-44131711D01*
X186872128Y-44063890D01*
X186894665Y-43997755D01*
X186939717Y-43958716D01*
X187032410Y-43911487D01*
X187053570Y-43896113D01*
X187198013Y-43791171D01*
X187198015Y-43791168D01*
X187198019Y-43791166D01*
X187342766Y-43646419D01*
X187342768Y-43646415D01*
X187342771Y-43646413D01*
X187395532Y-43573790D01*
X187463087Y-43480810D01*
X187556020Y-43298419D01*
X187619277Y-43103734D01*
X187651300Y-42901552D01*
X187651300Y-42696848D01*
X187619277Y-42494666D01*
X187556020Y-42299981D01*
X187556018Y-42299978D01*
X187556018Y-42299976D01*
X187522303Y-42233807D01*
X187463087Y-42117590D01*
X187419504Y-42057602D01*
X187342771Y-41951986D01*
X187198019Y-41807234D01*
X187161730Y-41780869D01*
X187119064Y-41725539D01*
X187113085Y-41655926D01*
X187145690Y-41594131D01*
X187206528Y-41559773D01*
X187221362Y-41557260D01*
X187258283Y-41553291D01*
X187393128Y-41502997D01*
X187393127Y-41502997D01*
X187393131Y-41502996D01*
X187508346Y-41416746D01*
X187594596Y-41301531D01*
X187644891Y-41166683D01*
X187651300Y-41107073D01*
X187651299Y-39411328D01*
X187644891Y-39351717D01*
X187609825Y-39257701D01*
X187594597Y-39216871D01*
X187594593Y-39216864D01*
X187508347Y-39101655D01*
X187508344Y-39101652D01*
X187393135Y-39015406D01*
X187393128Y-39015402D01*
X187258282Y-38965108D01*
X187258283Y-38965108D01*
X187198683Y-38958701D01*
X187198681Y-38958700D01*
X187198673Y-38958700D01*
X187198664Y-38958700D01*
X185502929Y-38958700D01*
X185502923Y-38958701D01*
X185443316Y-38965108D01*
X185308471Y-39015402D01*
X185308464Y-39015406D01*
X185193255Y-39101652D01*
X185193252Y-39101655D01*
X185107006Y-39216864D01*
X185107002Y-39216871D01*
X185056708Y-39351717D01*
X185050301Y-39411316D01*
X185050301Y-39411323D01*
X185050300Y-39411335D01*
X185050300Y-41107070D01*
X185050301Y-41107076D01*
X185056708Y-41166683D01*
X185107002Y-41301528D01*
X185107006Y-41301535D01*
X185193252Y-41416744D01*
X185193255Y-41416747D01*
X185308464Y-41502993D01*
X185308471Y-41502997D01*
X185353418Y-41519761D01*
X185443317Y-41553291D01*
X185480241Y-41557260D01*
X185544789Y-41583996D01*
X185584638Y-41641388D01*
X185587133Y-41711213D01*
X185551481Y-41771302D01*
X185539871Y-41780866D01*
X185503584Y-41807230D01*
X185358828Y-41951986D01*
X185238515Y-42117586D01*
X185145581Y-42299976D01*
X185082322Y-42494665D01*
X185050300Y-42696848D01*
X185050300Y-42901551D01*
X185082322Y-43103734D01*
X185145581Y-43298423D01*
X185238515Y-43480813D01*
X185358828Y-43646413D01*
X185503586Y-43791171D01*
X185652943Y-43899683D01*
X185669190Y-43911487D01*
X185760640Y-43958083D01*
X185761880Y-43958715D01*
X185812676Y-44006690D01*
X185829471Y-44074511D01*
X185806934Y-44140646D01*
X185761880Y-44179685D01*
X185669186Y-44226915D01*
X185503586Y-44347228D01*
X185358828Y-44491986D01*
X185238515Y-44657586D01*
X185145581Y-44839976D01*
X185082322Y-45034665D01*
X185050300Y-45236848D01*
X185050300Y-45441551D01*
X185082322Y-45643734D01*
X185145581Y-45838423D01*
X185238515Y-46020813D01*
X185358828Y-46186413D01*
X185503586Y-46331171D01*
X185658549Y-46443756D01*
X185669190Y-46451487D01*
X185760640Y-46498083D01*
X185761880Y-46498715D01*
X185812676Y-46546690D01*
X185829471Y-46614511D01*
X185806934Y-46680646D01*
X185761880Y-46719685D01*
X185669186Y-46766915D01*
X185503586Y-46887228D01*
X185358828Y-47031986D01*
X185238515Y-47197586D01*
X185145581Y-47379976D01*
X185082322Y-47574665D01*
X185050300Y-47776848D01*
X185050300Y-47981551D01*
X185082322Y-48183734D01*
X185145581Y-48378423D01*
X185201598Y-48488360D01*
X185233734Y-48551431D01*
X185238515Y-48560813D01*
X185358828Y-48726413D01*
X185503586Y-48871171D01*
X185658549Y-48983756D01*
X185669190Y-48991487D01*
X185760640Y-49038083D01*
X185761880Y-49038715D01*
X185812676Y-49086690D01*
X185829471Y-49154511D01*
X185806934Y-49220646D01*
X185761880Y-49259685D01*
X185669186Y-49306915D01*
X185503586Y-49427228D01*
X185358828Y-49571986D01*
X185238515Y-49737586D01*
X185145581Y-49919976D01*
X185082322Y-50114665D01*
X185050300Y-50316848D01*
X185050300Y-50401703D01*
X185030615Y-50468742D01*
X184977811Y-50514497D01*
X184908653Y-50524441D01*
X184845097Y-50495416D01*
X184838619Y-50489384D01*
X184626590Y-50277355D01*
X184626588Y-50277352D01*
X184507717Y-50158481D01*
X184507716Y-50158480D01*
X184420904Y-50108360D01*
X184420904Y-50108359D01*
X184420901Y-50108358D01*
X184418038Y-50106705D01*
X184369823Y-50056138D01*
X184356601Y-49987531D01*
X184379721Y-49926433D01*
X184384409Y-49919981D01*
X184412287Y-49881610D01*
X184505220Y-49699219D01*
X184568477Y-49504534D01*
X184600500Y-49302352D01*
X184600500Y-49097648D01*
X184587900Y-49018096D01*
X184568477Y-48895465D01*
X184505218Y-48700776D01*
X184471503Y-48634607D01*
X184412287Y-48518390D01*
X184404556Y-48507749D01*
X184291971Y-48352786D01*
X184147213Y-48208028D01*
X183981614Y-48087715D01*
X183947590Y-48070379D01*
X183888917Y-48040483D01*
X183838123Y-47992511D01*
X183821328Y-47924690D01*
X183843865Y-47858555D01*
X183888917Y-47819516D01*
X183981610Y-47772287D01*
X184098334Y-47687483D01*
X184147213Y-47651971D01*
X184147215Y-47651968D01*
X184147219Y-47651966D01*
X184291966Y-47507219D01*
X184291968Y-47507215D01*
X184291971Y-47507213D01*
X184363581Y-47408648D01*
X184412287Y-47341610D01*
X184505220Y-47159219D01*
X184568477Y-46964534D01*
X184600500Y-46762352D01*
X184600500Y-46557648D01*
X184587901Y-46478101D01*
X184568477Y-46355465D01*
X184526734Y-46226994D01*
X184505220Y-46160781D01*
X184505218Y-46160778D01*
X184505218Y-46160776D01*
X184460698Y-46073402D01*
X184412287Y-45978390D01*
X184388759Y-45946006D01*
X184291971Y-45812786D01*
X184147213Y-45668028D01*
X183981614Y-45547715D01*
X183975006Y-45544348D01*
X183888917Y-45500483D01*
X183838123Y-45452511D01*
X183821328Y-45384690D01*
X183843865Y-45318555D01*
X183888917Y-45279516D01*
X183981610Y-45232287D01*
X184002770Y-45216913D01*
X184147213Y-45111971D01*
X184147215Y-45111968D01*
X184147219Y-45111966D01*
X184291966Y-44967219D01*
X184291968Y-44967215D01*
X184291971Y-44967213D01*
X184384409Y-44839981D01*
X184412287Y-44801610D01*
X184505220Y-44619219D01*
X184568477Y-44424534D01*
X184600500Y-44222352D01*
X184600500Y-44017648D01*
X184588397Y-43941232D01*
X184568477Y-43815465D01*
X184505218Y-43620776D01*
X184471503Y-43554607D01*
X184412287Y-43438390D01*
X184400702Y-43422445D01*
X184291971Y-43272786D01*
X184147213Y-43128028D01*
X183981614Y-43007715D01*
X183975006Y-43004348D01*
X183888917Y-42960483D01*
X183838123Y-42912511D01*
X183821328Y-42844690D01*
X183843865Y-42778555D01*
X183888917Y-42739516D01*
X183981610Y-42692287D01*
X184002770Y-42676913D01*
X184147213Y-42571971D01*
X184147215Y-42571968D01*
X184147219Y-42571966D01*
X184291966Y-42427219D01*
X184291968Y-42427215D01*
X184291971Y-42427213D01*
X184384409Y-42299981D01*
X184412287Y-42261610D01*
X184505220Y-42079219D01*
X184568477Y-41884534D01*
X184600500Y-41682352D01*
X184600500Y-41477648D01*
X184568477Y-41275466D01*
X184505220Y-41080781D01*
X184505218Y-41080778D01*
X184505218Y-41080776D01*
X184419929Y-40913389D01*
X184412287Y-40898390D01*
X184404556Y-40887749D01*
X184291971Y-40732786D01*
X184147213Y-40588028D01*
X183981614Y-40467715D01*
X183975006Y-40464348D01*
X183888917Y-40420483D01*
X183838123Y-40372511D01*
X183821328Y-40304690D01*
X183843865Y-40238555D01*
X183888917Y-40199516D01*
X183981610Y-40152287D01*
X184079330Y-40081290D01*
X184147213Y-40031971D01*
X184147215Y-40031968D01*
X184147219Y-40031966D01*
X184291966Y-39887219D01*
X184291968Y-39887215D01*
X184291971Y-39887213D01*
X184350042Y-39807284D01*
X184412287Y-39721610D01*
X184505220Y-39539219D01*
X184568477Y-39344534D01*
X184600500Y-39142352D01*
X184600500Y-38937648D01*
X184568477Y-38735466D01*
X184505220Y-38540781D01*
X184505218Y-38540778D01*
X184505218Y-38540776D01*
X184471503Y-38474607D01*
X184412287Y-38358390D01*
X184357566Y-38283072D01*
X184291971Y-38192786D01*
X184147213Y-38048028D01*
X183981614Y-37927715D01*
X183975006Y-37924348D01*
X183888917Y-37880483D01*
X183838123Y-37832511D01*
X183821328Y-37764690D01*
X183843865Y-37698555D01*
X183888917Y-37659516D01*
X183981610Y-37612287D01*
X184030471Y-37576788D01*
X184147213Y-37491971D01*
X184147215Y-37491968D01*
X184147219Y-37491966D01*
X184291966Y-37347219D01*
X184291968Y-37347215D01*
X184291971Y-37347213D01*
X184357007Y-37257697D01*
X184412287Y-37181610D01*
X184505220Y-36999219D01*
X184568477Y-36804534D01*
X184600500Y-36602352D01*
X184600500Y-36397648D01*
X184568477Y-36195466D01*
X184505220Y-36000781D01*
X184505218Y-36000778D01*
X184505218Y-36000776D01*
X184459515Y-35911080D01*
X184412287Y-35818390D01*
X184404556Y-35807749D01*
X184291971Y-35652786D01*
X184147217Y-35508032D01*
X184147212Y-35508028D01*
X184110325Y-35481228D01*
X184067659Y-35425898D01*
X184061680Y-35356285D01*
X184094286Y-35294490D01*
X184155124Y-35260133D01*
X184169956Y-35257620D01*
X184207379Y-35253596D01*
X184342086Y-35203354D01*
X184342093Y-35203350D01*
X184457187Y-35117190D01*
X184457190Y-35117187D01*
X184543350Y-35002093D01*
X184543354Y-35002086D01*
X184593596Y-34867379D01*
X184593598Y-34867372D01*
X184599999Y-34807844D01*
X184600000Y-34807827D01*
X184600000Y-34599448D01*
X188499500Y-34599448D01*
X188499500Y-34780551D01*
X188527829Y-34959410D01*
X188583787Y-35131636D01*
X188583788Y-35131639D01*
X188620330Y-35203354D01*
X188649260Y-35260133D01*
X188666006Y-35292997D01*
X188772441Y-35439494D01*
X188772445Y-35439499D01*
X188900500Y-35567554D01*
X188900505Y-35567558D01*
X189017806Y-35652781D01*
X189047006Y-35673996D01*
X189152484Y-35727740D01*
X189208360Y-35756211D01*
X189208363Y-35756212D01*
X189294476Y-35784191D01*
X189380591Y-35812171D01*
X189463429Y-35825291D01*
X189559449Y-35840500D01*
X189559454Y-35840500D01*
X189740551Y-35840500D01*
X189827259Y-35826765D01*
X189919409Y-35812171D01*
X190091639Y-35756211D01*
X190252994Y-35673996D01*
X190399501Y-35567553D01*
X190527553Y-35439501D01*
X190633996Y-35292994D01*
X190716211Y-35131639D01*
X190772171Y-34959409D01*
X190788667Y-34855255D01*
X190797527Y-34799321D01*
X190827456Y-34736186D01*
X190886768Y-34699255D01*
X190956630Y-34700253D01*
X191014863Y-34738863D01*
X191042473Y-34799321D01*
X191067829Y-34959410D01*
X191123787Y-35131636D01*
X191123788Y-35131639D01*
X191160330Y-35203354D01*
X191189260Y-35260133D01*
X191206006Y-35292997D01*
X191312441Y-35439494D01*
X191312445Y-35439499D01*
X191440500Y-35567554D01*
X191440505Y-35567558D01*
X191557806Y-35652781D01*
X191587006Y-35673996D01*
X191692484Y-35727740D01*
X191748360Y-35756211D01*
X191748363Y-35756212D01*
X191834476Y-35784191D01*
X191920591Y-35812171D01*
X192003429Y-35825291D01*
X192099449Y-35840500D01*
X192099454Y-35840500D01*
X192280551Y-35840500D01*
X192367259Y-35826765D01*
X192459409Y-35812171D01*
X192631639Y-35756211D01*
X192792994Y-35673996D01*
X192939501Y-35567553D01*
X193067553Y-35439501D01*
X193173996Y-35292994D01*
X193256211Y-35131639D01*
X193312171Y-34959409D01*
X193328667Y-34855255D01*
X193340500Y-34780551D01*
X193340500Y-34599448D01*
X193320395Y-34472518D01*
X193312171Y-34420591D01*
X193256211Y-34248361D01*
X193256211Y-34248360D01*
X193222222Y-34181654D01*
X193173996Y-34087006D01*
X193134329Y-34032409D01*
X193067558Y-33940505D01*
X193067554Y-33940500D01*
X192939499Y-33812445D01*
X192939494Y-33812441D01*
X192792997Y-33706006D01*
X192792996Y-33706005D01*
X192792994Y-33706004D01*
X192741300Y-33679664D01*
X192631639Y-33623788D01*
X192631636Y-33623787D01*
X192459410Y-33567829D01*
X192280551Y-33539500D01*
X192280546Y-33539500D01*
X192099454Y-33539500D01*
X192099449Y-33539500D01*
X191920589Y-33567829D01*
X191748363Y-33623787D01*
X191748360Y-33623788D01*
X191587002Y-33706006D01*
X191440505Y-33812441D01*
X191440500Y-33812445D01*
X191312445Y-33940500D01*
X191312441Y-33940505D01*
X191206006Y-34087002D01*
X191123788Y-34248360D01*
X191123787Y-34248363D01*
X191067829Y-34420589D01*
X191042473Y-34580678D01*
X191012544Y-34643813D01*
X190953232Y-34680744D01*
X190883369Y-34679746D01*
X190825137Y-34641136D01*
X190797527Y-34580678D01*
X190780395Y-34472518D01*
X190772171Y-34420591D01*
X190716211Y-34248361D01*
X190716211Y-34248360D01*
X190682222Y-34181654D01*
X190633996Y-34087006D01*
X190594329Y-34032409D01*
X190527558Y-33940505D01*
X190527554Y-33940500D01*
X190399499Y-33812445D01*
X190399494Y-33812441D01*
X190252997Y-33706006D01*
X190252996Y-33706005D01*
X190252994Y-33706004D01*
X190201300Y-33679664D01*
X190091639Y-33623788D01*
X190091636Y-33623787D01*
X189919410Y-33567829D01*
X189740551Y-33539500D01*
X189740546Y-33539500D01*
X189559454Y-33539500D01*
X189559449Y-33539500D01*
X189380589Y-33567829D01*
X189208363Y-33623787D01*
X189208360Y-33623788D01*
X189047002Y-33706006D01*
X188900505Y-33812441D01*
X188900500Y-33812445D01*
X188772445Y-33940500D01*
X188772441Y-33940505D01*
X188666006Y-34087002D01*
X188583788Y-34248360D01*
X188583787Y-34248363D01*
X188527829Y-34420589D01*
X188499500Y-34599448D01*
X184600000Y-34599448D01*
X184600000Y-34210000D01*
X183790748Y-34210000D01*
X183812518Y-34172292D01*
X183850000Y-34032409D01*
X183850000Y-33887591D01*
X183812518Y-33747708D01*
X183790748Y-33710000D01*
X184600000Y-33710000D01*
X184600000Y-33112172D01*
X184599999Y-33112155D01*
X184593598Y-33052627D01*
X184593596Y-33052620D01*
X184543354Y-32917913D01*
X184543350Y-32917906D01*
X184457190Y-32802812D01*
X184457187Y-32802809D01*
X184342093Y-32716649D01*
X184342086Y-32716645D01*
X184207379Y-32666403D01*
X184207372Y-32666401D01*
X184147844Y-32660000D01*
X183550000Y-32660000D01*
X183550000Y-33469252D01*
X183512292Y-33447482D01*
X183372409Y-33410000D01*
X183227591Y-33410000D01*
X183087708Y-33447482D01*
X183050000Y-33469252D01*
X183050000Y-32660000D01*
X182452155Y-32660000D01*
X182392627Y-32666401D01*
X182392620Y-32666403D01*
X182257913Y-32716645D01*
X182257906Y-32716649D01*
X182142812Y-32802809D01*
X182142809Y-32802812D01*
X182056649Y-32917906D01*
X182056645Y-32917913D01*
X182006403Y-33052620D01*
X182006401Y-33052627D01*
X182000000Y-33112155D01*
X182000000Y-33710000D01*
X182809252Y-33710000D01*
X182787482Y-33747708D01*
X182750000Y-33887591D01*
X182750000Y-34032409D01*
X182787482Y-34172292D01*
X182809252Y-34210000D01*
X182000000Y-34210000D01*
X182000000Y-34807844D01*
X182006401Y-34867372D01*
X182006403Y-34867379D01*
X182056645Y-35002086D01*
X182056649Y-35002093D01*
X182142809Y-35117187D01*
X182142812Y-35117190D01*
X182257906Y-35203350D01*
X182257913Y-35203354D01*
X182392620Y-35253596D01*
X182430043Y-35257620D01*
X182494595Y-35284358D01*
X182534443Y-35341750D01*
X182536937Y-35411576D01*
X182501285Y-35471665D01*
X182489675Y-35481227D01*
X182452789Y-35508026D01*
X182452782Y-35508032D01*
X182308028Y-35652786D01*
X182187715Y-35818386D01*
X182094781Y-36000776D01*
X182031522Y-36195465D01*
X181999500Y-36397648D01*
X181999500Y-36602351D01*
X182031522Y-36804534D01*
X182094781Y-36999223D01*
X182187715Y-37181613D01*
X182308028Y-37347213D01*
X182452786Y-37491971D01*
X182569529Y-37576788D01*
X182618390Y-37612287D01*
X182709840Y-37658883D01*
X182711080Y-37659515D01*
X182761876Y-37707490D01*
X182778671Y-37775311D01*
X182756134Y-37841446D01*
X182711080Y-37880485D01*
X182618386Y-37927715D01*
X182452786Y-38048028D01*
X182308028Y-38192786D01*
X182187715Y-38358386D01*
X182094781Y-38540776D01*
X182031522Y-38735465D01*
X181999500Y-38937648D01*
X181999500Y-39142351D01*
X182031522Y-39344534D01*
X182094781Y-39539223D01*
X182113922Y-39576788D01*
X182185328Y-39716930D01*
X182187715Y-39721613D01*
X182308028Y-39887213D01*
X182452786Y-40031971D01*
X182607749Y-40144556D01*
X182618390Y-40152287D01*
X182709840Y-40198883D01*
X182711080Y-40199515D01*
X182761876Y-40247490D01*
X182778671Y-40315311D01*
X182756134Y-40381446D01*
X182711080Y-40420485D01*
X182618386Y-40467715D01*
X182452786Y-40588028D01*
X182308028Y-40732786D01*
X182187715Y-40898386D01*
X182094781Y-41080776D01*
X182031522Y-41275465D01*
X182009146Y-41416744D01*
X181999500Y-41477648D01*
X181999500Y-41682352D01*
X182003878Y-41709995D01*
X182031522Y-41884534D01*
X182094781Y-42079223D01*
X182187715Y-42261613D01*
X182308028Y-42427213D01*
X182452786Y-42571971D01*
X182607749Y-42684556D01*
X182618390Y-42692287D01*
X182709840Y-42738883D01*
X182711080Y-42739515D01*
X182761876Y-42787490D01*
X182778671Y-42855311D01*
X182756134Y-42921446D01*
X182711080Y-42960485D01*
X182618386Y-43007715D01*
X182452786Y-43128028D01*
X182308028Y-43272786D01*
X182187715Y-43438386D01*
X182094781Y-43620776D01*
X182031522Y-43815465D01*
X182008834Y-43958715D01*
X181999500Y-44017648D01*
X181999500Y-44222352D01*
X182000223Y-44226915D01*
X182031522Y-44424534D01*
X182094781Y-44619223D01*
X182187715Y-44801613D01*
X182308028Y-44967213D01*
X182452786Y-45111971D01*
X182607749Y-45224556D01*
X182618390Y-45232287D01*
X182709840Y-45278883D01*
X182711080Y-45279515D01*
X182761876Y-45327490D01*
X182778671Y-45395311D01*
X182756134Y-45461446D01*
X182711080Y-45500485D01*
X182618386Y-45547715D01*
X182452786Y-45668028D01*
X182308028Y-45812786D01*
X182187715Y-45978386D01*
X182094781Y-46160776D01*
X182031522Y-46355465D01*
X182008834Y-46498715D01*
X181999500Y-46557648D01*
X181999500Y-46762352D01*
X182000223Y-46766915D01*
X182031522Y-46964534D01*
X182094781Y-47159223D01*
X182187715Y-47341613D01*
X182308028Y-47507213D01*
X182452786Y-47651971D01*
X182607749Y-47764556D01*
X182618390Y-47772287D01*
X182709840Y-47818883D01*
X182711080Y-47819515D01*
X182761876Y-47867490D01*
X182778671Y-47935311D01*
X182756134Y-48001446D01*
X182711080Y-48040485D01*
X182618386Y-48087715D01*
X182452786Y-48208028D01*
X182308028Y-48352786D01*
X182187715Y-48518386D01*
X182094781Y-48700776D01*
X182031522Y-48895465D01*
X182012100Y-49018096D01*
X181999500Y-49097648D01*
X181999500Y-49302352D01*
X182000223Y-49306915D01*
X182031522Y-49504534D01*
X182094781Y-49699223D01*
X182187715Y-49881613D01*
X182308028Y-50047213D01*
X182359583Y-50098768D01*
X182393068Y-50160091D01*
X182388084Y-50229783D01*
X182359583Y-50274130D01*
X181830286Y-50803428D01*
X181718481Y-50915232D01*
X181718480Y-50915234D01*
X181676011Y-50988794D01*
X181668361Y-51002044D01*
X181668359Y-51002046D01*
X181639425Y-51052159D01*
X181639424Y-51052160D01*
X181639423Y-51052165D01*
X181598499Y-51204893D01*
X181598499Y-51363007D01*
X181598499Y-51363009D01*
X181598500Y-51373003D01*
X181598500Y-55632330D01*
X181598499Y-55632348D01*
X181598499Y-55798054D01*
X181598498Y-55798054D01*
X179500500Y-55798054D01*
X179500500Y-29624000D01*
X179520185Y-29556961D01*
X179572989Y-29511206D01*
X179624500Y-29500000D01*
X235375500Y-29500000D01*
X235442539Y-29519685D01*
G37*
%TD.AperFunction*%
%TD*%
M02*
